<?xml version="1.0" standalone="no"?>
<!DOCTYPE svg PUBLIC "-//W3C//DTD SVG 1.1//EN" "http://www.w3.org/Graphics/SVG/1.1/DTD/svg11.dtd" >
<svg xmlns="http://www.w3.org/2000/svg" xmlns:xlink="http://www.w3.org/1999/xlink" version="1.1">
<metadata>
Created by FontForge 20170910 at Fri Jun 20 12:00:40 2014
 By Jimmy Wärting
Copyright (c) 2010-2013, Sorkin Type Co (www.sorkintype.com) with Reserved Font Name 'Merriweather'
</metadata>
<defs>
<font id="Merriweather-Bold" horiz-adv-x="0" >
  <font-face 
    font-family="Merriweather"
    font-weight="700"
    font-stretch="normal"
    units-per-em="2048"
    panose-1="2 6 8 3 5 4 6 3 7 4"
    ascent="1638"
    descent="-410"
    x-height="1146"
    cap-height="1522"
    bbox="-159 -552 2364 2014"
    underline-thickness="96"
    underline-position="-170"
    unicode-range="U+0009-25FC"
  />
<missing-glyph horiz-adv-x="748" 
d="M68 0v1365h544v-1365h-544zM136 68h408v1229h-408v-1229z" />
    <glyph glyph-name=".notdef" horiz-adv-x="748" 
d="M68 0v1365h544v-1365h-544zM136 68h408v1229h-408v-1229z" />
    <glyph glyph-name="glyph1" horiz-adv-x="2048" 
 />
    <glyph glyph-name="glyph1" horiz-adv-x="2048" 
 />
    <glyph glyph-name="uni000D" unicode="&#xd;" 
 />
    <glyph glyph-name="uni0009" unicode="&#x9;" 
 />
    <glyph glyph-name="uni000A" unicode="&#xa;" 
 />
    <glyph glyph-name="uni0010" 
 />
    <glyph glyph-name="uni0011" 
 />
    <glyph glyph-name="uni0012" 
 />
    <glyph glyph-name="uni0013" 
 />
    <glyph glyph-name="uni0014" 
 />
    <glyph glyph-name="uni001E" 
 />
    <glyph glyph-name="uni001F" 
 />
    <glyph glyph-name="space" unicode=" " horiz-adv-x="643" 
 />
    <glyph glyph-name="exclam" unicode="!" horiz-adv-x="723" 
d="M167 143q0 40 16 75t44 61t65 40.5t79 14.5q49 0 83 -13t55.5 -35t31 -51t9.5 -62q0 -44 -15.5 -79t-43 -59.5t-66 -38t-83.5 -13.5q-35 0 -67 11t-56 32t-38 50.5t-14 66.5zM181 1780h338l-73 -1236h-186z" />
    <glyph glyph-name="quotedbl" unicode="&#x22;" horiz-adv-x="1317" 
d="M229 1684h297l-58 -775h-181zM791 1684h297l-58 -775h-181z" />
    <glyph glyph-name="numbersign" unicode="#" horiz-adv-x="1523" 
d="M151 521h231l32 348h-229v167h247l30 337h206l-30 -337h287l31 337h206l-31 -337h237v-167h-254l-30 -348h240l1 -167h-254l-33 -354h-206l33 354h-290l-34 -354h-208l37 354h-217zM588 521h284l36 348h-288z" />
    <glyph glyph-name="dollar" unicode="$" horiz-adv-x="1370" 
d="M187 73l17 360h174l48 -244q32 -34 85 -55.5t139 -21.5q66 0 114 16t79 44.5t45.5 68.5t14.5 87q0 51 -25 93.5t-70.5 81.5t-109 76.5t-140.5 76.5q-75 40 -140.5 86.5t-115 105t-78 134t-28.5 174.5q0 74 28.5 137.5t82 112.5t128.5 82t168 45v229h179v-224
q59 -4 111.5 -13.5t96 -20.5t76 -21.5t52.5 -16.5l-13 -333h-169l-46 225q-23 23 -61 38.5t-100 14.5q-53 0 -97.5 -12.5t-76.5 -36.5t-49.5 -58.5t-17.5 -77.5q0 -59 31.5 -106t81 -86t110 -72t117.5 -65q81 -46 151 -92t122 -101t82 -123t30 -158q0 -81 -25.5 -155.5
t-81 -134.5t-142.5 -100.5t-211 -51.5l-2 -239h-179l2 239q-69 6 -130.5 18.5t-112 26.5t-87.5 27.5t-57 19.5z" />
    <glyph glyph-name="percent" unicode="%" horiz-adv-x="2130" 
d="M82 1075q0 108 35 192t94.5 141t136.5 87t161 30q102 0 176 -34t122 -93.5t71 -139t23 -170.5q0 -108 -36 -191t-96 -139.5t-137 -85.5t-159 -29q-90 0 -162.5 34.5t-123.5 93.5t-78 137.5t-27 166.5zM345 1086q0 -52 5.5 -106.5t21 -99.5t43.5 -74t73 -29
q48 0 77.5 26.5t46 69.5t22 97t5.5 109t-5.5 111t-21.5 100.5t-44 72.5t-74 28q-47 0 -76.5 -27t-45.5 -70.5t-21.5 -98t-5.5 -109.5zM616 0l656 1538h199l-656 -1538h-199zM1191 458q0 108 35 192t94.5 141t136.5 87t161 30q102 0 176 -34t122 -93.5t71 -139t23 -170.5
q0 -108 -36 -191t-96 -139.5t-137.5 -85.5t-159.5 -29q-90 0 -162 34.5t-123 93.5t-78 137.5t-27 166.5zM1454 469q0 -51 5.5 -106t21 -100t43.5 -74t73 -29q48 0 77.5 26.5t45.5 69.5t21.5 97t5.5 109t-5.5 111t-21 100.5t-43.5 72.5t-74 28q-48 0 -77 -27t-45 -70.5
t-21.5 -98t-5.5 -109.5z" />
    <glyph glyph-name="ampersand" unicode="&#x26;" horiz-adv-x="1587" 
d="M100 373q0 71 24.5 129t65.5 104.5t94.5 81.5t110.5 61q-32 41 -62 87.5t-52.5 98t-36 108t-13.5 116.5q0 80 33.5 149.5t93 120.5t141 80.5t177.5 29.5q102 0 175 -25.5t120 -66.5t69.5 -94t22.5 -107q0 -82 -24.5 -145t-68 -114t-104 -94.5t-132.5 -86.5
q37 -44 84.5 -100.5t97.5 -113.5t97.5 -109t84.5 -88l29 -28q36 59 50.5 136.5t10.5 186.5l-156 29v139h509v-139l-144 -29q0 -80 -11 -148t-30 -124t-44.5 -100.5t-52.5 -76.5q48 -41 101 -67.5t121 -31.5v-125q-12 -9 -36 -15t-51 -10t-52 -6t-39 -2q-40 0 -74 4t-65 13.5
t-61 25t-63 38.5q-41 -25 -88 -41.5t-93.5 -26.5t-91 -14.5t-80.5 -4.5q-136 0 -245 25t-185 74.5t-116.5 123.5t-40.5 172zM387 418q0 -58 19.5 -113t59.5 -98t100 -69t140 -26q47 0 105 11t113 38q0 1 -0.5 1t-0.5 1q-51 46 -108.5 107t-116 126.5t-115 131.5t-105.5 124
q-41 -47 -66 -103t-25 -131zM518 1209q0 -51 14.5 -97t35.5 -86t46 -73t46 -58q46 40 77 81t50 84.5t26.5 89.5t7.5 96q0 24 -5 55t-20.5 59t-44 47.5t-75.5 19.5q-35 0 -64 -15.5t-50 -44t-32.5 -69t-11.5 -89.5z" />
    <glyph glyph-name="quotesingle" unicode="'" horiz-adv-x="755" 
d="M229 1684h297l-58 -775h-181z" />
    <glyph glyph-name="parenleft" unicode="(" horiz-adv-x="904" 
d="M142 685q0 154 31 285t80.5 239.5t109.5 194t118 147.5t106.5 101t75.5 55l112 -92q-21 -14 -55.5 -45.5t-74 -83t-80 -123.5t-74.5 -165.5t-56.5 -210t-26.5 -257.5q-4 -156 14.5 -287.5t51.5 -239.5t75 -193t84.5 -147t81 -102t63.5 -58l-115 -90q-22 14 -69 50
t-105 96.5t-119.5 146.5t-112 200.5t-83 258.5t-32.5 320z" />
    <glyph glyph-name="parenright" unicode=")" horiz-adv-x="904" 
d="M125 1617l115 90q22 -14 69 -50t105 -96.5t119.5 -146.5t112 -200.5t83 -258.5t32.5 -320q0 -154 -31 -285t-80.5 -239.5t-109.5 -194t-118 -147.5t-106.5 -101t-75.5 -55l-112 92q21 14 55.5 45.5t74 83t80 123.5t74.5 165.5t56.5 210t26.5 257.5q4 156 -14.5 287.5
t-51.5 239.5t-75 193t-84.5 147t-81 102t-63.5 58z" />
    <glyph glyph-name="asterisk" unicode="*" horiz-adv-x="1328" 
d="M114 1319l125 223l238 -188l155 -148l-57 208l-50 300h259l-38 -297l-53 -208l149 153l239 188l128 -220l-277 -116l-207 -59l207 -51l282 -110l-131 -229l-233 187l-157 148l59 -208l50 -298l-260 -1l38 299l52 210l-147 -155l-238 -191l-129 222l276 119l208 57
l-208 53z" />
    <glyph glyph-name="plus" unicode="+" horiz-adv-x="1353" 
d="M209 506v212h191l178 -12l-7 151v228h212v-228l-9 -151l148 12h222v-212h-222l-148 7l9 -149v-240h-212v240l7 149l-178 -7h-191z" />
    <glyph glyph-name="comma" unicode="," horiz-adv-x="696" 
d="M174 -397q24 14 50.5 42.5t49 67t37.5 85.5t15 98q0 37 -11 58.5t-28 37t-36.5 28t-36.5 30.5t-28 46t-11 74q0 39 15.5 71.5t40 55t54.5 35t60 12.5h16q51 0 89.5 -21.5t65 -59t39.5 -87t13 -104.5q0 -57 -11.5 -115.5t-32 -115.5t-49 -109.5t-61 -96.5t-69 -76.5
t-73.5 -49.5h-3l-95 62v32z" />
    <glyph glyph-name="hyphen" unicode="-" horiz-adv-x="1345" 
d="M230 515v203h885v-203h-885z" />
    <glyph glyph-name="period" unicode="." horiz-adv-x="717" 
d="M167 143q0 40 16 75t44 61t65 40.5t79 14.5q49 0 83 -13t55.5 -35t31 -51t9.5 -62q0 -43 -15.5 -78t-43 -60t-66 -38.5t-83.5 -13.5q-35 0 -67 11t-56 32t-38 50.5t-14 66.5z" />
    <glyph glyph-name="slash" unicode="/" horiz-adv-x="882" 
d="M35 -363l573 1962h240l-573 -1962h-240z" />
    <glyph glyph-name="zero" unicode="0" horiz-adv-x="1310" 
d="M101 629q1 169 48.5 293t127.5 206t185 122t222 40q135 0 234 -42.5t163.5 -123.5t96 -199.5t30.5 -270.5q0 -168 -46 -294.5t-125 -211t-184 -126.5t-223 -42q-133 0 -232.5 45t-165.5 129t-98.5 204.5t-32.5 270.5zM431 654q0 -136 12 -237.5t39 -169t70.5 -101
t106.5 -33.5q62 0 104 32t67.5 96.5t36.5 161t11 226.5q0 138 -11 238t-36.5 164t-68.5 94.5t-106 30.5q-62 0 -105 -31t-69.5 -93.5t-38.5 -157t-12 -220.5z" />
    <glyph glyph-name="one" unicode="1" horiz-adv-x="898" 
d="M77 1095q58 12 115.5 34t111 50t100.5 59.5t84 62.5h1l164 -29v-1119l210 -27v-126h-751v126l227 27v825q-19 -6 -50.5 -12.5t-65.5 -12.5t-66.5 -10t-53.5 -5z" />
    <glyph glyph-name="two" unicode="2" horiz-adv-x="1227" 
d="M81 121q137 78 254 169.5t202.5 189t134 197.5t48.5 195q0 48 -16 88t-46 69.5t-72.5 45.5t-96.5 16q-59 0 -108 -14t-88.5 -34.5t-70 -43.5t-52.5 -42l-81 121q28 37 79 76.5t118 72.5t147 54t166 21q114 0 196.5 -29.5t136 -79.5t79 -115.5t25.5 -137.5
q0 -104 -52.5 -206t-141 -199t-205 -186t-245.5 -165l559 57l76 144l141 -29l-56 -356h-986z" />
    <glyph glyph-name="three" unicode="3" horiz-adv-x="1170" 
d="M117 1133q24 24 69.5 54t105.5 55.5t131.5 43t147.5 17.5q92 0 171.5 -20.5t138 -62.5t91.5 -107t33 -153q0 -79 -25 -147t-71 -124.5t-111.5 -101t-146.5 -75.5q104 6 183.5 -18.5t133 -69.5t81.5 -106.5t28 -130.5q0 -110 -46 -204t-136.5 -163t-223.5 -108t-306 -39
q-30 0 -64 2.5t-66.5 7t-62 11t-50.5 13.5v167q19 -7 44 -12t52 -8t55 -4.5t54 -1.5q96 0 173 24t130.5 67t82.5 102.5t29 130.5q0 46 -14 91.5t-46 81.5t-84 60t-128 28l-131 -24l-53 146q42 5 85 19.5t80 28.5q121 50 180 129.5t60 176.5q0 52 -16.5 88.5t-44 60t-63.5 34
t-74 10.5q-97 0 -169.5 -27t-132.5 -72z" />
    <glyph glyph-name="four" unicode="4" horiz-adv-x="1339" 
d="M54 134q37 69 86 168t104 214t112 238.5t111.5 242.5t102.5 226.5t85 189.5h48l255 -132l-516 -941l-109 -169l439 28l10 336l265 21v-340l260 17v-233h-260v-376h-277v376h-633z" />
    <glyph glyph-name="five" unicode="5" horiz-adv-x="1242" 
d="M167 524l101 757h626l21 39h147l-48 -297h-555l-71 -373q73 28 147 42.5t140 14.5q105 0 187.5 -28.5t139.5 -85t87 -141t30 -195.5q0 -86 -28 -165t-79.5 -147.5t-123.5 -124.5t-160.5 -95.5t-191 -61t-214.5 -21.5q-34 0 -71 3t-72 11l1 151q29 -2 58.5 -3t57.5 -1
q102 0 190 32.5t153 89.5t102 135.5t37 171.5q0 77 -18.5 132t-53.5 90.5t-85 52.5t-113 17q-33 0 -69.5 -4.5t-72 -11.5t-68.5 -16.5t-59 -19.5z" />
    <glyph glyph-name="six" unicode="6" horiz-adv-x="1339" 
d="M118 617q0 134 35.5 256.5t97.5 229t145.5 195.5t180 155.5t201 109t208.5 55.5l61 -118q-114 -35 -207 -94.5t-164.5 -137t-121.5 -170t-80 -191.5q23 20 54.5 39.5t72 34.5t90.5 24.5t110 9.5q101 0 181 -31.5t135 -91.5t84 -146t29 -194q0 -112 -35 -216t-104 -183.5
t-171.5 -127t-236.5 -47.5q-139 0 -244.5 50t-177 136.5t-107.5 203t-36 249.5zM432 635q-2 -113 10.5 -208.5t43 -165t80.5 -109t124 -39.5q58 0 102 32.5t74 84t45 114.5t15 125q0 99 -16.5 170t-45.5 116.5t-69 67t-88 21.5q-52 0 -94.5 -10.5t-76 -26.5t-58 -36
t-40.5 -38q-6 -50 -6 -98z" />
    <glyph glyph-name="seven" unicode="7" horiz-adv-x="1210" 
d="M85 840l51 441h965l63 -72l-545 -1575l-321 87q82 165 164.5 341.5t159.5 350.5t147 337.5t128 301.5l-561 -8l-77 -235z" />
    <glyph glyph-name="eight" unicode="8" horiz-adv-x="1357" 
d="M127 385q0 57 17.5 112t53.5 104.5t92 93t133 78.5q-48 34 -89.5 74t-72 89.5t-48.5 109t-18 133.5q0 97 42.5 170t111.5 122t157 73.5t179 24.5q119 0 206.5 -25t145 -70t85.5 -107t28 -136q0 -107 -55 -206t-178 -174q64 -37 123 -79t104 -93.5t71.5 -114.5t26.5 -141
q0 -102 -44 -183.5t-122 -138.5t-183.5 -87t-228.5 -30q-99 0 -195.5 22t-172.5 70t-122.5 124.5t-46.5 184.5zM399 435q0 -71 16 -130.5t50.5 -103t88.5 -68t129 -24.5q46 0 90 15t78.5 44.5t56 72.5t21.5 99q0 66 -34.5 115.5t-91 90.5t-127 78.5t-142.5 78.5
q-60 -47 -97.5 -114.5t-37.5 -153.5zM464 1248q0 -56 27.5 -101.5t73 -84.5t105.5 -74t125 -70q59 51 88.5 118t29.5 135q0 134 -61.5 206.5t-173.5 72.5q-44 0 -83 -13t-68 -38.5t-46 -63.5t-17 -87z" />
    <glyph glyph-name="nine" unicode="9" horiz-adv-x="1339" 
d="M117 750q0 110 35.5 210t105.5 175.5t172.5 120.5t237.5 45q142 0 247.5 -47t175.5 -131t105 -201t35 -256q0 -135 -33.5 -258.5t-92 -230t-139 -195.5t-174 -155.5t-196 -108.5t-206.5 -56l-61 119q111 34 199.5 92.5t156 134.5t114 166.5t74.5 188.5q-22 -19 -50 -36.5
t-64 -31.5t-80 -22.5t-96 -8.5q-101 0 -186.5 34.5t-147.5 98t-97 153t-35 200.5zM420 818q0 -101 16.5 -173.5t46.5 -119t70.5 -68.5t88.5 -22t89 9t75 23t59 31t42 34q5 32 6.5 64.5t2.5 64.5q2 112 -9.5 205t-41 160t-80 103.5t-125.5 36.5q-58 0 -102.5 -31.5t-75 -82
t-46.5 -112.5t-16 -122z" />
    <glyph glyph-name="colon" unicode=":" horiz-adv-x="717" 
d="M167 143q0 40 16 75t44 61t65 40.5t79 14.5q49 0 83 -13t55.5 -35t31 -51t9.5 -62q0 -43 -15.5 -78t-43 -60t-66 -38.5t-83.5 -13.5q-35 0 -67 11t-56 32t-38 50.5t-14 66.5zM167 978q0 40 16 75t44 61t65 40.5t79 14.5q49 0 83 -13t55.5 -35t31 -51t9.5 -62
q0 -43 -15.5 -78t-43 -60t-66 -38.5t-83.5 -13.5q-35 0 -67 11t-56 32t-38 50.5t-14 66.5z" />
    <glyph glyph-name="semicolon" unicode=";" horiz-adv-x="717" 
d="M168 978q0 40 16 75t44 61t65 40.5t79 14.5q49 0 83 -13t55.5 -35t31 -51t9.5 -62q0 -43 -15.5 -78t-43 -60t-66 -38.5t-83.5 -13.5q-35 0 -67 11t-56 32t-38 50.5t-14 66.5zM174 -397q24 14 50.5 42.5t49 67t37.5 85.5t15 98q0 37 -11 58.5t-28 37t-36.5 28t-36.5 30.5
t-28 46t-11 74q0 39 15.5 71.5t40 55t54.5 35t60 12.5h16q51 0 89.5 -21.5t65 -59t39.5 -87t13 -104.5q0 -57 -11.5 -115.5t-32 -115.5t-49 -109.5t-61 -96.5t-69 -76.5t-73.5 -49.5h-3l-95 62v32z" />
    <glyph glyph-name="less" unicode="&#x3c;" horiz-adv-x="1370" 
d="M168 549v134l968 495v-240l-668 -323l668 -325v-235z" />
    <glyph glyph-name="equal" unicode="=" horiz-adv-x="1337" 
d="M210 244v204h917v-204h-917zM210 784v204h917v-204h-917z" />
    <glyph glyph-name="greater" unicode="&#x3e;" horiz-adv-x="1370" 
d="M234 55l968 494v134l-968 495v-240l668 -323l-668 -325v-235z" />
    <glyph glyph-name="question" unicode="?" horiz-adv-x="1030" 
d="M94 1813q9 6 38 13t69 13t88 10t95 4q158 0 270 -45.5t182.5 -117.5t103 -161.5t32.5 -177.5q0 -85 -27 -147t-69 -109.5t-94 -83t-102 -66t-93 -60.5t-67 -65q-3 -8 -5.5 -22.5t-2.5 -28.5q0 -61 7.5 -117.5t18.5 -107.5l-193 -42q-17 17 -35.5 53t-35 78.5t-28 85.5
t-13.5 74q0 59 27.5 102t71 76t97 59.5t105 52.5t95.5 54.5t68 66.5q0 7 0.5 14t0.5 15q0 74 -26 149t-77.5 136t-128 99t-178.5 38q-48 0 -90 -5.5t-61 -9.5zM367 112.5q-14 46.5 10 95.5q14 26 34.5 44.5t45.5 28.5t54 9.5t59 -11.5q34 -15 52.5 -35.5t23.5 -43t0 -46.5
t-17 -45q-11 -29 -31.5 -48.5t-46.5 -28.5t-57 -8t-64 14q-49 28 -63 74.5z" />
    <glyph glyph-name="at" unicode="@" horiz-adv-x="2207" 
d="M160 331q0 180 42.5 340t118 294t179 240.5t226 180t259 113t277.5 39.5q157 0 289.5 -47t228.5 -141.5t149.5 -237t53.5 -334.5q0 -140 -31 -256t-80.5 -208t-112.5 -161t-127 -115t-124 -68.5t-103 -22.5q-54 0 -90.5 47t-44.5 134q-4 41 3 110t26 178
q-34 -91 -79.5 -178.5t-98.5 -156.5t-112 -111.5t-120 -42.5q-53 0 -106.5 29t-96.5 84t-70.5 134.5t-27.5 179.5q0 72 17.5 151.5t50.5 157t81.5 147.5t109.5 123.5t135 85t158 31.5q54 0 116.5 -12.5t118.5 -41.5q6 19 17 35.5t31 12.5q35 -9 70 -25.5t78 -28.5
q-13 -58 -29.5 -136.5t-32 -164.5t-29 -173t-21.5 -160q-3 -45 -2.5 -83.5t3.5 -67t8 -45t11 -16.5q53 0 111 42.5t106 119t79.5 183t31.5 234.5q0 117 -25 210t-69 164t-104.5 122t-131 83.5t-148 47.5t-156.5 15q-104 0 -205 -31t-192 -90t-168 -145t-133 -195
t-87.5 -240.5t-31.5 -282.5q0 -191 52.5 -329.5t140.5 -229t203.5 -134t242.5 -43.5q50 0 108 6.5t113.5 18.5t102.5 28.5t76 35.5l48 -120q-38 -32 -91 -59t-116.5 -46.5t-134.5 -31t-145 -11.5q-185 0 -332.5 58.5t-250.5 169.5t-158 271.5t-55 365.5zM829 418
q0 -33 4.5 -76t18 -81t37 -64t61.5 -26q33 0 72.5 37.5t79 98t75 136t61.5 150.5q35 103 46 185q-14 15 -40.5 27.5t-57 22t-61 15t-51.5 5.5q-60 0 -106 -35.5t-77 -95t-46.5 -137t-15.5 -162.5z" />
    <glyph glyph-name="A" unicode="A" horiz-adv-x="1441" 
d="M-51 137l129 28l482 1363h321l481 -1363l139 -28v-137h-649v137l163 28l-75 244h-543l-71 -245l165 -27v-137h-541zM442 565h450l-197 645l-35 146l-32 -146z" />
    <glyph glyph-name="B" unicode="B" horiz-adv-x="1441" 
d="M85 0v137l164 27v1193l-162 31v134h317q50 0 91 2t78 4.5t73.5 4.5t77.5 2q143 0 247.5 -20.5t173 -62.5t101.5 -107t33 -154q0 -84 -24.5 -150t-67.5 -114t-102.5 -78t-129.5 -41q90 -1 168.5 -25.5t137 -70t92.5 -110t34 -145.5q0 -91 -29 -175.5t-100.5 -150
t-192 -104.5t-303.5 -39q-41 0 -78 2t-79 4t-91.5 4t-113.5 2h-315zM564 144q9 -5 27 -8.5t39.5 -5.5t45.5 -3t45 -1q90 0 153.5 20.5t103.5 59t58.5 94.5t18.5 127q0 80 -17.5 136t-55 91t-96 51t-140.5 16h-44.5t-53.5 -0.5t-50 -1.5t-34 -2v-573zM564 864q14 -2 37 -3.5
t47.5 -2t48.5 -0.5h41q63 0 106.5 18t70.5 54t38.5 89.5t11.5 124.5q0 65 -13.5 113.5t-44.5 80t-82 47t-125 15.5q-43 0 -81.5 -4t-54.5 -6v-526z" />
    <glyph glyph-name="C" unicode="C" horiz-adv-x="1360" 
d="M57 754q0 177 60 321.5t166 247.5t250 159t311 56q72 0 137 -8.5t121.5 -19t103 -21.5t81.5 -15l-23 -398h-205l-60 263q-11 12 -26 23.5t-37.5 19.5t-54.5 13t-76 5q-86 0 -158 -37.5t-123.5 -113t-80 -189.5t-28.5 -267q0 -132 23 -254t70.5 -215.5t120.5 -149.5
t173 -56q50 0 86 5.5t62 14.5t43 21t29 26l91 221l176 -10l-24 -340q-43 -3 -87 -15.5t-99 -26.5t-127.5 -25.5t-172.5 -11.5q-177 0 -311.5 56.5t-226 159t-138 245.5t-46.5 316z" />
    <glyph glyph-name="D" unicode="D" horiz-adv-x="1593" 
d="M85 0v137l164 27v1194l-157 30v134h312q56 0 101 2t89.5 4.5t93 4.5t110.5 2q192 0 330 -48.5t227 -140.5t131 -225.5t42 -304.5q0 -188 -55.5 -343t-156 -265t-242.5 -169q-133 -55 -290 -55h-22q-38 1 -83 3.5t-92.5 5.5t-93.5 5t-86 2h-322zM570 145q40 -14 87 -17
q28 -2 59 -2q21 0 43 1q96 1 175 41t136 119t88.5 198t31.5 278q0 152 -27.5 270.5t-84.5 199.5t-145.5 123.5t-210.5 42.5q-57 0 -95 -4.5t-57 -7.5v-1242z" />
    <glyph glyph-name="E" unicode="E" horiz-adv-x="1379" 
d="M85 0v137l164 27v1193l-162 31v134h1101l23 -347h-171l-73 194l-398 20v-542l260 4l30 168h173v-491h-173l-30 168l-260 5v-548l479 23l123 264l171 -39l-58 -401h-1199z" />
    <glyph glyph-name="F" unicode="F" horiz-adv-x="1289" 
d="M83 1388v134h1137l20 -377h-198l-77 224l-396 16v-551l264 3l41 162h167v-501h-167l-41 173l-264 5v-512l299 -27v-137h-779v137l160 27v1193z" />
    <glyph glyph-name="G" unicode="G" horiz-adv-x="1551" 
d="M77 739q0 188 61.5 336.5t170 252t256.5 158.5t321 55q82 0 162 -7.5t148.5 -18t121.5 -21.5t80 -17l-23 -386h-216l-60 251q-11 10 -26.5 20.5t-41.5 19.5t-65 15t-96 6q-97 0 -177 -37t-137 -113t-88.5 -191t-31.5 -271q0 -88 10.5 -172t32.5 -158.5t56 -137.5
t79.5 -108.5t103.5 -71t129 -25.5q85 0 150.5 19t97.5 52v414l-196 23v164h620v-164l-105 -19v-525q-41 -2 -100 -18.5t-134.5 -36t-166 -35t-195.5 -15.5q-177 0 -315 56.5t-232.5 158t-144 241t-49.5 306.5z" />
    <glyph glyph-name="H" unicode="H" horiz-adv-x="1728" 
d="M86 0v137l163 27v1193l-160 31v134h648v-134l-171 -31v-501h596v501l-162 31v134h639v-134l-160 -31v-1193l160 -27v-137h-637v137l160 27v534h-596v-534l171 -27v-137h-651z" />
    <glyph glyph-name="I" unicode="I" horiz-adv-x="845" 
d="M88 0v137l176 28v1192l-176 31v134h668v-134l-175 -31v-1192l175 -30v-135h-668z" />
    <glyph glyph-name="J" unicode="J" horiz-adv-x="798" 
d="M-31 -275q39 15 76.5 38.5t70.5 57.5t60.5 79t45.5 102q10 33 17 69.5t11.5 85.5t6.5 112.5t2 150.5v937l-176 31v134h668v-134l-174 -31v-788q0 -180 -5 -314.5t-24 -212.5q-21 -84 -65 -154t-109 -124.5t-149 -93.5t-184 -61z" />
    <glyph glyph-name="K" unicode="K" horiz-adv-x="1537" 
d="M85 0v137l164 27v1193l-162 31v134h630v-134l-151 -31v-639l512 639l-160 31l-1 134h560v-134l-173 -31l-386 -432q36 -31 75.5 -79t80 -105.5t81 -121t78.5 -126t73 -119.5t64.5 -102.5t52.5 -75t37 -36.5l82 -25v-135h-371q-16 0 -37.5 23t-46.5 62t-53 91t-58.5 110
t-62 118t-63 116.5t-63 105t-61.5 82.5l-160 -186v-358l190 -29v-135h-671z" />
    <glyph glyph-name="L" unicode="L" horiz-adv-x="1348" 
d="M85 0v137l164 27v1193l-162 31v134h680v-134l-201 -31v-1189l419 21l126 374l195 -26l-64 -537h-1157z" />
    <glyph glyph-name="M" unicode="M" horiz-adv-x="2100" 
d="M1 0v137l175 27l154 1193l-202 31v134h631l267 -961l35 -185l29 185l247 961h635v-134l-216 -31l174 -1192l172 -28v-137h-661v137l166 27l-93 876l-42 374l-63 -298l-295 -1132h-209l-330 1072l-94 354l-18 -369l-82 -877l199 -27v-137h-579z" />
    <glyph glyph-name="N" unicode="N" horiz-adv-x="1649" 
d="M55 0v137l185 27v1193l-185 31v134h477l631 -889l106 -212v936l-195 31v134h557v-134l-177 -31v-1357h-228l-668 956l-133 254v-1045l205 -28v-137h-575z" />
    <glyph glyph-name="O" unicode="O" horiz-adv-x="1498" 
d="M56 744q0 181 51 328t144.5 251.5t224.5 161t291 56.5q176 0 303.5 -53.5t210 -153.5t122 -241.5t39.5 -317.5q0 -181 -51 -328t-143.5 -251t-222 -161t-287.5 -58h-12q-166 0 -290 52q-128 54 -212.5 154t-126 242.5t-41.5 318.5zM401 745q0 -167 24 -286.5t69 -196
t109 -112t145 -35.5q79 0 143.5 41t110 123t70 205.5t24.5 289.5q0 165 -24 284.5t-68.5 196t-108.5 113t-145 36.5q-80 0 -144.5 -40.5t-110 -122.5t-70 -206t-24.5 -290z" />
    <glyph glyph-name="P" unicode="P" horiz-adv-x="1366" 
d="M85 0v137l164 26v1194l-157 31v134h317q47 0 86 2t79 4.5t87 4t110 1.5q154 -1 260 -29t171 -83.5t93.5 -139t28.5 -195.5q0 -131 -43 -231t-123 -167.5t-194 -102t-256 -34.5q-24 0 -47.5 1t-43 2.5t-33.5 3t-20 2.5l-1 -397l280 -27v-137h-758zM563 700q25 -6 57 -7.5
t86 -1.5q55 0 107 19.5t91.5 65t63.5 121t24 187.5q0 319 -283 319q-27 0 -48 -1.5t-38.5 -3.5t-31.5 -4t-28 -3v-691z" />
    <glyph glyph-name="Q" unicode="Q" horiz-adv-x="1515" 
d="M64 744q0 181 51 328t144.5 251.5t224.5 161t291 56.5q176 0 303.5 -53.5t210 -153.5t122 -241.5t39.5 -317.5q0 -151 -35.5 -278.5t-101.5 -226.5t-159.5 -166.5t-209.5 -99.5q26 -53 72 -85.5t103 -50t119.5 -23t122.5 -5.5h13q10 0 28.5 1.5t38 4.5t36.5 7t24 9v-253
q-6 -7 -25 -14.5t-45.5 -13.5t-57.5 -10.5t-62 -4.5h-4q-116 0 -209 31t-159 86t-103.5 130.5t-42.5 165.5q-12 -1 -23.5 -1.5t-23.5 -0.5h-12q-167 0 -290 52q-129 54 -213 154t-125.5 242.5t-41.5 318.5zM409 745q0 -167 24 -286.5t69 -196t109 -112t145 -35.5
q79 0 143.5 41t110 123t70 205.5t24.5 289.5q0 165 -24 284.5t-68.5 196t-108.5 113t-145 36.5q-80 0 -144.5 -40.5t-110 -122.5t-70 -206t-24.5 -290z" />
    <glyph glyph-name="R" unicode="R" horiz-adv-x="1463" 
d="M85 0v137l164 26v1194l-157 31v134h311q47 0 86.5 2t78.5 4.5t82 4.5t98 2q155 0 261 -25.5t171.5 -76t94 -125t28.5 -172.5q0 -64 -17.5 -130.5t-54 -124t-92 -101.5t-131.5 -64q52 -22 94.5 -69.5t78 -106.5t65 -123t56.5 -118t52 -91.5t51 -43.5l84 -27v-137h-368
q-25 0 -51 42.5t-54.5 108.5t-59 145t-63 152.5t-67.5 131.5t-72 81h-56.5t-56.5 0.5t-48.5 1t-31.5 1.5v-501l177 -26v-137h-653zM561 801q10 -3 32.5 -4t47.5 -1h49h38q58 0 104 19.5t78 60t49.5 102t17.5 145.5q0 66 -15.5 117.5t-49.5 87t-88 54t-130 18.5
q-31 0 -52.5 -1t-36.5 -2.5t-25.5 -3.5t-18.5 -3v-589z" />
    <glyph glyph-name="S" unicode="S" horiz-adv-x="1238" 
d="M116 68l17 379h180l44 -248q13 -15 35 -29t52 -25t67.5 -18t81.5 -7q70 0 119 16.5t79.5 46t44 69t13.5 85.5q0 53 -23 95.5t-66 80t-105 72t-140 72.5q-40 19 -84 43t-86.5 54.5t-81.5 68.5t-68.5 85.5t-47 105t-17.5 126.5q0 82 33.5 154.5t99.5 127.5t164 87t227 32
q69 0 135 -10t123 -23t100.5 -24.5t66.5 -15.5l-13 -345h-176l-41 227q-8 9 -26.5 18.5t-43 17.5t-53.5 13t-59 5q-62 0 -106 -13.5t-71.5 -38.5t-40.5 -59t-13 -75q0 -58 26 -102.5t72.5 -82t110.5 -72t140 -72.5q66 -33 135 -74.5t126 -95.5t93 -123t36 -158
q0 -80 -31 -161.5t-99 -148.5t-176 -109t-262 -42q-93 0 -171.5 13.5t-141.5 30t-108 31t-70 16.5z" />
    <glyph glyph-name="T" unicode="T" horiz-adv-x="1465" 
d="M36 933l30 589h1336l31 -589h-187l-74 425l-273 18v-1212l292 -27v-137h-888v137l275 28v1211l-280 -18l-76 -425h-186z" />
    <glyph glyph-name="U" unicode="U" horiz-adv-x="1525" 
d="M27 1388v134h641v-134l-171 -31v-766q0 -117 22 -205t62.5 -146t99 -87t130.5 -29q91 0 157 36.5t108 99.5t62 148.5t20 183.5v765l-169 31v134h510v-134l-137 -30v-758q0 -162 -43.5 -278.5t-120 -191.5t-181.5 -110.5t-227 -35.5q-314 0 -468.5 156t-154.5 486v730z
" />
    <glyph glyph-name="V" unicode="V" horiz-adv-x="1398" 
d="M-39 1388v134h641v-134l-173 -31l292 -905l52 -189l46 189l284 905l-156 31v134h507v-134l-134 -31l-474 -1372h-255l-503 1373z" />
    <glyph glyph-name="W" unicode="W" horiz-adv-x="2080" 
d="M-48 1388v134h624v-134l-169 -32l253 -913l39 -204l39 204l218 734l-59 180l-134 31v134h638v-134l-176 -32l251 -913l46 -222l39 222l239 913l-191 32v134h517v-134l-133 -32l-400 -1366h-285l-271 919l-263 -919h-278l-422 1366z" />
    <glyph glyph-name="X" unicode="X" horiz-adv-x="1513" 
d="M1 0v137l167 28l406 599l-420 594l-133 30v134h663v-134l-142 -31l292 -453l283 454l-167 30v134h549v-134l-177 -32l-399 -551l457 -641l138 -27v-137h-682v137l157 27l-324 497l-286 -498l180 -26v-137h-562z" />
    <glyph glyph-name="Y" unicode="Y" horiz-adv-x="1359" 
d="M-37 1388v134h621v-134l-140 -31l263 -516l43 -130l54 125l248 521l-165 31v134h506v-134l-143 -31l-383 -758v-435l238 -27v-137h-802v137l227 27v433l-445 760z" />
    <glyph glyph-name="Z" unicode="Z" horiz-adv-x="1384" 
d="M50 119l763 1143l115 133l-503 -26l-115 -276l-173 25l49 410h1049l54 -120l-745 -1144l-126 -126l595 42l121 306l170 -34l-54 -452h-1131z" />
    <glyph glyph-name="bracketleft" unicode="[" horiz-adv-x="872" 
d="M173 -50v1466q0 74 16 119.5t47.5 70t78 33t107.5 8.5q83 0 153 -14t135 -30v-120h-281v-1598h281v-122q-65 -18 -135 -31t-153 -13q-61 0 -107.5 8.5t-78 33t-47.5 70t-16 119.5z" />
    <glyph glyph-name="backslash" unicode="\" horiz-adv-x="882" 
d="M28 1599l573 -1962h240l-573 1962h-240z" />
    <glyph glyph-name="bracketright" unicode="]" horiz-adv-x="872" 
d="M162 -115v-122q65 -18 135 -31t153 -13q61 0 107.5 8.5t78 33t47.5 70t16 119.5v1466q0 74 -16 119.5t-47.5 70t-78 33t-107.5 8.5q-83 0 -153 -14t-135 -30v-120h281v-1598h-281z" />
    <glyph glyph-name="asciicircum" unicode="^" horiz-adv-x="1363" 
d="M185 413l392 1118h204l397 -1118h-214l-284 793l-283 -793h-212z" />
    <glyph glyph-name="underscore" unicode="_" horiz-adv-x="1711" 
d="M-20 -251h1751v-154h-1751v154z" />
    <glyph glyph-name="grave" unicode="`" horiz-adv-x="681" 
d="M-6 1663l189 173h1l351 -429l-113 -98h-1q-27 10 -64.5 32t-79.5 51.5t-85.5 65t-82 71.5t-69 70.5t-46.5 63.5z" />
    <glyph glyph-name="a" unicode="a" horiz-adv-x="1167" 
d="M62 304q0 73 26.5 130t73 100t109.5 73t136 49.5t152 28.5t158 11v48q0 57 -11.5 97.5t-35.5 66t-61.5 37t-90.5 11.5q-54 0 -108.5 -8.5t-104.5 -21t-92.5 -28t-72.5 -29.5h-1l-59 134q21 17 71 44.5t120 53.5t155 45t175 19q111 0 188.5 -24t126 -74t71 -126.5
t22.5 -180.5v-624h124v-123q-19 -5 -47 -11t-62 -11.5t-73 -9.5t-80 -4q-36 0 -61.5 3t-41 14t-22.5 31.5t-7 55.5v58q-17 -23 -47 -51t-72.5 -53t-96.5 -41.5t-119 -16.5q-71 0 -133 19t-108.5 59t-73.5 101.5t-27 147.5zM379 352q0 -89 40.5 -135.5t118.5 -46.5
q16 0 39.5 5t48.5 14t49 21.5t42 28.5v331q-98 0 -163 -18t-104 -48t-55 -69.5t-16 -82.5z" />
    <glyph glyph-name="b" unicode="b" horiz-adv-x="1278" 
d="M1 1514v117l390 49h4l63 -41v-595q24 24 56 46t70.5 39.5t84 28t96.5 10.5q90 0 170 -30t140.5 -97t96 -174t35.5 -261q0 -133 -40.5 -248t-117 -199.5t-186.5 -133t-249 -48.5q-98 0 -178 9t-139.5 22t-97 26.5t-48.5 21.5v1433zM458 161q13 -23 54 -36.5t93 -13.5
q68 0 118 36t83 98.5t49.5 146t17.5 178.5v13q0 91 -13 163q-14 78 -43 131t-73.5 81t-105.5 28q-62 0 -108.5 -23t-71.5 -51v-751z" />
    <glyph glyph-name="c" unicode="c" horiz-adv-x="1067" 
d="M72 559q0 135 40.5 247t115.5 192.5t181.5 125t238.5 44.5q67 0 123 -7.5t100 -17.5t76 -20.5t52 -16.5l-10 -341h-176l-58 176q-22 42 -54 66t-78 24q-45 0 -85.5 -22.5t-72 -71t-50.5 -125.5t-19 -186q0 -125 19.5 -210.5t57 -138.5t91 -76.5t121.5 -23.5q46 0 86.5 7
t74.5 18t62 25t51 29l53 -121q-21 -23 -60.5 -50.5t-92 -51.5t-116 -40t-132.5 -16q-141 0 -243 44t-167.5 122t-97 184.5t-31.5 231.5z" />
    <glyph glyph-name="d" unicode="d" horiz-adv-x="1302" 
d="M71 543q0 137 40.5 251.5t117 197.5t186.5 129.5t249 46.5q42 0 81.5 -4t75.5 -12v340l-183 31v114l423 43h5l62 -47v-1494h111v-126q-50 -11 -114 -23.5t-140 -12.5q-62 0 -95.5 27t-33.5 98v39q-25 -32 -59.5 -61.5t-78 -52t-95 -36t-110.5 -13.5q-93 0 -173.5 33.5
t-140.5 103.5t-94 176t-34 252zM405 579v-24q0 -95 14 -167q16 -80 46.5 -131t75 -74.5t99.5 -23.5q61 0 108.5 23t72.5 52v754q-17 18 -56 32t-93 14t-102 -23t-84 -76.5t-57.5 -140.5t-23.5 -215z" />
    <glyph glyph-name="e" unicode="e" horiz-adv-x="1126" 
d="M70 569q0 139 39.5 250t111.5 188.5t173 118.5t224 41q415 0 433 -405q1 -31 1 -59q0 -35 -2 -65q-2 -56 -10 -94h-652q5 -99 29 -169t63 -114t92.5 -64t117.5 -20q50 0 94 8t81.5 20t67.5 27t53 29l52 -121q-25 -26 -69.5 -54.5t-102 -52.5t-124 -40t-135.5 -16
q-141 0 -242.5 44t-167 122.5t-96.5 187.5t-31 238zM387 679h358q0 5 0.5 14t1 19t0.5 18.5v13.5q0 51 -7 103t-25.5 93t-51 67t-83.5 26q-38 0 -71.5 -14.5t-59 -53.5t-42 -108t-20.5 -178z" />
    <glyph glyph-name="f" unicode="f" horiz-adv-x="845" 
d="M56 965v120l176 50v58q0 79 22.5 147.5t61.5 126t91 102.5t111.5 75.5t122.5 47t125 16.5q51 0 77 -6t40 -11v-299q-14 13 -37 27t-52.5 24.5t-63.5 17.5t-69 7q-27 0 -49 -6t-37.5 -21.5t-24 -42t-8.5 -67.5l1 -196h257v-170h-257v-812l222 -21v-132h-693v132l160 27
v806h-176z" />
    <glyph glyph-name="g" unicode="g" horiz-adv-x="1287" 
d="M81 -220q0 46 17 86.5t45 74t65 58.5t78 39q-58 30 -89 76t-31 108q0 38 10.5 69.5t29.5 58.5t45 50t57 43q-102 46 -150.5 130t-48.5 200q0 90 40.5 163t110 124.5t163 79.5t199.5 28h1q250 0 371 -96q14 16 38 34t55 32t69 23.5t80 9.5h47v-224h-197q11 -32 17.5 -67
t6.5 -76q0 -90 -37.5 -165.5t-106 -130.5t-163.5 -86t-209 -31h-1q-83 0 -152 12q-17 -17 -28 -39.5t-11 -52.5q0 -35 13 -56t41 -32.5t71.5 -15.5t104.5 -4h200q108 0 188 -17.5t133.5 -55.5t79.5 -97t26 -142q0 -101 -52.5 -183t-141.5 -139.5t-206 -89t-245 -31.5h-1
q-141 0 -242 25t-165.5 69t-94.5 105t-30 133zM367 -159q0 -67 18 -113.5t53 -76t86.5 -42.5t119.5 -13h2q61 0 119 14t103.5 42.5t73 71.5t27.5 100q0 44 -9.5 75t-34 50.5t-67 28.5t-108.5 9h-208q-65 0 -120 9q-20 -22 -37.5 -57.5t-17.5 -97.5zM427 793q0 -60 9 -109.5
t31 -85t58.5 -55t91.5 -19.5h1q51 0 84.5 20.5t52.5 55.5t26.5 83t7.5 102q0 132 -42.5 191.5t-139.5 59.5h-1q-95 0 -137 -60t-42 -183z" />
    <glyph glyph-name="h" unicode="h" horiz-adv-x="1392" 
d="M44 1514v117l389 49h5l61 -47l2 -471l-16 -159q27 25 67.5 53t91.5 51.5t111.5 39t127.5 15.5q97 0 161.5 -27t102 -83t53 -141.5t15.5 -202.5v-554l141 -20v-134h-560v130l111 22v559q0 69 -7 119.5t-26.5 82.5t-54 47.5t-88.5 15.5q-31 0 -64 -7t-64 -17.5t-57.5 -24.5
t-44.5 -27v-746l137 -20v-134h-567v134l123 20v1335z" />
    <glyph glyph-name="i" unicode="i" horiz-adv-x="735" 
d="M82 0v134l146 19v770l-135 43v150l367 49h5l73 -43v-968l145 -20v-134h-601zM202 1495q0 39 10.5 73.5t32.5 60.5t54 41t76 15h1q40 0 70 -13.5t50 -36t29.5 -51.5t9.5 -61q0 -40 -11 -74.5t-33.5 -60t-58 -40t-83.5 -14.5h-1q-35 0 -62.5 13t-46 34.5t-28 51t-9.5 62.5z
" />
    <glyph glyph-name="j" unicode="j" horiz-adv-x="700" 
d="M-5 -352q7 -1 19 0.5t25.5 4.5t28.5 7.5t28 10.5q43 18 70 53.5t42 87.5t20 119t5 148l-1 840l-136 42l1 155l365 49h5l71 -43v-1100q0 -128 -34 -224t-90 -160.5t-129.5 -98.5t-152.5 -37q-11 0 -29 0.5t-36.5 1.5t-34.5 2.5t-22 3.5zM202 1495q0 39 10.5 73.5
t32.5 60.5t54 41t76 15h1q40 0 70 -13.5t50 -36t29.5 -51.5t9.5 -61q0 -40 -11 -74.5t-33.5 -60t-58 -40t-83.5 -14.5h-1q-35 0 -62.5 13t-46 34.5t-28 51t-9.5 62.5z" />
    <glyph glyph-name="k" unicode="k" horiz-adv-x="1358" 
d="M48 1514v117l387 49h3l63 -47v-895l-5 -155l389 400l-156 27v136h564v-136l-186 -36l-248 -227l386 -593l123 -20v-134h-566v134l101 22l-245 418l-162 -156l5 -119v-145l137 -20v-134h-575v134l130 19v1336z" />
    <glyph glyph-name="l" unicode="l" horiz-adv-x="708" 
d="M53 1514v117l391 49h3l63 -47v-1479l151 -20v-134h-604v134l145 20v1335z" />
    <glyph glyph-name="m" unicode="m" horiz-adv-x="2107" 
d="M88 965v151l354 49h5l53 -43v-119q33 31 81.5 60t104 51t113.5 35t110 13q115 0 183 -37t103 -118q28 25 73.5 52.5t100.5 50t115.5 37.5t117.5 15q94 0 157 -24t101 -78t54 -140.5t16 -210.5v-556l141 -23v-130h-554v130l105 23v547q0 77 -8.5 130.5t-28.5 86.5t-54 48
t-85 15q-25 0 -55 -7t-60 -17.5t-58 -23.5t-49 -26q8 -42 11 -91.5t3 -107.5v-555l133 -22v-130h-560v130l120 22v559q0 69 -8 119.5t-27.5 82.5t-53 47.5t-84.5 15.5q-30 0 -62.5 -7t-63.5 -17.5t-57 -24.5t-44 -27v-747l135 -23v-130h-567v130l125 23v770z" />
    <glyph glyph-name="n" unicode="n" horiz-adv-x="1417" 
d="M88 965v151l358 49h5l53 -43v-119q33 30 78 59t97.5 51t110.5 35.5t117 13.5q96 0 160.5 -25.5t102.5 -80t54 -141t16 -208.5v-554l142 -19v-134h-563v134l109 19v558q0 69 -7 119.5t-25.5 82.5t-51 47.5t-83.5 15.5q-34 0 -67 -7.5t-62.5 -19.5t-54 -26.5t-42.5 -28.5
v-740l134 -20v-134h-574v134l129 20v769z" />
    <glyph glyph-name="o" unicode="o" horiz-adv-x="1232" 
d="M65 566q0 152 47 265t125 188t180.5 112t213.5 37q130 0 230 -40.5t168 -116.5t103 -185t35 -247q0 -156 -47 -270t-125 -187.5t-180 -109t-213 -35.5q-130 0 -230 40.5t-168.5 116.5t-103.5 185t-35 247zM399 598q0 -235 50.5 -359t169.5 -124q55 0 95 24.5t66.5 77
t39 134.5t12.5 196q0 117 -11.5 207.5t-37 151.5t-67 92.5t-101.5 31.5q-55 0 -95.5 -24.5t-67.5 -77t-40 -134.5t-13 -196z" />
    <glyph glyph-name="p" unicode="p" horiz-adv-x="1340" 
d="M64 -369l150 25v1267l-136 42v151l358 49h5l51 -43v-106q25 29 59 56.5t76 48.5t92 34t108 13q92 0 172.5 -31t140.5 -98.5t94.5 -174.5t34.5 -258q0 -133 -40.5 -248t-116.5 -199.5t-185 -133t-246 -48.5q-50 0 -96.5 7t-69.5 12l6 -166v-174l198 -25v-127h-655v127z
M521 159q17 -19 55 -33.5t92 -14.5t102.5 23.5t84.5 77.5t58 142t24 216v13q0 105 -15 179q-16 79 -47 129t-75.5 72.5t-99.5 22.5q-60 0 -107 -21.5t-72 -48.5v-757z" />
    <glyph glyph-name="q" unicode="q" horiz-adv-x="1274" 
d="M71 544q0 137 40.5 251.5t117 197.5t186.5 129t249 46q66 0 131 -12t116 -29l163 38h3l51 -43v-1465l138 -26v-127h-655v127l210 25v296l7 157q-26 -27 -59 -50.5t-72.5 -41.5t-85.5 -28.5t-98 -10.5q-92 0 -172.5 33.5t-140.5 102.5t-94.5 176t-34.5 254zM403 580v-24
q0 -96 14 -166q16 -80 47.5 -131.5t76 -75.5t99.5 -24q61 0 108.5 23t72.5 52v753q-15 18 -55 32.5t-94 14.5t-102 -22.5t-84.5 -75.5t-58.5 -140t-24 -216z" />
    <glyph glyph-name="r" unicode="r" horiz-adv-x="979" 
d="M88 0v134l144 19v770l-136 42v151l342 49h6l53 -43v-83l-1 -156h4q8 22 25 51t41 61t55 63t68.5 55.5t80 39.5t90.5 15q31 0 47.5 -2.5t27.5 -6.5v-346q-6 4 -21 9t-37 9t-50 6.5t-60 2.5q-35 0 -70 -4t-65.5 -10.5t-54.5 -15.5t-37 -18v-638l249 -24v-130h-701z" />
    <glyph glyph-name="s" unicode="s" horiz-adv-x="1075" 
d="M109 832q0 70 29.5 131t87.5 105.5t144 70t199 25.5q66 0 117.5 -8t93.5 -18.5t77 -22t68 -17.5v-276l-174 3l-47 133q-14 23 -53 44.5t-99 22.5q-45 0 -75.5 -10t-49 -27t-26.5 -37.5t-8 -41.5q0 -52 27 -85.5t68 -56.5t90 -40.5t93 -37.5q66 -29 126 -61.5t106.5 -75.5
t74 -99.5t27.5 -134.5q0 -73 -28.5 -135.5t-86 -108t-144 -71.5t-202.5 -26q-79 0 -144.5 11t-119 25.5t-95.5 29t-73 21.5v281h184l52 -156q9 -13 27.5 -26t44 -23t57.5 -16.5t67 -6.5q49 0 81 12t51 30.5t26 41.5t7 46q0 42 -21.5 72.5t-61 56t-95.5 49t-124 52.5
q-69 28 -124 62.5t-93.5 77.5t-59.5 96t-21 119z" />
    <glyph glyph-name="t" unicode="t" horiz-adv-x="851" 
d="M56 976v114q8 2 25.5 8.5t36 13.5t33.5 13.5t19 9.5q34 27 71 96q10 19 22 46t23.5 56t21.5 57.5t17 51.5h178l3 -296h294v-170h-294v-554q0 -80 2.5 -127t12 -71t29.5 -31t55 -7h1q24 0 50.5 4t52 9.5t47 12t35.5 11.5h1l47 -117q-30 -23 -73.5 -46t-96 -41.5t-111 -30
t-117.5 -11.5h-2q-66 0 -112.5 17t-75 50.5t-41.5 82.5t-13 113v736h-141z" />
    <glyph glyph-name="u" unicode="u" horiz-adv-x="1340" 
d="M74 1019v117l360 29h1l46 -28v-732q0 -66 8.5 -111.5t28.5 -74.5t53 -42t82 -13q37 0 69.5 7.5t58 19t44.5 24t31 22.5v745l-138 39v118l388 26h2l55 -28v-1001h111v-124q-38 -9 -101 -22t-142 -13q-73 0 -107 32t-34 95v36q-26 -30 -63.5 -59t-82.5 -52.5t-96 -37.5
t-102 -14q-98 0 -168.5 23.5t-115.5 75.5t-66.5 134.5t-21.5 201.5v570z" />
    <glyph glyph-name="v" unicode="v" horiz-adv-x="1207" 
d="M-12 1018v128h585v-128l-149 -28l187 -574l66 -228l56 222l179 580l-146 28v128h454v-128l-102 -28l-373 -1006h-261l-401 1006z" />
    <glyph glyph-name="w" unicode="w" horiz-adv-x="1834" 
d="M-9 1018v128h570v-128l-156 -29l138 -521l52 -232l50 232l196 678h262l199 -678l50 -222l46 221l142 521l-161 30v128h481v-128l-119 -29l-312 -1005h-250l-209 664l-43 179l-38 -179l-203 -664h-252l-332 1006z" />
    <glyph glyph-name="x" unicode="x" horiz-adv-x="1253" 
d="M24 0v119l120 24l313 436l-302 411l-110 28v128h599v-128l-131 -28l143 -202l65 -105l45 99l151 208l-132 28v128h438v-128l-117 -28l-291 -408l325 -440l106 -23v-119h-597v119l122 24l-158 237l-60 97l-45 -103l-151 -231l140 -24v-119h-473z" />
    <glyph glyph-name="y" unicode="y" horiz-adv-x="1228" 
d="M-9 1018v128h579v-128l-151 -29l191 -592l78 -272l68 272l152 592l-130 29v128h442v-128l-92 -28q-29 -91 -61.5 -196.5t-65.5 -213t-65 -209.5t-58 -186t-45.5 -143t-28.5 -80q-42 -116 -91.5 -204t-108 -147.5t-128 -90t-151.5 -30.5q-20 0 -44 1t-47 3t-41.5 4.5
t-26.5 5.5v245q15 -7 59.5 -16.5t104.5 -9.5q30 0 65.5 7t73.5 35t77 83.5t76 151.5h-180l-360 990z" />
    <glyph glyph-name="z" unicode="z" horiz-adv-x="1161" 
d="M52 101l543 765l128 140l-362 -15l-43 -190h-173v345h898l47 -96l-528 -772l-126 -140l420 24l80 216l165 -16l-30 -362h-969z" />
    <glyph glyph-name="braceleft" unicode="{" horiz-adv-x="1037" 
d="M107 595v197q91 0 150.5 7.5t95 23t49.5 40t14 57.5q0 63 -21.5 117.5t-48 108.5t-48 112t-21.5 129q0 63 16 111.5t54 81.5t100.5 50t155.5 17q82 0 153.5 -9t138.5 -25v-119h-163q-35 0 -66 -5.5t-55 -21.5t-38 -45t-14 -77q0 -43 13.5 -95.5t30 -108.5t30 -113.5
t13.5 -109.5q0 -54 -21 -93t-57 -66.5t-84.5 -44.5t-102.5 -26q54 -9 102.5 -27t84.5 -46.5t57 -69t21 -94.5q0 -53 -13.5 -110t-30 -113.5t-30 -108.5t-13.5 -95q0 -48 14 -77t38 -45t55 -21.5t66 -5.5h163v-119q-67 -16 -138.5 -25t-153.5 -9q-93 0 -155.5 17t-100.5 50
t-54 81.5t-16 111.5q0 71 21.5 129t48 112t48 108.5t21.5 117.5q0 34 -14 61t-49.5 46t-95 29t-150.5 10z" />
    <glyph glyph-name="bar" unicode="|" horiz-adv-x="865" 
d="M318 -186v1966h230v-1966h-230z" />
    <glyph glyph-name="braceright" unicode="}" horiz-adv-x="1037" 
d="M142 -125v-119q67 -16 138.5 -25t153.5 -9q93 0 155.5 17t100.5 50t54 81.5t16 111.5q0 71 -21.5 129t-48 112t-48 108.5t-21.5 117.5q0 34 14 61t49.5 46t95 29t150.5 10v197q-91 0 -150.5 7.5t-95 23t-49.5 40t-14 57.5q0 63 21.5 117.5t48 108.5t48 112t21.5 129
q0 63 -16 111.5t-54 81.5t-100.5 50t-155.5 17q-82 0 -153.5 -9t-138.5 -25v-119h163q35 0 66 -5.5t55 -21.5t38 -45t14 -77q0 -43 -13.5 -95.5t-30 -108.5t-30 -113.5t-13.5 -109.5q0 -54 21 -93t57 -66.5t84.5 -44.5t102.5 -26q-54 -9 -102.5 -27t-84.5 -46.5t-57 -69
t-21 -94.5q0 -53 13.5 -110t30 -113.5t30 -108.5t13.5 -95q0 -48 -14 -77t-38 -45t-55 -21.5t-66 -5.5h-163z" />
    <glyph glyph-name="asciitilde" unicode="~" horiz-adv-x="1426" 
d="M202 594q19 33 52 68.5t76.5 65t96.5 48t113 18.5q47 0 85 -12.5t70.5 -31.5t60 -41.5t54 -41.5t53 -31.5t55.5 -12.5q37 0 67.5 8t55 22t45 33t37.5 40l101 -124q-21 -35 -54.5 -71.5t-76.5 -66.5t-95.5 -49t-112.5 -19q-43 0 -79 13t-68 32.5t-60.5 42t-56 42t-56 32.5
t-59.5 13q-63 0 -113.5 -29t-90.5 -69z" />
    <glyph glyph-name="uni00A0" unicode="&#xa0;" horiz-adv-x="643" 
 />
    <glyph glyph-name="cent" unicode="&#xa2;" horiz-adv-x="1196" 
d="M135 559q0 121 32.5 224t93.5 181t148.5 128.5t197.5 67.5l11 215h171l-11 -209q53 -3 97.5 -11t80.5 -17t62.5 -17.5t43.5 -14.5l-10 -341h-176l-58 176q-22 42 -54 66t-78 24q-45 0 -85.5 -22.5t-72 -71t-50.5 -125.5t-19 -186q0 -125 19.5 -210.5t57 -138.5t91 -76.5
t121.5 -23.5q46 0 86.5 7t74.5 18t62 25t51 29l53 -121q-21 -22 -58 -48.5t-86.5 -49.5t-109.5 -39.5t-126 -19.5l-11 -221h-171l12 235q-102 22 -175.5 73t-121 125t-70.5 168t-23 201z" />
    <glyph glyph-name="sterling" unicode="&#xa3;" horiz-adv-x="1553" 
d="M109 107q0 35 17.5 67.5t51 57.5t82 39t109.5 12q9 11 15.5 34.5t10.5 53.5t6 62t2 61v255h-182v143h182v133q0 118 45 213t120 161.5t173.5 102.5t205.5 36t197 -26t156 -75l-131 -221q-8 13 -28.5 37t-53.5 47t-78 40.5t-100 17.5q-42 0 -78 -9t-63 -38t-42.5 -83
t-15.5 -143v-193h301v-143h-301v-135q0 -78 -14.5 -138.5t-36 -105.5t-45.5 -76.5t-43 -53.5q50 -5 99.5 -16.5t99.5 -23t101.5 -20.5t106.5 -9q60 0 99 11.5t61.5 33.5t31.5 53t9 70q0 30 -5.5 59.5t-14 54t-18.5 43.5t-20 30h303q7 -9 16 -25.5t16.5 -39.5t12.5 -52.5
t5 -66.5q0 -64 -22 -128t-73 -115t-133.5 -82.5t-203.5 -31.5q-96 0 -175.5 22t-147.5 48.5t-127.5 49t-117.5 23.5q-32 -34 -60 -59t-56 -41.5t-56.5 -24.5t-60.5 -8q-23 0 -46 6.5t-42.5 20t-31.5 34.5t-12 51z" />
    <glyph glyph-name="yen" unicode="&#xa5;" horiz-adv-x="1560" 
d="M68 1404v118h629v-118l-152 -31l244 -441l55 -114l59 112l234 443l-166 31v118h517v-118l-162 -34l-330 -565h350v-128h-425v-217h425v-128h-425v-183l248 -28v-121h-751v121l236 29v182h-439v128h439v210l-5 7h-434v128h352l-364 567z" />
    <glyph glyph-name="dieresis" unicode="&#xa8;" horiz-adv-x="1022" 
d="M91 1495q0 39 10.5 73.5t32 60.5t54 41t76.5 15h1q40 0 70 -13.5t49.5 -36t29.5 -51.5t10 -61q0 -40 -11 -74.5t-34 -60t-58 -40t-83 -14.5h-1q-35 0 -62.5 13t-46 34.5t-28 51t-9.5 62.5zM601 1495q0 39 10.5 73.5t32.5 60.5t54 41t76 15h1q40 0 70 -13.5t50 -36
t29.5 -51.5t9.5 -61q0 -40 -11 -74.5t-33.5 -60t-58 -40t-83.5 -14.5h-1q-35 0 -62 13t-46 34.5t-28.5 51t-9.5 62.5z" />
    <glyph glyph-name="copyright" unicode="&#xa9;" horiz-adv-x="2129" 
d="M194 1003q0 121 30.5 233.5t87 210t135.5 177.5t175.5 137t208 88t233.5 31t233.5 -31t208.5 -88t176 -137t135 -177.5t87 -210t31 -233.5q0 -122 -31 -234.5t-87 -210.5t-135 -178.5t-176 -137.5t-209 -88.5t-233 -31.5t-233 31.5t-208.5 88.5t-175.5 137.5
t-135.5 178.5t-87 210.5t-30.5 234.5zM366 1003q0 -100 24 -193t68 -175.5t106.5 -150.5t140 -117t168 -76t191.5 -27q100 0 191 27t168.5 76t140 117t106.5 150.5t68 175.5t24 193q0 99 -24 192.5t-68 175.5t-106.5 150t-140 117t-168.5 76t-191 27q-101 0 -191.5 -27
t-168 -76t-140 -117t-106.5 -150t-68 -175.5t-24 -192.5zM612 994q0 107 39 200.5t108.5 163t164.5 109.5t207 40q34 0 73 -4t76 -12t67 -19.5t45 -26.5l-8 -267h-133l-49 149q-10 7 -21 13.5t-27.5 10.5t-40.5 6.5t-61 2.5q-53 0 -93 -23t-67.5 -66t-41.5 -103t-14 -134
q0 -78 23.5 -142.5t64.5 -111t97 -72.5t121 -26q63 0 114 22t90 57l56 -101q-22 -27 -56 -54.5t-77.5 -50t-94 -36.5t-104.5 -14q-113 0 -199 36.5t-143.5 101.5t-86.5 154.5t-29 196.5z" />
    <glyph glyph-name="guillemotleft" unicode="&#xab;" horiz-adv-x="1944" 
d="M228 528v165l654 451l85 -133l-403 -399l406 -393l-88 -130zM992 528v165l654 451l85 -133l-403 -399l406 -393l-88 -130z" />
    <glyph glyph-name="uni00AD" unicode="&#xad;" horiz-adv-x="1345" 
d="M230 515v203h885v-203h-885z" />
    <glyph glyph-name="registered" unicode="&#xae;" horiz-adv-x="2129" 
d="M194 1003q0 121 30.5 233.5t87 210t135.5 177.5t175.5 137t208 88t233.5 31t233.5 -31t208.5 -88t176 -137t135 -177.5t87 -210t31 -233.5q0 -122 -31 -234.5t-87 -210.5t-135 -178.5t-176 -137.5t-209 -88.5t-233 -31.5t-233 31.5t-208.5 88.5t-175.5 137.5
t-135.5 178.5t-87 210.5t-30.5 234.5zM366 1003q0 -100 24 -193t68 -175.5t106.5 -150.5t140 -117t168 -76t191.5 -27q100 0 191 27t168.5 76t140 117t106.5 150.5t68 175.5t24 193q0 99 -24 192.5t-68 175.5t-106.5 150t-140 117t-168.5 76t-191 27q-101 0 -191.5 -27
t-168 -76t-140 -117t-106.5 -150t-68 -175.5t-24 -192.5zM670 519v102l92 28v694l-92 24v114h160q30 -1 50 -1t44.5 1t60.5 2.5t99 2.5q85 0 154 -17t118 -48.5t75 -77.5t26 -103q0 -120 -60 -195t-163 -101q43 -17 69.5 -46t45 -62t32.5 -68t31.5 -64t42.5 -49.5t66 -25.5
v-110h-175q-47 0 -72.5 23.5t-41 60t-25.5 81.5t-26.5 88.5t-44 81t-77.5 58.5q-8 0 -22.5 0.5t-30 1t-30 1t-22.5 0.5v-272l89 -22v-102h-373zM954 1052q26 -6 54 -7.5t67 -1.5q37 0 67.5 13t53 35t35 51.5t12.5 63.5q0 84 -46 120.5t-149 36.5h-24t-19.5 -0.5t-21 -3
t-29.5 -7.5v-300z" />
    <glyph glyph-name="acute" unicode="&#xb4;" horiz-adv-x="681" 
d="M167 1407l351 429h1l188 -173q-16 -29 -46.5 -63.5t-69 -70.5t-82 -71.5t-85.5 -65t-79.5 -51.5t-64.5 -32h-2z" />
    <glyph glyph-name="cedilla" unicode="&#xb8;" horiz-adv-x="615" 
d="M33 -496l1 188q21 -7 46 -10t36 -3h1q33 0 58.5 4t43 18t26 42t8.5 75q0 26 -6.5 54.5t-16 54.5t-20 47t-17.5 32l94 8l44 -8q16 -15 41 -45.5t47.5 -72t37.5 -90.5t12 -100q-3 -64 -23.5 -106.5t-57.5 -68t-90 -36.5t-120 -11h-1q-17 0 -37 2t-39.5 6t-37 9t-30.5 11z
" />
    <glyph glyph-name="guillemotright" unicode="&#xbb;" horiz-adv-x="1899" 
d="M219 219l88 -130l654 439v165l-654 451l-85 -133l403 -399zM930 219l88 -130l654 439v165l-654 451l-85 -133l403 -399z" />
    <glyph glyph-name="circumflex" unicode="&#x2c6;" horiz-adv-x="1038" 
d="M120 1391l302 400h194l300 -399l-108 -85l-289 244l-298 -245z" />
    <glyph glyph-name="ring" unicode="&#x2da;" horiz-adv-x="1020" 
d="M159 1594q1 71 32 125t81 90.5t115 55t134 18.5h1q86 0 149.5 -22.5t105.5 -61.5t62.5 -93t20.5 -117q-1 -71 -29 -125.5t-76 -92t-112.5 -57t-136.5 -19.5h-1q-93 0 -159 23.5t-108 64t-61 95t-18 116.5zM354 1594q0 -32 8.5 -61t27 -52t48 -36.5t72.5 -13.5h1
q45 0 75 10t48 29t25 47.5t7 64.5q0 33 -7.5 62.5t-25.5 52t-47.5 35.5t-73.5 13h-1q-45 0 -75 -11t-48 -30.5t-26 -47.5t-8 -62z" />
    <glyph glyph-name="tilde" unicode="&#x2dc;" horiz-adv-x="1022" 
d="M51 1474q13 31 39.5 69t65 70t89.5 54t113 22q43 0 78 -12.5t65 -31t56 -40.5t51 -40.5t50.5 -31t54.5 -12.5q34 0 58 11t41.5 27.5t29.5 35t22 32.5l105 -88q-19 -39 -45 -78t-61 -69.5t-80 -49.5t-101 -19q-42 0 -77.5 12.5t-66 31.5t-58 41t-54.5 41t-55 31.5
t-59 12.5q-32 0 -56.5 -12t-43.5 -29.5t-33 -35.5t-24 -30z" />
    <glyph glyph-name="uni0400" unicode="&#x400;" horiz-adv-x="1379" 
d="M85 0v137l164 27v1193l-162 31v134h1101l23 -347h-171l-73 194l-398 20v-542l260 4l30 168h173v-491h-173l-30 168l-260 5v-548l479 23l123 264l171 -39l-58 -401h-1199zM402 1873l197 141h1l317 -322l-118 -88h-1q-22 6 -55.5 21t-71.5 35.5t-78.5 46t-77 53.5
t-66.5 56.5t-47 56.5z" />
    <glyph glyph-name="afii10023" unicode="&#x401;" horiz-adv-x="1379" 
d="M85 0v137l164 27v1193l-162 31v134h1101l23 -347h-171l-73 194l-398 20v-542l260 4l30 168h173v-491h-173l-30 168l-260 5v-548l479 23l123 264l171 -39l-58 -401h-1199zM272 1807q0 39 10.5 73.5t32.5 60t54 40.5t76 15h1q40 0 70 -13t50 -35.5t29.5 -51.5t9.5 -61
q0 -40 -11 -75t-33.5 -60.5t-58 -40t-83.5 -14.5h-1q-35 0 -62 13t-46 35t-28.5 51.5t-9.5 62.5zM800 1807q0 39 10.5 73.5t32 60t54 40.5t76.5 15h1q40 0 70 -13t49.5 -35.5t29.5 -51.5t10 -61q0 -40 -11 -75t-34 -60.5t-58 -40t-83 -14.5h-1q-35 0 -62.5 13t-46 35
t-28 51.5t-9.5 62.5z" />
    <glyph glyph-name="afii10051" unicode="&#x402;" horiz-adv-x="1803" 
d="M54 1031l27 491h1396l17 -491h-187l-64 327l-343 18v-574q33 19 75.5 33.5t87.5 24.5t88 15t78 5q133 0 227 -29t153.5 -88.5t87 -150.5t27.5 -215q0 -184 -29 -334.5t-90.5 -257t-158 -164.5t-231.5 -58q-20 0 -43 1.5t-45 4.5t-41.5 7t-34.5 9l-18 148q42 -6 136 -6
q70 0 116 39.5t73 112.5t38 176.5t11 231.5q0 78 -12 149.5t-41 126t-77.5 86.5t-122.5 32q-46 0 -82 -3.5t-65.5 -10t-55 -16t-51.5 -21.5v-485l249 -28v-137h-844v137l276 28v1211l-268 -18l-71 -327h-188z" />
    <glyph glyph-name="afii10052" unicode="&#x403;" horiz-adv-x="1179" 
d="M16 0v136l233 30v1184l-218 40v132h1091l23 -589h-188l-72 422l-316 21v-1211l320 -29v-136h-873zM359 1692l317 322h1l197 -141q-17 -28 -47 -56.5t-66.5 -56.5t-77 -53.5t-78.5 -46t-71.5 -35.5t-55.5 -21h-1z" />
    <glyph glyph-name="afii10053" unicode="&#x404;" horiz-adv-x="1359" 
d="M56 754q0 177 60 321.5t166 247.5t249.5 159t311.5 56q72 0 137 -8.5t121.5 -19t103 -21.5t81.5 -15l-23 -398h-205l-60 263q-11 12 -26 23.5t-37.5 19.5t-54.5 13t-76 5q-84 0 -154.5 -35.5t-122 -106.5t-81.5 -178.5t-33 -252.5q38 42 89 69.5t117 27.5q61 0 111.5 -22
t95.5 -48.5t87 -48.5t86 -22q25 0 45.5 8t38 20.5t32 27l27.5 27.5l69 -76q-18 -35 -46.5 -67t-64 -56t-78 -38.5t-89.5 -14.5q-62 0 -111 21t-92 46.5t-83 46.5t-82 21q-26 0 -46.5 -8t-37.5 -20.5t-32 -27t-28 -27.5l-3 3q9 -113 37 -213t75.5 -175t114.5 -119t156 -44
q49 0 85.5 5.5t62.5 14.5t43 21t29 26l90 221l177 -10l-24 -340q-43 -3 -87 -15.5t-99 -26.5t-127.5 -25.5t-172.5 -11.5q-177 0 -311.5 56.5t-226 159t-138 245.5t-46.5 316z" />
    <glyph glyph-name="afii10054" unicode="&#x405;" horiz-adv-x="1238" 
d="M116 68l17 379h180l44 -248q13 -15 35 -29t52 -25t67.5 -18t81.5 -7q70 0 119 16.5t79.5 46t44 69t13.5 85.5q0 53 -23 95.5t-66 80t-105 72t-140 72.5q-40 19 -84 43t-86.5 54.5t-81.5 68.5t-68.5 85.5t-47 105t-17.5 126.5q0 82 33.5 154.5t99.5 127.5t164 87t227 32
q69 0 135 -10t123 -23t100.5 -24.5t66.5 -15.5l-13 -345h-176l-41 227q-8 9 -26.5 18.5t-43 17.5t-53.5 13t-59 5q-62 0 -106 -13.5t-71.5 -38.5t-40.5 -59t-13 -75q0 -58 26 -102.5t72.5 -82t110.5 -72t140 -72.5q66 -33 135 -74.5t126 -95.5t93 -123t36 -158
q0 -80 -31 -161.5t-99 -148.5t-176 -109t-262 -42q-93 0 -171.5 13.5t-141.5 30t-108 31t-70 16.5z" />
    <glyph glyph-name="afii10055" unicode="&#x406;" horiz-adv-x="845" 
d="M88 0v137l176 28v1192l-176 31v134h668v-134l-175 -31v-1192l175 -30v-135h-668z" />
    <glyph glyph-name="afii10056" unicode="&#x407;" horiz-adv-x="845" 
d="M6 1807q0 39 10.5 73.5t32.5 60t54 40.5t76 15h1q40 0 70 -13t50 -35.5t29.5 -51.5t9.5 -61q0 -40 -11 -75t-33.5 -60.5t-58 -40t-83.5 -14.5h-1q-35 0 -62 13t-46 35t-28.5 51.5t-9.5 62.5zM88 0v137l176 28v1192l-176 31v134h668v-134l-175 -31v-1192l175 -30v-135
h-668zM534 1807q0 39 10.5 73.5t32 60t54 40.5t76.5 15h1q40 0 70 -13t49.5 -35.5t29.5 -51.5t10 -61q0 -40 -11 -75t-34 -60.5t-58 -40t-83 -14.5h-1q-35 0 -62.5 13t-46 35t-28 51.5t-9.5 62.5z" />
    <glyph glyph-name="afii10057" unicode="&#x408;" horiz-adv-x="800" 
d="M-29 -275q39 15 76.5 38.5t70.5 57.5t60.5 79t45.5 102q10 33 17 69.5t11.5 85.5t6.5 112.5t2 150.5v937l-176 31v134h668v-134l-174 -31v-788q0 -180 -5 -314.5t-24 -212.5q-21 -84 -65 -154t-109 -124.5t-149 -93.5t-184 -61z" />
    <glyph glyph-name="afii10058" unicode="&#x409;" horiz-adv-x="2133" 
d="M23 37l39 207q6 -6 20.5 -16t35 -20t46 -17t52.5 -7q30 0 62 23t62.5 74t57 132.5t47 199.5t32 274t11.5 356v116l-217 29v134h1250v-134l-187 -31v-513q17 4 45.5 8t62.5 7.5t71.5 6t73.5 2.5q121 0 217.5 -28t163.5 -82t102.5 -131.5t35.5 -176.5q0 -113 -39 -200
t-109.5 -146t-167.5 -89.5t-214 -30.5q-18 0 -65 2.5t-104 5.5t-113.5 5.5t-92.5 2.5h-397v137l215 28l1 1192h-364v-156q0 -152 -9.5 -301t-30 -284t-53.5 -250.5t-80.5 -200.5t-111 -133t-143.5 -48q-64 0 -112 12.5t-93 40.5zM1334 143q27 -8 60.5 -13.5t93.5 -5.5
q78 0 133 23t90 64t51 97.5t16 122.5q0 153 -72.5 221t-208.5 68q-56 0 -94 -2.5t-69 -7.5v-567z" />
    <glyph glyph-name="afii10059" unicode="&#x40a;" horiz-adv-x="2262" 
d="M86 0v137l163 27v1193l-160 31v134h647v-134l-171 -31v-501h560v505l-162 33v128h646v-128l-169 -34v-514q17 4 45.5 8t62.5 7t71.5 5t73.5 2q122 0 218.5 -28t163.5 -82t102.5 -131.5t35.5 -176.5q0 -118 -38.5 -206t-108 -146.5t-166.5 -87.5t-213 -29q-16 0 -47.5 1.5
t-71 3.5t-83.5 4.5t-85 4.5t-76 3.5t-56 1.5h-307v137l164 27v534h-560v-534l171 -27v-137h-650zM1440 145q28 -7 66.5 -14t87.5 -7q78 0 133 23t90 64t51 97.5t16 122.5q0 153 -72.5 220.5t-208.5 67.5q-56 0 -94 -2.5t-69 -7.5v-564z" />
    <glyph glyph-name="afii10060" unicode="&#x40b;" horiz-adv-x="1869" 
d="M58 1031l27 491h1436l17 -491h-187l-64 327l-371 18v-574q38 19 85 33.5t96.5 24.5t97 15t86.5 5q116 0 202 -21.5t142.5 -74t84.5 -140t28 -219.5v-260l156 -31v-134h-620v134l149 32v180q0 100 -8.5 168t-32 109.5t-65 59.5t-108.5 18q-54 0 -95 -4t-75 -11t-63 -17
t-60 -22v-483l203 -27v-137h-798v137l275 28v1211l-279 -18l-71 -327h-188z" />
    <glyph glyph-name="afii10061" unicode="&#x40c;" horiz-adv-x="1490" 
d="M87 0v137l162 28l1 1193l-163 30v134h629v-134l-154 -30v-523h168l323 520l-151 33v134h556v-134l-171 -30l-375 -539q56 -24 107.5 -79.5t98.5 -125.5t89.5 -145.5t79 -140t67.5 -109.5t56 -54l94 -28v-137h-326q-36 0 -70.5 30.5t-68 80.5t-66.5 113.5t-65.5 130.5
t-65.5 130.5t-67 113.5t-68.5 80.5t-70.5 30.5h-74v-545l172 -30v-135h-647zM594 1692l317 322h1l197 -141q-17 -28 -47 -56.5t-66.5 -56.5t-77 -53.5t-78.5 -46t-71.5 -35.5t-55.5 -21h-1z" />
    <glyph glyph-name="uni040D" unicode="&#x40d;" horiz-adv-x="1760" 
d="M86 0v137l163 28v1192l-160 31v134h650v-134l-175 -30v-921l104 191l528 694v36l-162 30v134h637v-134l-160 -30v-1193l165 -28v-137h-645v137l165 28v935l-100 -199l-532 -677v-59l171 -28v-137h-649zM592 1873l197 141h1l317 -322l-118 -88h-1q-22 6 -55.5 21
t-71.5 35.5t-78.5 46t-77 53.5t-66.5 56.5t-47 56.5z" />
    <glyph glyph-name="afii10062" unicode="&#x40e;" horiz-adv-x="1308" 
d="M-31 1388v134h645v-134l-166 -31l237 -634l58 -188l61 190l211 633l-135 30v134h466v-134l-128 -34l-392 -1014q-24 -59 -55 -123.5t-75 -117.5t-105 -87.5t-145 -34.5q-30 0 -62 3t-61.5 8t-54.5 12t-43 15v189h129q57 0 93 4t59 16.5t38 36.5t30 64l-470 1031z
M287 1946v13.5t0.5 20.5t1 20.5t0.5 13.5h213q12 0 19 -9.5t10.5 -24t5 -31.5t1.5 -32q0 -64 41 -96t128 -32q170 0 170 128q0 15 1.5 32t5 31.5t10.5 24t19 9.5h212q0 -4 0.5 -13.5t1 -20.5t0.5 -20.5v-13.5q0 -78 -29 -131t-83 -85.5t-132 -47t-177 -14.5
q-95 0 -172.5 14.5t-132.5 47.5t-84.5 86t-29.5 130z" />
    <glyph glyph-name="afii10145" unicode="&#x40f;" horiz-adv-x="1685" 
d="M74 0v137l175 28v1192l-169 31v134h669v-134l-185 -31l1 -1209h556v1209l-172 31v134h655v-134l-168 -31v-1193l175 -27l-1 -137h-601q-4 -4 -10 -29.5t-13 -62.5t-14.5 -81.5t-13.5 -88t-9.5 -81t-3.5 -60.5h-193q0 23 -3.5 60.5t-9.5 81t-13 88t-14 81.5t-13 62.5
t-10 29.5h-615z" />
    <glyph glyph-name="afii10017" unicode="&#x410;" horiz-adv-x="1441" 
d="M-51 137l129 28l482 1363h321l481 -1363l139 -28v-137h-649v137l163 28l-75 244h-543l-71 -245l165 -27v-137h-541zM442 565h450l-197 645l-35 146l-32 -146z" />
    <glyph glyph-name="afii10018" unicode="&#x411;" horiz-adv-x="1403" 
d="M63 0v137l186 19v1200l-185 32v134h1138l21 -407h-187l-67 245l-404 16v-497q17 4 45.5 8t62.5 7.5t71.5 6t73.5 2.5q124 0 222.5 -29.5t167 -85.5t105 -137t36.5 -184q0 -117 -40 -207.5t-112 -151.5t-171.5 -92.5t-218.5 -31.5q-12 0 -40 1t-64 3t-77 4t-80 4t-73 3
t-55 1h-355zM565 143q27 -8 60.5 -13.5t93.5 -5.5q81 0 138.5 24t93.5 67.5t52.5 102.5t16.5 130q0 162 -75 234t-217 72q-56 0 -94 -2t-69 -8v-601z" />
    <glyph glyph-name="afii10019" unicode="&#x412;" horiz-adv-x="1441" 
d="M85 0v137l164 27v1193l-162 31v134h317q50 0 91 2t78 4.5t73.5 4.5t77.5 2q143 0 247.5 -20.5t173 -62.5t101.5 -107t33 -154q0 -84 -24.5 -150t-67.5 -114t-102.5 -78t-129.5 -41q90 -1 168.5 -25.5t137 -70t92.5 -110t34 -145.5q0 -91 -29 -175.5t-100.5 -150
t-192 -104.5t-303.5 -39q-41 0 -78 2t-79 4t-91.5 4t-113.5 2h-315zM564 144q9 -5 27 -8.5t39.5 -5.5t45.5 -3t45 -1q90 0 153.5 20.5t103.5 59t58.5 94.5t18.5 127q0 80 -17.5 136t-55 91t-96 51t-140.5 16h-44.5t-53.5 -0.5t-50 -1.5t-34 -2v-573zM564 864q14 -2 37 -3.5
t47.5 -2t48.5 -0.5h41q63 0 106.5 18t70.5 54t38.5 89.5t11.5 124.5q0 65 -13.5 113.5t-44.5 80t-82 47t-125 15.5q-43 0 -81.5 -4t-54.5 -6v-526z" />
    <glyph glyph-name="afii10020" unicode="&#x413;" horiz-adv-x="1182" 
d="M16 0v136l233 30v1184l-218 40v132h1091l23 -589h-188l-72 422l-316 21v-1211l320 -29v-136h-873z" />
    <glyph glyph-name="afii10021" unicode="&#x414;" horiz-adv-x="1563" 
d="M31 -404q0 14 1.5 52.5t3.5 90.5t5 112t6 118.5t5.5 110t4.5 85.5l30 -15l2 15h132q30 44 71 130.5t78.5 221t63.5 321t26 431.5v88l-212 26v139h1238v-139l-194 -26v-1192h206q0 -7 -2 -34.5t-6 -67t-8.5 -88t-10 -98.5t-10.5 -98.5t-9.5 -87t-8 -64.5t-5.5 -31h-178
q-2 14 -5 45.5t-7 71.5t-9.5 84.5t-10.5 84.5t-10.5 71.5t-9.5 46.5h-883q-5 -12 -14.5 -42.5t-21 -71t-24 -86t-23.5 -86.5t-19 -73t-10 -45h-182zM437 165h541l1 1193h-356v-101q1 -215 -18 -393.5t-47.5 -317t-61.5 -234.5t-59 -147z" />
    <glyph glyph-name="afii10022" unicode="&#x415;" horiz-adv-x="1379" 
d="M85 0v137l164 27v1193l-162 31v134h1101l23 -347h-171l-73 194l-398 20v-542l260 4l30 168h173v-491h-173l-30 168l-260 5v-548l479 23l123 264l171 -39l-58 -401h-1199z" />
    <glyph glyph-name="afii10024" unicode="&#x416;" horiz-adv-x="2166" 
d="M-11 0v137l94 28q25 9 56 54t67.5 109.5t79 140t89.5 145.5t99 125.5t108 79.5l-374 538l-172 31v134h555v-134l-147 -32l320 -521h168v523l-163 30v134h630v-134l-162 -30v-523h167l320 520l-146 33v134h555v-134l-172 -30l-374 -539q56 -24 108 -79.5t99 -125.5
t89 -145.5t78.5 -140t67.5 -109.5t56 -54l94 -28v-137h-326q-36 0 -70.5 30.5t-68.5 80.5t-66.5 113.5t-65.5 130.5t-66 130.5t-66.5 113.5t-68.5 80.5t-71 30.5h-73v-545l173 -30v-135h-652v137l174 28v545h-74q-36 0 -71 -30.5t-68.5 -80.5t-66.5 -113.5t-66 -130.5
t-65.5 -130.5t-66.5 -113.5t-68.5 -80.5t-70.5 -30.5h-326z" />
    <glyph glyph-name="afii10025" unicode="&#x417;" horiz-adv-x="1258" 
d="M80 77l38 383h147l82 -275q18 -14 40 -25t49 -19.5t61 -13t77 -4.5q128 0 195.5 74.5t67.5 228.5q0 63 -10.5 116.5t-42 93t-88 62t-147.5 22.5h-140v152h115q49 0 95.5 15.5t82.5 50.5t57.5 91.5t21.5 138.5q0 63 -15.5 107.5t-43 73t-65.5 41.5t-84 13q-45 0 -78.5 -7
t-57 -19.5t-37.5 -29t-21 -34.5l-48 -165h-178l-27 323q32 2 85 12.5t114.5 22.5t127 22t123.5 10q267 0 401.5 -83.5t134.5 -260.5q0 -88 -31.5 -154.5t-82.5 -113.5t-116 -75.5t-133 -41.5q121 -2 206.5 -32t140.5 -79.5t80.5 -114t25.5 -136.5q0 -107 -35 -192
t-114 -144.5t-205 -91t-309 -31.5q-66 0 -136 9.5t-133 23t-113 29t-77 27.5z" />
    <glyph glyph-name="afii10026" unicode="&#x418;" horiz-adv-x="1760" 
d="M86 0v137l163 28v1192l-160 31v134h650v-134l-175 -30v-921l104 191l528 694v36l-162 30v134h637v-134l-160 -30v-1193l165 -28v-137h-645v137l165 28v935l-100 -199l-532 -677v-59l171 -28v-137h-649z" />
    <glyph glyph-name="afii10027" unicode="&#x419;" horiz-adv-x="1760" 
d="M86 0v137l163 28v1192l-160 31v134h650v-134l-175 -30v-921l104 191l528 694v36l-162 30v134h637v-134l-160 -30v-1193l165 -28v-137h-645v137l165 28v935l-100 -199l-532 -677v-59l171 -28v-137h-649zM463 1946v13.5t0.5 20.5t1 20.5t0.5 13.5h213q12 0 19 -9.5
t10.5 -24t5 -31.5t1.5 -32q0 -64 41 -96t128 -32q170 0 170 128q0 15 1.5 32t5 31.5t10.5 24t19 9.5h212q0 -4 0.5 -13.5t1 -20.5t0.5 -20.5v-13.5q0 -78 -29 -131t-83 -85.5t-132 -47t-177 -14.5q-95 0 -172.5 14.5t-132.5 47.5t-84.5 86t-29.5 130z" />
    <glyph glyph-name="afii10028" unicode="&#x41a;" horiz-adv-x="1490" 
d="M87 0v137l162 28l1 1193l-163 30v134h629v-134l-154 -30v-523h168l323 520l-151 33v134h556v-134l-171 -30l-375 -539q56 -24 107.5 -79.5t98.5 -125.5t89.5 -145.5t79 -140t67.5 -109.5t56 -54l94 -28v-137h-326q-36 0 -70.5 30.5t-68 80.5t-66.5 113.5t-65.5 130.5
t-65.5 130.5t-67 113.5t-68.5 80.5t-70.5 30.5h-74v-545l172 -30v-135h-647z" />
    <glyph glyph-name="afii10029" unicode="&#x41b;" horiz-adv-x="1575" 
d="M23 37l39 207q6 -6 20.5 -16t35 -20t46 -17t52.5 -7q30 0 62 23t62.5 74t57 132.5t47 199.5t32 274t11.5 356v114l-246 31v134h1271v-134l-187 -31v-1193l225 -28v-136h-756v137l216 28v1192h-355v-156q0 -152 -9.5 -301t-30 -284t-53.5 -250.5t-80.5 -200.5t-111 -133
t-143.5 -48q-64 0 -112 12.5t-93 40.5z" />
    <glyph glyph-name="afii10030" unicode="&#x41c;" horiz-adv-x="2100" 
d="M1 0v137l175 27l154 1193l-202 31v134h631l267 -961l35 -185l29 185l247 961h635v-134l-216 -31l174 -1192l172 -28v-137h-661v137l166 27l-93 876l-42 374l-63 -298l-295 -1132h-209l-330 1072l-94 354l-18 -369l-82 -877l199 -27v-137h-579z" />
    <glyph glyph-name="afii10031" unicode="&#x41d;" horiz-adv-x="1728" 
d="M86 0v137l163 27v1193l-160 31v134h648v-134l-171 -31v-501h596v501l-162 31v134h639v-134l-160 -31v-1193l160 -27v-137h-637v137l160 27v534h-596v-534l171 -27v-137h-651z" />
    <glyph glyph-name="afii10032" unicode="&#x41e;" horiz-adv-x="1498" 
d="M56 744q0 181 51 328t144.5 251.5t224.5 161t291 56.5q176 0 303.5 -53.5t210 -153.5t122 -241.5t39.5 -317.5q0 -181 -51 -328t-143.5 -251t-222 -161t-287.5 -58q-174 -2 -302.5 52t-212.5 154t-125.5 242.5t-41.5 318.5zM401 745q0 -167 24 -286.5t69 -196t109 -112
t145 -35.5q79 0 143.5 41t110 123t70 205.5t24.5 289.5q0 165 -24 284.5t-68.5 196t-108.5 113t-145 36.5q-80 0 -144.5 -40.5t-110 -122.5t-70 -206t-24.5 -290z" />
    <glyph glyph-name="afii10033" unicode="&#x41f;" horiz-adv-x="1666" 
d="M82 1388v134h1508v-134l-174 -31v-1192l185 -28v-137h-651v137l152 28v1204h-537v-1204l171 -28v-137h-650v137l163 28v1193z" />
    <glyph glyph-name="afii10034" unicode="&#x420;" horiz-adv-x="1366" 
d="M85 0v137l164 26v1194l-157 31v134h317q47 0 86 2t79 4.5t87 4t110 1.5q154 -1 260 -29t171 -83.5t93.5 -139t28.5 -195.5q0 -131 -43 -231t-123 -167.5t-194 -102t-256 -34.5q-24 0 -47.5 1t-43 2.5t-33.5 3t-20 2.5l-1 -397l280 -27v-137h-758zM563 700q25 -6 57 -7.5
t86 -1.5q55 0 107 19.5t91.5 65t63.5 121t24 187.5q0 319 -283 319q-27 0 -48 -1.5t-38.5 -3.5t-31.5 -4t-28 -3v-691z" />
    <glyph glyph-name="afii10035" unicode="&#x421;" horiz-adv-x="1360" 
d="M57 754q0 177 60 321.5t166 247.5t250 159t311 56q72 0 137 -8.5t121.5 -19t103 -21.5t81.5 -15l-23 -398h-205l-60 263q-11 12 -26 23.5t-37.5 19.5t-54.5 13t-76 5q-86 0 -158 -37.5t-123.5 -113t-80 -189.5t-28.5 -267q0 -132 23 -254t70.5 -215.5t120.5 -149.5
t173 -56q50 0 86 5.5t62 14.5t43 21t29 26l91 221l176 -10l-24 -340q-43 -3 -87 -15.5t-99 -26.5t-127.5 -25.5t-172.5 -11.5q-177 0 -311.5 56.5t-226 159t-138 245.5t-46.5 316z" />
    <glyph glyph-name="afii10036" unicode="&#x422;" horiz-adv-x="1508" 
d="M54 933l30 589h1336l31 -589h-187l-74 425l-273 18v-1212l292 -27v-137h-888v137l275 28v1211l-280 -18l-76 -425h-186z" />
    <glyph glyph-name="afii10037" unicode="&#x423;" horiz-adv-x="1308" 
d="M-31 1388v134h645v-134l-166 -31l237 -634l58 -188l61 190l211 633l-135 30v134h466v-134l-128 -34l-392 -1014q-24 -59 -55 -123.5t-75 -117.5t-105 -87.5t-145 -34.5q-30 0 -62 3t-61.5 8t-54.5 12t-43 15v189h129q57 0 93 4t59 16.5t38 36.5t30 64l-470 1031z" />
    <glyph glyph-name="afii10038" unicode="&#x424;" horiz-adv-x="1715" 
d="M37 774q0 91 43.5 166.5t128 131t208 88.5t283.5 40v176l-173 32v135h665v-135l-176 -32v-176q140 -3 244 -19.5t177.5 -45t120.5 -67.5t74 -86t37 -102t10 -114q0 -95 -44 -173.5t-128.5 -137t-208 -93.5t-282.5 -42v-179l177 -29v-135h-663v137l170 27v179
q-139 3 -242.5 21t-177.5 48t-121 71t-74 90.5t-37.5 106t-10.5 117.5zM359 785q0 -62 12.5 -121.5t49 -108t103.5 -82t176 -42.5v658q-110 -6 -176.5 -29t-103.5 -61.5t-49 -92.5t-12 -121zM1016 428q109 6 176 31t104 66t48.5 99t11.5 130q0 61 -12 117.5t-49 101.5
t-103.5 74.5t-175.5 38.5v-658z" />
    <glyph glyph-name="afii10039" unicode="&#x425;" horiz-adv-x="1513" 
d="M1 0v137l167 28l406 599l-420 594l-133 30v134h663v-134l-142 -31l292 -453l283 454l-167 30v134h549v-134l-177 -32l-399 -551l457 -641l138 -27v-137h-682v137l157 27l-324 497l-286 -498l180 -26v-137h-562z" />
    <glyph glyph-name="afii10040" unicode="&#x426;" horiz-adv-x="1686" 
d="M67 0v137l182 28v1192l-169 31v134h669v-134l-185 -31v-1208h547v1208l-162 31v134h646v-134l-169 -31v-1197l13 -1l4 6h194q0 -7 -2 -34.5t-6 -67t-8.5 -88t-10 -98.5t-10.5 -98.5t-9.5 -87t-8 -64.5t-5.5 -31h-178q-2 14 -5 45.5t-7 71.5t-9.5 84.5t-10.5 84.5
t-10.5 71.5t-9.5 46.5h-1280z" />
    <glyph glyph-name="afii10041" unicode="&#x427;" horiz-adv-x="1523" 
d="M8 1386v136h605v-136l-172 -31v-257q0 -84 4 -143t14 -98.5t27 -62.5t42.5 -35t61 -15t83.5 -3q45 0 89 4.5t81.5 13t67 19.5t47.5 24v555l-172 31v134h663v-134l-175 -31v-1193l175 -29v-135h-705v137l214 28v477q-39 -23 -87.5 -39t-100.5 -26t-104 -15t-98 -5
q-110 0 -192.5 21t-138 74t-83.5 142t-28 226v335z" />
    <glyph glyph-name="afii10042" unicode="&#x428;" horiz-adv-x="2394" 
d="M73 0v137l176 28v1192l-169 31v134h660v-134l-176 -31v-1198h480v1198l-157 31v134h631v-134l-162 -31v-1198h474v1198l-157 31v134h642v-134l-170 -31v-1192l178 -28v-137h-2250z" />
    <glyph glyph-name="afii10043" unicode="&#x429;" horiz-adv-x="2405" 
d="M73 0v137l176 28v1192l-169 31v134h660v-134l-176 -31v-1198h480v1198l-157 31v134h631v-134l-162 -31v-1198h474v1198l-157 31v134h642v-134l-170 -31v-1193l24 -2l2 3h193q0 -7 -2 -34.5t-6 -67t-8.5 -88t-10 -98.5t-10.5 -98.5t-9.5 -87t-8 -64.5t-5.5 -31h-177
q-2 14 -5 45.5t-7.5 71.5t-9.5 84t-10.5 84t-11 72t-9.5 47h-2001z" />
    <glyph glyph-name="afii10044" unicode="&#x42a;" horiz-adv-x="1731" 
d="M58 949l31 573h1026l-1 -134l-204 -33v-476q17 4 45.5 8t62.5 7.5t71.5 6t73.5 2.5q121 0 217.5 -29.5t163.5 -85.5t102.5 -137t35.5 -184q0 -117 -39 -207.5t-109.5 -151.5t-168 -92.5t-213.5 -31.5q-12 0 -40 1t-64 3t-77 4t-80 4t-73 3t-55 1h-454v137l282 27v1212
l-271 -18l-73 -409h-189zM910 143q14 -4 28.5 -7.5t32.5 -6t40.5 -4t51.5 -1.5q78 0 133 24t90 67.5t51 102.5t16 130q0 162 -72.5 234t-208.5 72q-56 0 -93.5 -2t-68.5 -8v-601z" />
    <glyph glyph-name="afii10045" unicode="&#x42b;" horiz-adv-x="2124" 
d="M85 0v137l164 18v1205l-161 34v128h687v-128l-210 -36v-479q17 4 45.5 8t62.5 7.5t71.5 6t73.5 2.5q121 0 217.5 -29.5t163.5 -85.5t102.5 -137t35.5 -184q0 -117 -39 -207.5t-109.5 -151.5t-168 -92.5t-213.5 -31.5q-12 0 -40 1t-64 3t-77 4t-80 4t-73 3t-55 1h-333z
M565 143q27 -8 60.5 -13.5t93.5 -5.5q78 0 133 24t90 67.5t51 102.5t16 130q0 162 -72.5 234t-208.5 72q-56 0 -94 -2t-69 -8v-601zM1381 0v137l176 28v1192l-176 31v134h668v-134l-175 -31v-1192l175 -30v-135h-668z" />
    <glyph glyph-name="afii10046" unicode="&#x42c;" horiz-adv-x="1387" 
d="M85 0v137l164 18v1205l-161 34v128h687v-128l-210 -36v-479q17 4 45.5 8t62.5 7.5t71.5 6t73.5 2.5q121 0 217.5 -29.5t163.5 -85.5t102.5 -137t35.5 -184q0 -117 -39 -207.5t-109.5 -151.5t-168 -92.5t-213.5 -31.5q-12 0 -40 1t-64 3t-77 4t-80 4t-73 3t-55 1h-333z
M565 143q27 -8 60.5 -13.5t93.5 -5.5q78 0 133 24t90 67.5t51 102.5t16 130q0 162 -72.5 234t-208.5 72q-56 0 -94 -2t-69 -8v-601z" />
    <glyph glyph-name="afii10047" unicode="&#x42d;" horiz-adv-x="1393" 
d="M76 391l181 14l91 -212q11 -11 29.5 -24.5t49 -24.5t74 -18.5t103.5 -7.5q81 0 146.5 42t113 117.5t76 180.5t35.5 231q-36 -33 -82 -54t-103 -21q-61 0 -111.5 22t-95.5 48.5t-87 48.5t-85 22q-25 0 -45.5 -8t-38 -20.5t-32.5 -27t-28 -27.5l-69 76q19 35 47 67t64 56
t78.5 38.5t89.5 14.5q61 0 110.5 -21t92 -46.5t82.5 -46.5t83 -21t73.5 22t55.5 47q-8 124 -37 224.5t-78.5 171.5t-120 109t-161.5 38q-51 0 -84 -7t-55.5 -18t-37 -25.5t-28.5 -29.5l-61 -222h-212l-10 369q42 3 87.5 14t101.5 23.5t126 22.5t162 10q171 0 313 -56.5
t244 -160t158 -250t56 -327.5q0 -170 -50.5 -311t-145 -242.5t-230 -157.5t-304.5 -56q-102 0 -177.5 12t-134.5 26t-106 26.5t-91 14.5z" />
    <glyph glyph-name="afii10048" unicode="&#x42e;" horiz-adv-x="2294" 
d="M86 0v137l163 28v1191l-160 32v134h642v-134l-167 -32v-484h310q19 156 79 280.5t151.5 210.5t211 132t257.5 46q171 0 297 -55t208 -155.5t121.5 -241.5t38.5 -313q-2 -185 -53 -332.5t-142 -250.5t-217.5 -158t-278.5 -55q-165 0 -290 49t-210 140.5t-130 222
t-51 293.5h-301v-520l171 -28v-137h-650zM1209 742q0 -162 23.5 -279.5t68.5 -194.5t109.5 -114t146.5 -37q79 0 141.5 40.5t106 122t66.5 205t23 290.5q0 160 -23 278.5t-66.5 196.5t-105.5 116t-141 38q-77 0 -141 -40t-110.5 -121.5t-72 -206.5t-25.5 -294z" />
    <glyph glyph-name="afii10049" unicode="&#x42f;" horiz-adv-x="1463" 
d="M-25 0v137l83 27q26 6 50.5 43t50.5 90t55.5 115.5t64.5 120.5t78 105.5t96 69.5q-69 16 -123 52t-90.5 88t-55.5 119t-19 147q0 99 39.5 178t112 133.5t175.5 83.5t230 29q37 0 70 -2.5t65.5 -5.5t66 -5.5t71.5 -2.5h385v-134l-166 -32v-1192l177 -27v-137h-662l-2 137
l176 26v501q-11 -1 -33 -1.5t-50 -1t-58.5 -0.5h-57.5q-36 -26 -70.5 -85t-66.5 -132.5t-62.5 -152t-58.5 -143.5t-54 -106.5t-50 -41.5h-367zM489 1122q0 -168 70 -246.5t202 -78.5h34t40.5 1t38.5 2t29 4v584q-10 1 -21.5 3t-28.5 4t-41.5 3.5t-59.5 1.5
q-137 1 -200 -67.5t-63 -210.5z" />
    <glyph glyph-name="afii10065" unicode="&#x430;" horiz-adv-x="1167" 
d="M62 304q0 73 26.5 130t73 100t109.5 73t136 49.5t152 28.5t158 11v48q0 57 -11.5 97.5t-35.5 66t-61.5 37t-90.5 11.5q-54 0 -108.5 -8.5t-104.5 -21t-92.5 -28t-72.5 -29.5h-1l-59 134q21 17 71 44.5t120 53.5t155 45t175 19q111 0 188.5 -24t126 -74t71 -126.5
t22.5 -180.5v-624h124v-123q-19 -5 -47 -11t-62 -11.5t-73 -9.5t-80 -4q-36 0 -61.5 3t-41 14t-22.5 31.5t-7 55.5v58q-17 -23 -47 -51t-72.5 -53t-96.5 -41.5t-119 -16.5q-71 0 -133 19t-108.5 59t-73.5 101.5t-27 147.5zM379 352q0 -89 40.5 -135.5t118.5 -46.5
q16 0 39.5 5t48.5 14t49 21.5t42 28.5v331q-98 0 -163 -18t-104 -48t-55 -69.5t-16 -82.5z" />
    <glyph glyph-name="afii10066" unicode="&#x431;" horiz-adv-x="1201" 
d="M65 661q0 170 32 303.5t85 235.5t122.5 175t143.5 122t148.5 77t138.5 41q41 8 64.5 15.5t37 15.5t19.5 18.5t13 24.5l37 76h179v-223q0 -36 -6.5 -62t-24 -42.5t-47 -24t-75.5 -7.5q-105 0 -211.5 -22t-198 -79t-159.5 -156.5t-96 -254.5q30 55 71.5 101.5t94 80.5
t115.5 53.5t137 19.5q132 0 219 -40.5t138.5 -115.5t72 -182.5t20.5 -240.5q0 -131 -38.5 -239t-109.5 -185t-170.5 -119.5t-221.5 -42.5q-134 0 -233.5 48.5t-165.5 137t-98.5 213.5t-32.5 278zM382 579q0 -110 14.5 -195.5t42.5 -145t70 -90.5t96 -31q61 0 103.5 28t68 81
t37 130.5t11.5 176.5q0 226 -50 341t-161 115q-57 0 -100.5 -33.5t-72.5 -90t-44 -130.5t-15 -156z" />
    <glyph glyph-name="afii10067" unicode="&#x432;" horiz-adv-x="1364" 
d="M90 0v134l135 24v832l-135 28v128h217q44 0 99 4t112 9t111 9t95 4q148 0 241 -21.5t145.5 -58.5t72 -86.5t19.5 -104.5q0 -93 -56.5 -166.5t-162.5 -110.5q76 -6 134 -31t98 -61t60.5 -80t20.5 -89q0 -83 -27 -153.5t-93 -121.5t-176.5 -80t-277.5 -29q-36 0 -92 3.5
t-116.5 7t-119 7t-100.5 3.5h-204zM515 143q10 -4 34 -8.5t52.5 -8.5t56 -6.5t42.5 -2.5q75 0 125 14.5t79 40.5t41 63.5t12 82.5q0 52 -13.5 92t-42.5 68t-75 42.5t-110 14.5h-201v-392zM515 667h163q67 0 108.5 18.5t64.5 48.5t31 68.5t8 79.5q0 28 -8 56t-30.5 50.5
t-63.5 36.5t-106 14q-47 0 -89 -5t-78 -7v-360z" />
    <glyph glyph-name="afii10068" unicode="&#x433;" horiz-adv-x="1061" 
d="M79 0v134l146 20v835l-142 29v128h931l10 -455h-188l-64 303l-245 18v-858l268 -20v-134h-716z" />
    <glyph glyph-name="afii10069" unicode="&#x434;" horiz-adv-x="1342" 
d="M14 -404q0 14 1.5 50.5t3.5 86t4.5 106.5t5.5 112.5t5.5 105.5t4.5 84h111q19 6 42.5 22t47 51t46 93.5t40 151t28 223t10.5 308.5l-193 28v128h1135v-128l-178 -28v-849h144v-2l48 2q0 -10 -4 -52t-9.5 -100t-13 -124t-14 -123.5t-12 -98t-7.5 -47.5h-177q-2 15 -5.5 48
t-9 74.5t-11.5 86.5t-12 85t-12 69.5t-10 39.5l1 1h-727q-5 -10 -12.5 -38t-16 -65.5t-17.5 -81t-17.5 -85t-15.5 -77t-11 -57.5h-193zM392 141h434v861h-300v-105q0 -131 -11 -250.5t-29.5 -218.5t-42.5 -173t-51 -114z" />
    <glyph glyph-name="afii10070" unicode="&#x435;" horiz-adv-x="1126" 
d="M70 569q0 139 39.5 250t111.5 188.5t173 118.5t224 41q415 0 433 -405q2 -69 -0.5 -124.5t-10.5 -93.5h-652q5 -99 29 -169t63 -114t92.5 -64t117.5 -20q50 0 94 8t81.5 20t67.5 27t53 29l52 -121q-25 -26 -69.5 -54.5t-102 -52.5t-124 -40t-135.5 -16q-141 0 -242.5 44
t-167 122.5t-96.5 187.5t-31 238zM387 679h358q0 5 0.5 14t1 19t0.5 18.5v13.5q0 51 -7 103t-25.5 93t-51 67t-83.5 26q-38 0 -71.5 -14.5t-59 -53.5t-42 -108t-20.5 -178z" />
    <glyph glyph-name="afii10072" unicode="&#x436;" horiz-adv-x="1968" 
d="M-14 3v134l93 25q24 8 48 39t50 75t55 96.5t63.5 102.5t75.5 92.5t90 67.5l-263 355l-161 28v128h538v-128l-144 -27l205 -329h196v327l-132 29v128h579v-128l-143 -29v-330h193l206 331l-143 28v128h539v-128l-162 -29l-265 -357q50 -24 90.5 -66.5t75.5 -92.5
t64 -102.5t55.5 -97t50.5 -75.5t49 -39l92 -25v-134h-304q-45 0 -82.5 39t-71 98t-66.5 127t-69 127t-78.5 98t-94.5 39h-79v-369l156 -25v-134h-595v134l135 25v371h-80q-39 0 -72.5 -22.5t-63 -59.5t-55.5 -84.5t-51 -97t-49.5 -97t-51.5 -84.5t-56 -59.5t-63 -22.5h-304z
" />
    <glyph glyph-name="afii10073" unicode="&#x437;" horiz-adv-x="1099" 
d="M62 60l27 268h196l37 -146q10 -15 29.5 -27t43.5 -21t52 -13.5t56 -4.5q58 0 99 17t66.5 45.5t37.5 66.5t12 80t-9 78.5t-32 62.5t-61.5 41t-98.5 15q-7 0 -23 -2t-34 -5t-35.5 -6.5l-27.5 -5.5l11 163l64 9q97 14 148 66.5t51 132.5q0 36 -8 64.5t-28 49t-53.5 31.5
t-85.5 11q-40 0 -71 -8t-54 -20t-37.5 -27t-20.5 -30l-32 -142h-189v303q52 0 97.5 8.5t96.5 19t111.5 19t142.5 8.5q227 0 338 -67t111 -197q0 -41 -14.5 -80.5t-42.5 -74.5t-69 -65t-94 -51q69 -11 123 -36t91 -61.5t56.5 -83t20.5 -99.5q1 -83 -32 -150t-99.5 -114
t-165.5 -72.5t-229 -25.5q-91 0 -167 9t-135.5 21.5t-102.5 25.5t-67 20z" />
    <glyph glyph-name="afii10074" unicode="&#x438;" horiz-adv-x="1590" 
d="M91 0v134l134 20v835l-131 30v127h581v-128l-147 -28v-708l107 190l476 674h384v-128l-130 -28v-837l139 -20v-133h-587v133l145 27v711l-95 -170l-490 -701h-386z" />
    <glyph glyph-name="afii10075" unicode="&#x439;" horiz-adv-x="1590" 
d="M91 0v134l134 20v835l-131 30v127h581v-128l-147 -28v-708l107 190l476 674h384v-128l-130 -28v-837l139 -20v-133h-587v133l145 27v711l-95 -170l-490 -701h-386zM404 1678q0 8 0.5 25t1.5 25h207q12 0 19 -9.5t10.5 -24t5 -31t1.5 -31.5q0 -37 10 -71.5t31.5 -61
t54.5 -42.5t79 -16t78.5 16t53 42.5t30 61t9.5 71.5q0 15 1.5 31.5t5 31t10.5 24t19 9.5h207q1 -8 1.5 -25t0.5 -25q0 -82 -27.5 -149.5t-80.5 -116t-131 -75t-178 -26.5q-98 0 -175.5 27t-131.5 75.5t-83 116t-29 148.5z" />
    <glyph glyph-name="afii10076" unicode="&#x43a;" horiz-adv-x="1364" 
d="M91 0v134l134 20v835l-131 29v128h575v-128l-144 -29v-330h200l207 332l-143 27v128h538v-128l-161 -28l-267 -358q49 -25 90 -67.5t75.5 -92.5t63.5 -102.5t55.5 -96.5t50.5 -75t48 -39l93 -25v-134h-304q-45 0 -82.5 39t-71 98t-66.5 127t-69 127t-78.5 98t-94.5 39
h-84v-374l164 -20v-134h-598z" />
    <glyph glyph-name="afii10077" unicode="&#x43b;" horiz-adv-x="1332" 
d="M5 8l23 220q5 -3 26 -8.5t46.5 -11.5t49.5 -10t34 -4q37 0 69.5 64.5t56.5 174t37.5 253.5t13.5 304l-187 28v128h1110v-136l-178 -33v-823l168 -20v-134h-627v134l150 20v842h-285v-105q0 -135 -11 -255.5t-29 -219.5t-41 -172.5t-46 -115.5q-14 -30 -34 -56.5t-47 -46
t-62 -30.5t-78 -11q-17 0 -42 2.5t-50 6t-44 8t-23 7.5z" />
    <glyph glyph-name="afii10078" unicode="&#x43c;" horiz-adv-x="1886" 
d="M-10 0v134l156 20l134 836l-179 28v128h607l209 -682l43 -165l33 165l187 682h611v-128l-197 -28l153 -835l152 -21v-134h-627v134l152 21l-82 584l-36 287l-77 -285l-217 -747h-234l-257 751l-93 274l-15 -272l-76 -593l181 -20v-134h-528z" />
    <glyph glyph-name="afii10079" unicode="&#x43d;" horiz-adv-x="1534" 
d="M90 0v134l135 19v837l-135 28v128h583v-128l-146 -28v-323h480v322l-146 29v128h580v-128l-133 -28v-836l136 -20v-134h-586v134l149 20v367h-480v-367l149 -20v-134h-586z" />
    <glyph glyph-name="afii10080" unicode="&#x43e;" horiz-adv-x="1232" 
d="M65 566q0 152 47 265t125 188t180.5 112t213.5 37q130 0 230 -40.5t168 -116.5t103 -185t35 -247q0 -156 -47 -270t-125 -187.5t-180 -109t-213 -35.5q-130 0 -230 40.5t-168.5 116.5t-103.5 185t-35 247zM399 598q0 -235 50.5 -359t169.5 -124q55 0 95 24.5t66.5 77
t39 134.5t12.5 196q0 117 -11.5 207.5t-37 151.5t-67 92.5t-101.5 31.5q-55 0 -95.5 -24.5t-67.5 -77t-40 -134.5t-13 -196z" />
    <glyph glyph-name="afii10081" unicode="&#x43f;" horiz-adv-x="1477" 
d="M89 1018v128h1302v-128l-140 -28v-831l135 -25v-134h-577v134l140 25v852h-422v-852l141 -25v-134h-578v134l135 25v831z" />
    <glyph glyph-name="afii10082" unicode="&#x440;" horiz-adv-x="1340" 
d="M64 -369l150 25v1267l-136 42v151l358 49h5l51 -43v-106q25 29 59 56.5t76 48.5t92 34t108 13q92 0 172.5 -31t140.5 -98.5t94.5 -174.5t34.5 -258q0 -133 -40.5 -248t-116.5 -199.5t-185 -133t-246 -48.5q-50 0 -96.5 7t-69.5 12l6 -166v-174l198 -25v-127h-655v127z
M521 159q17 -19 55 -33.5t92 -14.5t102.5 23.5t84.5 77.5t58 142t24 216q1 113 -15 192t-47 129t-75.5 72.5t-99.5 22.5q-60 0 -107 -21.5t-72 -48.5v-757z" />
    <glyph glyph-name="afii10083" unicode="&#x441;" horiz-adv-x="1067" 
d="M72 559q0 135 40.5 247t115.5 192.5t181.5 125t238.5 44.5q67 0 123 -7.5t100 -17.5t76 -20.5t52 -16.5l-10 -341h-176l-58 176q-22 42 -54 66t-78 24q-45 0 -85.5 -22.5t-72 -71t-50.5 -125.5t-19 -186q0 -125 19.5 -210.5t57 -138.5t91 -76.5t121.5 -23.5q46 0 86.5 7
t74.5 18t62 25t51 29l53 -121q-21 -23 -60.5 -50.5t-92 -51.5t-116 -40t-132.5 -16q-141 0 -243 44t-167.5 122t-97 184.5t-31.5 231.5z" />
    <glyph glyph-name="afii10084" unicode="&#x442;" horiz-adv-x="1310" 
d="M50 691l10 455h1190l10 -455h-180l-61 303l-208 18v-853l244 -25v-134h-788v134l239 25v853l-219 -18l-57 -303h-180z" />
    <glyph glyph-name="afii10085" unicode="&#x443;" horiz-adv-x="1228" 
d="M-9 1018v128h579v-128l-151 -29l191 -592l78 -272l68 272l152 592l-130 29v128h442v-128l-92 -28q-29 -91 -61.5 -196.5t-65.5 -213t-65 -209.5t-58 -186t-45.5 -143t-28.5 -80q-42 -116 -91.5 -204t-108 -147.5t-128 -90t-151.5 -30.5q-20 0 -44 1t-47 3t-41.5 4.5
t-26.5 5.5v245q15 -7 59.5 -16.5t104.5 -9.5q30 0 65.5 7t73.5 35t77 83.5t76 151.5h-180l-360 990z" />
    <glyph glyph-name="afii10086" unicode="&#x444;" horiz-adv-x="1885" 
d="M71 543q0 137 40 251.5t114.5 197.5t180 129.5t237.5 46.5q42 0 81 -7.5t71 -20.5l-6 152v195l-150 24v120l394 49h1l62 -47v-341l-7 -226q47 45 116 73.5t167 28.5q89 0 169.5 -32t141 -100t96 -175.5t35.5 -257.5q0 -137 -40 -251.5t-114.5 -197.5t-180 -129.5
t-237.5 -46.5q-42 0 -80.5 8t-69.5 21h-1l5 -122v-225l164 -27v-135h-630v135l159 27v225l6 193q-47 -45 -116 -72.5t-166 -27.5q-89 0 -169.5 32t-141 100t-96 175.5t-35.5 257.5zM405 579q-1 -116 15.5 -196t47 -130t73 -72t93.5 -22q48 0 90 11t65 32v773q-8 7 -20 17
t-28.5 19.5t-37.5 16t-46 6.5q-50 0 -95 -23t-79.5 -76.5t-55.5 -140.5t-22 -215zM1096 171q7 -7 19.5 -17.5t29 -20t37.5 -16t46 -6.5q49 0 94.5 23t80 76.5t55.5 141t22 215.5q1 116 -15.5 196t-47 129.5t-73 71.5t-93.5 22q-48 0 -90 -11t-65 -31v-773z" />
    <glyph glyph-name="afii10087" unicode="&#x445;" horiz-adv-x="1253" 
d="M24 0v119l120 24l313 436l-302 411l-110 28v128h599v-128l-131 -28l143 -202l65 -105l45 99l151 208l-132 28v128h438v-128l-117 -28l-291 -408l325 -440l106 -23v-119h-597v119l122 24l-158 237l-60 97l-45 -103l-151 -231l140 -24v-119h-473z" />
    <glyph glyph-name="afii10088" unicode="&#x446;" horiz-adv-x="1479" 
d="M92 0v129l133 27v834l-133 28v128h578v-128l-143 -29v-848h420v849l-143 28v128h575v-128l-130 -28v-849h14l4 5h194q0 -10 -4 -52.5t-9.5 -101t-13 -125t-14 -124.5t-12 -99t-7.5 -48h-177q-2 15 -6 48t-9 74.5t-11.5 86.5t-12.5 85t-12 69.5t-10 39.5v1h-1071z" />
    <glyph glyph-name="afii10089" unicode="&#x447;" horiz-adv-x="1451" 
d="M37 1018v128h562v-128l-127 -28v-113q0 -104 7 -169.5t27 -102.5t55.5 -50.5t93.5 -13.5q35 0 75.5 3t78 8t68.5 13t47 17v408l-151 28v128h585v-128l-132 -28v-831l135 -25v-134h-612v134l175 26v288q-73 -30 -168 -47.5t-224 -17.5q-98 0 -168.5 22t-116 73.5
t-67.5 136t-22 209.5v166z" />
    <glyph glyph-name="afii10090" unicode="&#x448;" horiz-adv-x="2127" 
d="M82 0v128l143 27v835l-143 28v128h588v-128l-147 -28v-846h393l1 846l-149 28v128h586v-128l-143 -28v-846h394v845l-147 29v128h585v-128l-141 -28v-836l157 -26v-128h-1977z" />
    <glyph glyph-name="afii10091" unicode="&#x449;" horiz-adv-x="2127" 
d="M82 0v128l143 27v835l-143 28v128h588v-128l-147 -28v-846h393l1 846l-149 28v128h586v-128l-143 -29v-845h394v845l-147 29v128h585v-128l-141 -28v-844h172q0 -10 -4 -52.5t-10 -101t-13 -125t-14 -124.5t-12.5 -99t-7.5 -48h-177q-2 15 -5.5 48t-9 74.5t-11.5 86.5
t-12 85t-12 69.5t-10 39.5v1h-1694z" />
    <glyph glyph-name="afii10092" unicode="&#x44a;" horiz-adv-x="1514" 
d="M54 662l1 484h747v-476q15 4 42.5 8.5t61.5 8.5t69.5 7t65.5 3q123 0 209.5 -22.5t140.5 -66.5t78.5 -108.5t24.5 -148.5q0 -100 -31 -170.5t-92 -114.5t-150.5 -64.5t-207.5 -20.5q-15 0 -44 1.5t-65 3.5t-76.5 4.5t-78 4.5t-69 3.5t-50.5 1.5h-384v134l255 20v858
l-220 -5l-51 -345h-176zM802 143q23 -7 62 -14t82 -7q127 0 182 53.5t55 156.5q0 60 -15 100.5t-44.5 65t-72.5 35t-99 10.5q-48 0 -87.5 -7t-62.5 -15v-378z" />
    <glyph glyph-name="afii10093" unicode="&#x44b;" horiz-adv-x="1933" 
d="M75 0v128l150 26v836l-145 26v130h621v-130l-174 -26v-320q14 4 41.5 8.5t60.5 8.5t68 7t65 3q123 0 209.5 -22.5t140.5 -66.5t78.5 -108.5t24.5 -148.5q0 -194 -121.5 -282t-355.5 -88q-15 0 -44 1.5t-65 3.5t-76 4.5t-77.5 4.5t-69.5 3.5t-51 1.5h-280zM527 140
q23 -7 55 -12.5t89 -5.5q124 0 178.5 53.5t54.5 156.5q0 60 -15 100.5t-44.5 65t-72.5 35t-99 10.5q-47 0 -85 -7t-61 -15v-381zM1265 1016v130h580v-130l-137 -22v-835l147 -25v-134h-586v134l130 25v830z" />
    <glyph glyph-name="afii10094" unicode="&#x44c;" horiz-adv-x="1234" 
d="M75 0v128l150 26v836l-145 26v130h621v-130l-174 -26v-320q14 4 41.5 8.5t60.5 8.5t68 7t65 3q123 0 209 -22.5t140 -66.5t78.5 -108.5t24.5 -148.5q0 -97 -30.5 -167t-90.5 -115t-149 -66.5t-206 -21.5q-15 0 -44 1.5t-65 3.5t-76.5 4.5t-78 4.5t-69.5 3.5t-51 1.5h-279
zM527 139q23 -7 55 -12t88 -5q125 0 179 53.5t54 156.5q0 60 -15 100.5t-44 65t-72 35t-100 10.5q-46 0 -84 -7t-61 -15v-382z" />
    <glyph glyph-name="afii10095" unicode="&#x44d;" horiz-adv-x="1085" 
d="M66 308h149l42 -151q34 -14 74 -22.5t87 -8.5q54 0 100 19t81 62.5t58 114t31 172.5q-25 -16 -55 -25.5t-65 -9.5q-50 0 -89 13t-73 28.5t-65.5 28.5t-66.5 13q-42 0 -67 -18t-47 -38l-62 80q11 27 31 54t48.5 48.5t65 35.5t81.5 14q49 0 88 -17t73 -38t65.5 -38
t66.5 -17q23 0 41 7.5t33 18.5q-3 91 -20.5 165t-48.5 126t-75 80.5t-100 28.5q-36 0 -61 -7.5t-43 -19.5t-31 -26.5t-23 -29.5l-39 -107h-171l-4 269q22 9 64.5 19t94.5 18.5t107.5 14t104.5 5.5q121 0 226 -41.5t182 -119.5t121.5 -189t43.5 -250q-1 -137 -40 -247
t-109.5 -187t-170.5 -118t-222 -41q-68 0 -128.5 9t-112.5 25t-93.5 37t-70.5 45z" />
    <glyph glyph-name="afii10096" unicode="&#x44e;" horiz-adv-x="1928" 
d="M91 0v134l134 25v831l-131 28v128h591v-128l-151 -28v-318h237q16 125 67 218.5t126 155t168.5 92t194.5 30.5q130 0 230 -40t168 -115.5t103 -184.5t35 -246q0 -156 -46.5 -270.5t-125 -188.5t-180.5 -110t-213 -36q-123 0 -219.5 36.5t-164 105.5t-105 168t-44.5 224
h-231v-352l160 -25v-134h-603zM1095 598q0 -235 51 -359t170 -124q55 0 95.5 25.5t67 79t39.5 136.5t13 197q0 234 -50 355.5t-169 121.5q-55 0 -96 -24.5t-68 -77t-40 -134.5t-13 -196z" />
    <glyph glyph-name="afii10097" unicode="&#x44f;" horiz-adv-x="1360" 
d="M17 0v134l76 25q31 7 57 26.5t48 46t41 58t37 64t36 62.5t38 54q-123 38 -179 124t-56 211q0 82 36 147.5t102.5 111.5t161 70.5t212.5 24.5q46 0 110.5 -2t130 -4.5t123 -4.5t89.5 -2h193v-130l-139 -26v-831l145 -25v-134h-605v134l159 25v283l-225 1q-26 -30 -47 -75
t-39.5 -94t-35 -98t-34 -88t-36.5 -63.5t-42 -24.5h-357zM441 840q0 -51 11.5 -96.5t39 -80.5t72.5 -55.5t111 -20.5h40.5h45h42t30.5 1v424q-22 2 -60 7t-108 5q-39 0 -79 -6.5t-72.5 -26t-52.5 -55.5t-20 -96z" />
    <glyph glyph-name="uni0450" unicode="&#x450;" horiz-adv-x="1126" 
d="M70 569q0 139 39.5 250t111.5 188.5t173 118.5t224 41q415 0 433 -405q2 -69 -0.5 -124.5t-10.5 -93.5h-652q5 -99 29 -169t63 -114t92.5 -64t117.5 -20q50 0 94 8t81.5 20t67.5 27t53 29l52 -121q-25 -26 -69.5 -54.5t-102 -52.5t-124 -40t-135.5 -16q-141 0 -242.5 44
t-167 122.5t-96.5 187.5t-31 238zM244 1663l189 173h1l351 -429l-113 -98h-1q-27 10 -64.5 32t-79.5 51.5t-85.5 65t-82 71.5t-69 70.5t-46.5 63.5zM387 679h358q0 5 0.5 14t1 19t0.5 18.5v13.5q0 51 -7 103t-25.5 93t-51 67t-83.5 26q-38 0 -71.5 -14.5t-59 -53.5t-42 -108
t-20.5 -178z" />
    <glyph glyph-name="afii10071" unicode="&#x451;" horiz-adv-x="1126" 
d="M70 569q0 139 39.5 250t111.5 188.5t173 118.5t224 41q415 0 433 -405q2 -69 -0.5 -124.5t-10.5 -93.5h-652q5 -99 29 -169t63 -114t92.5 -64t117.5 -20q50 0 94 8t81.5 20t67.5 27t53 29l52 -121q-25 -26 -69.5 -54.5t-102 -52.5t-124 -40t-135.5 -16q-141 0 -242.5 44
t-167 122.5t-96.5 187.5t-31 238zM176 1495q0 39 10.5 73.5t32 60.5t54 41t76.5 15h1q40 0 70 -13.5t49.5 -36t29.5 -51.5t10 -61q0 -40 -11 -74.5t-34 -60t-58 -40t-83 -14.5h-1q-35 0 -62.5 13t-46 34.5t-28 51t-9.5 62.5zM387 679h358q0 5 0.5 14t1 19t0.5 18.5v13.5
q0 51 -7 103t-25.5 93t-51 67t-83.5 26q-38 0 -71.5 -14.5t-59 -53.5t-42 -108t-20.5 -178zM686 1495q0 39 10.5 73.5t32.5 60.5t54 41t76 15h1q40 0 70 -13.5t50 -36t29.5 -51.5t9.5 -61q0 -40 -11 -74.5t-33.5 -60t-58 -40t-83.5 -14.5h-1q-35 0 -62 13t-46 34.5t-28.5 51
t-9.5 62.5z" />
    <glyph glyph-name="afii10099" unicode="&#x452;" horiz-adv-x="1362" 
d="M-8 1268v142h202v108l-150 25v119l391 49h4l60 -47l1 -254h284v-142h-284l1 -106l-22 -154q34 31 79 59.5t96 50t106.5 34t109.5 12.5q99 0 163 -27t101.5 -82.5t52.5 -140t15 -199.5v-693q0 -128 -26 -229.5t-78 -173t-130.5 -110.5t-182.5 -42h-22.5t-34.5 0.5
t-33.5 2.5t-19.5 5l-10 135q8 -1 21.5 0.5t29.5 5t31 8t26 8.5q43 15 67 54.5t36 95.5t14 124t2 140v673q0 66 -6 114t-24 79.5t-50.5 47t-84.5 15.5q-60 0 -117.5 -22.5t-107.5 -60.5v-739l134 -23v-130h-564v134l122 20v1114h-202z" />
    <glyph glyph-name="afii10100" unicode="&#x453;" horiz-adv-x="1060" 
d="M83 0v134l146 20v835l-142 29v128h931l10 -455h-188l-64 303l-245 18v-858l268 -20v-134h-716zM273 1407l351 429h1l188 -173q-16 -29 -46.5 -63.5t-69 -70.5t-82 -71.5t-85.5 -65t-79.5 -51.5t-64.5 -32h-2z" />
    <glyph glyph-name="afii10101" unicode="&#x454;" horiz-adv-x="1078" 
d="M66 577q-1 129 45.5 238t126 188t186.5 123t228 44q49 0 102.5 -5.5t102.5 -14t89.5 -18.5t63.5 -19l-5 -269h-170l-42 107q-11 15 -23 29.5t-30 26.5t-42.5 19.5t-60.5 7.5q-108 0 -169.5 -91t-72.5 -263q26 18 57 29.5t66 11.5q50 0 89 -13t72.5 -28.5t65.5 -28.5
t67 -13q42 0 66.5 17.5t47.5 38.5l62 -80q-9 -27 -27.5 -54t-46.5 -49t-66 -35.5t-86 -13.5q-49 0 -88 17t-73 37.5t-66 37.5t-66 17q-23 0 -41.5 -7.5t-33.5 -18.5q4 -111 26 -190.5t58 -130t84 -74.5t105 -24q47 0 86.5 8.5t73.5 22.5l43 151h149l-6 -215
q-29 -24 -70.5 -45t-93.5 -37t-112.5 -25t-128.5 -9q-135 0 -236.5 42.5t-169 120.5t-101.5 189t-35 248z" />
    <glyph glyph-name="afii10102" unicode="&#x455;" horiz-adv-x="1075" 
d="M109 832q0 70 29.5 131t87.5 105.5t144 70t199 25.5q66 0 117.5 -8t93.5 -18.5t77 -22t68 -17.5v-276l-174 3l-47 133q-14 23 -53 44.5t-99 22.5q-45 0 -75.5 -10t-49 -27t-26.5 -37.5t-8 -41.5q0 -52 27 -85.5t68 -56.5t90 -40.5t93 -37.5q66 -29 126 -61.5t106.5 -75.5
t74 -99.5t27.5 -134.5q0 -73 -28.5 -135.5t-86 -108t-144 -71.5t-202.5 -26q-79 0 -144.5 11t-119 25.5t-95.5 29t-73 21.5v281h184l52 -156q9 -13 27.5 -26t44 -23t57.5 -16.5t67 -6.5q49 0 81 12t51 30.5t26 41.5t7 46q0 42 -21.5 72.5t-61 56t-95.5 49t-124 52.5
q-69 28 -124 62.5t-93.5 77.5t-59.5 96t-21 119z" />
    <glyph glyph-name="afii10103" unicode="&#x456;" horiz-adv-x="735" 
d="M82 0v134l146 19v770l-135 43v150l367 49h5l73 -43v-968l145 -20v-134h-601zM202 1495q0 39 10.5 73.5t32.5 60.5t54 41t76 15h1q40 0 70 -13.5t50 -36t29.5 -51.5t9.5 -61q0 -40 -11 -74.5t-33.5 -60t-58 -40t-83.5 -14.5h-1q-35 0 -62.5 13t-46 34.5t-28 51t-9.5 62.5z
" />
    <glyph glyph-name="afii10104" unicode="&#x457;" horiz-adv-x="735" 
d="M-70 1495q0 39 10.5 73.5t32 60.5t54 41t76.5 15h1q40 0 70 -13.5t49.5 -36t29.5 -51.5t10 -61q0 -40 -11 -74.5t-34 -60t-58 -40t-83 -14.5h-1q-35 0 -62.5 13t-46 34.5t-28 51t-9.5 62.5zM82 0v134l146 19v770l-135 43v150l367 49h5l73 -43v-968l145 -20v-134h-601z
M440 1495q0 39 10.5 73.5t32.5 60.5t54 41t76 15h1q40 0 70 -13.5t50 -36t29.5 -51.5t9.5 -61q0 -40 -11 -74.5t-33.5 -60t-58 -40t-83.5 -14.5h-1q-35 0 -62 13t-46 34.5t-28.5 51t-9.5 62.5z" />
    <glyph glyph-name="afii10105" unicode="&#x458;" horiz-adv-x="700" 
d="M-5 -352q7 -1 19 0.5t25.5 4.5t28.5 7.5t28 10.5q43 18 70 53.5t42 87.5t20 119t5 148l-1 840l-136 42l1 155l365 49h5l71 -43v-1100q0 -128 -34 -224t-90 -160.5t-129.5 -98.5t-152.5 -37q-11 0 -29 0.5t-36.5 1.5t-34.5 2.5t-22 3.5zM202 1495q0 39 10.5 73.5
t32.5 60.5t54 41t76 15h1q40 0 70 -13.5t50 -36t29.5 -51.5t9.5 -61q0 -40 -11 -74.5t-33.5 -60t-58 -40t-83.5 -14.5h-1q-35 0 -62.5 13t-46 34.5t-28 51t-9.5 62.5z" />
    <glyph glyph-name="afii10106" unicode="&#x459;" horiz-adv-x="1813" 
d="M5 8l23 220q5 -3 26 -8.5t46.5 -11.5t49.5 -10t34 -4q37 0 69.5 64.5t56.5 174t37.5 253.5t13.5 304l-187 28v128h1110v-136l-178 -33v-307q15 4 42 8.5t60 8.5t67.5 7t64.5 3q123 0 209.5 -22.5t140.5 -66.5t78.5 -108.5t24.5 -148.5q0 -194 -113.5 -282t-346.5 -88
q-15 0 -44 1.5t-65 3.5t-76 4.5t-77.5 4.5t-69.5 3.5t-51 1.5h-303v134l150 20v842h-285v-105q0 -135 -11 -255.5t-29 -219.5t-41 -172.5t-46 -115.5q-14 -30 -34 -56.5t-47 -46t-62 -30.5t-78 -11q-17 0 -42 2.5t-50 6t-44 8t-23 7.5zM1106 139q23 -7 55 -12t88 -5
q124 0 178.5 53.5t54.5 156.5q0 60 -15 100.5t-44.5 65t-72.5 35t-99 10.5q-47 0 -84.5 -7t-60.5 -15v-382z" />
    <glyph glyph-name="afii10107" unicode="&#x45a;" horiz-adv-x="2016" 
d="M90 0v134l135 19v837l-135 28v128h583v-128l-146 -29v-322h481l-1 323l-146 28v128h580v-128l-133 -29v-319q14 4 41.5 8.5t61 8.5t68.5 7t65 3q123 0 209 -22.5t140 -66.5t78.5 -108.5t24.5 -148.5q0 -194 -121.5 -282t-355.5 -88q-15 0 -44 1.5t-65 3.5t-76 4.5
t-77.5 4.5t-69.5 3.5t-51 1.5h-278v134l149 20l1 368h-481v-367l149 -21v-134h-586zM1308 140q23 -7 55.5 -12.5t88.5 -5.5q125 0 179 53.5t54 156.5q0 60 -15 100.5t-44 65t-72 35t-100 10.5q-47 0 -85 -7t-61 -15v-381z" />
    <glyph glyph-name="afii10108" unicode="&#x45b;" horiz-adv-x="1392" 
d="M44 1514v117l389 49h5l61 -47l1 -237h241v-130h-241l1 -104l-16 -159q27 25 67.5 53t91.5 51.5t111.5 39t127.5 15.5q97 0 161.5 -27t102 -83t53 -141.5t15.5 -202.5v-554l141 -20v-134h-560v130l111 22v559q0 69 -7 119.5t-26.5 82.5t-54 47.5t-88.5 15.5q-31 0 -64 -7
t-64 -17.5t-57.5 -24.5t-44.5 -27v-746l137 -20v-134h-567v134l123 20v1112h-144v130h144v93z" />
    <glyph glyph-name="afii10109" unicode="&#x45c;" horiz-adv-x="1364" 
d="M91 0v134l134 20v835l-131 29v128h575v-128l-144 -29v-330h200l207 332l-143 27v128h538v-128l-161 -28l-267 -358q49 -25 90 -67.5t75.5 -92.5t63.5 -102.5t55.5 -96.5t50.5 -75t48 -39l93 -25v-134h-304q-45 0 -82.5 39t-71 98t-66.5 127t-69 127t-78.5 98t-94.5 39
h-84v-374l164 -20v-134h-598zM470 1407l351 429h1l188 -173q-16 -29 -46.5 -63.5t-69 -70.5t-82 -71.5t-85.5 -65t-79.5 -51.5t-64.5 -32h-2z" />
    <glyph glyph-name="uni045D" unicode="&#x45d;" horiz-adv-x="1590" 
d="M91 0v134l134 20v835l-131 30v127h581v-128l-147 -28v-708l107 190l476 674h384v-128l-130 -28v-837l139 -20v-133h-587v133l145 27v711l-95 -170l-490 -701h-386zM522 1663l189 173h1l351 -429l-113 -98h-1q-27 10 -64.5 32t-79.5 51.5t-85.5 65t-82 71.5t-69 70.5
t-46.5 63.5z" />
    <glyph glyph-name="afii10110" unicode="&#x45e;" horiz-adv-x="1228" 
d="M-9 1018v128h579v-128l-151 -29l191 -592l78 -272l68 272l152 592l-130 29v128h442v-128l-92 -28q-29 -91 -61.5 -196.5t-65.5 -213t-65 -209.5t-58 -186t-45.5 -143t-28.5 -80q-42 -116 -91.5 -204t-108 -147.5t-128 -90t-151.5 -30.5q-20 0 -44 1t-47 3t-41.5 4.5
t-26.5 5.5v245q15 -7 59.5 -16.5t104.5 -9.5q30 0 65.5 7t73.5 35t77 83.5t76 151.5h-180l-360 990zM225 1678q0 8 0.5 25t1.5 25h207q12 0 19 -9.5t10.5 -24t5 -31t1.5 -31.5q0 -37 10 -71.5t31.5 -61t54.5 -42.5t79 -16t78.5 16t53 42.5t30 61t9.5 71.5q0 15 1.5 31.5
t5 31t10.5 24t19 9.5h207q1 -8 1.5 -25t0.5 -25q0 -82 -27.5 -149.5t-80.5 -116t-131 -75t-178 -26.5q-98 0 -175.5 27t-131.5 75.5t-83 116t-29 148.5z" />
    <glyph glyph-name="afii10193" unicode="&#x45f;" horiz-adv-x="1470" 
d="M92 0v129l133 27v834l-133 28v128h576v-128l-141 -28v-854h416v854l-141 28v128h573v-128l-130 -28v-834l137 -28v-128h-491q-4 -4 -9 -28.5t-11 -60.5t-11.5 -79t-10 -85t-7.5 -79t-3 -60h-184q0 23 -4 60t-10 79t-13.5 85t-15 79t-13.5 60.5t-10 28.5h-497z" />
    <glyph glyph-name="afii10146" unicode="&#x462;" horiz-adv-x="1607" 
d="M-14 850l27 345h473v200l-161 34v127h653l-1 -127l-176 -36v-198h546l29 -345h-186l-66 176l-322 28h-1v-341q17 4 45.5 8t62.5 7.5t71.5 6t73.5 2.5q259 0 389.5 -91t130.5 -258q0 -98 -39 -173.5t-109.5 -126.5t-168 -77.5t-213.5 -26.5q-12 0 -40 1t-64 3t-77 4t-80 4
t-73 3t-55 1h-333v137l164 18v899l-247 -28l-65 -176h-188zM801 143q27 -8 60.5 -13.5t93.5 -5.5q78 0 133 18.5t90 51t51 77.5t16 98q0 63 -18.5 105.5t-54 68.5t-88 37t-120.5 11q-56 0 -94 -2.5t-69 -7.5v-438z" />
    <glyph glyph-name="afii10194" unicode="&#x463;" horiz-adv-x="1509" 
d="M54 799l10 347h431v341l-150 24v120l390 49h3l63 -47v-487h449l10 -347h-181l-65 220l-213 -1v-348q14 4 43 8.5t63.5 8.5t71 7t66.5 3q123 0 208 -22.5t137.5 -66.5t75.5 -108.5t23 -148.5q0 -194 -113 -282t-347 -88q-15 0 -44 1.5t-65 3.5t-76 4.5t-77.5 4.5
t-69.5 3.5t-51 1.5h-299v128l148 26v864l-200 1l-61 -220h-180zM801 139q23 -7 55.5 -12t88.5 -5q125 0 179 53.5t54 156.5q0 60 -13.5 100.5t-41 65t-69.5 35t-98 10.5q-47 0 -89.5 -7t-65.5 -15v-382z" />
    <glyph glyph-name="afii10147" unicode="&#x472;" horiz-adv-x="1498" 
d="M56 744q0 181 51 328t144.5 251.5t224.5 161t291 56.5q176 0 303.5 -53.5t210 -153.5t122 -241.5t39.5 -317.5q0 -181 -51 -328t-143.5 -251t-222 -161t-287.5 -58q-174 -2 -302.5 52t-212.5 154t-125.5 242.5t-41.5 318.5zM402 670q5 -147 31.5 -252t71 -172.5t106 -99
t137.5 -31.5t139 38t108 114t71 190.5t29 267.5q-35 -36 -84 -62t-111 -26q-54 0 -101 18t-89.5 39t-81.5 39t-76 18q-26 0 -48 -8.5t-40.5 -21t-34 -26.5t-27.5 -25zM403 839q35 35 82 59.5t107 24.5q54 0 101 -17.5t89 -39t81 -39t77 -17.5q26 0 48.5 8t41 20t34.5 26
t28 25q-8 135 -35 232t-71 160t-103.5 93t-132.5 30q-74 0 -135 -35t-105.5 -105t-72 -176.5t-34.5 -248.5z" />
    <glyph glyph-name="afii10195" unicode="&#x473;" horiz-adv-x="1232" 
d="M65 566q0 152 47 265t125 188t180.5 112t213.5 37q130 0 230 -40.5t168 -116.5t103 -185t35 -247q0 -156 -47 -270t-125 -187.5t-180 -109t-213 -35.5q-130 0 -230 40.5t-168.5 116.5t-103.5 185t-35 247zM400 518q8 -198 59 -300.5t160 -102.5q47 0 83 17.5t61.5 54.5
t41.5 95t22 138q-20 -10 -43 -15.5t-49 -5.5q-33 0 -59 10t-48 25t-41.5 33t-39 33t-40 25t-45.5 10q-19 0 -34 -4.5t-28 -12.5zM401 686q25 14 53.5 23t61.5 9t59 -10t47.5 -25t40.5 -33t37.5 -33t38.5 -25t43 -10q27 0 49 10q-2 106 -14.5 188t-38.5 137.5t-66 84
t-97 28.5q-99 0 -151.5 -81.5t-62.5 -262.5z" />
    <glyph glyph-name="afii10148" unicode="&#x474;" horiz-adv-x="1409" 
d="M-39 1387v135h639v-135l-176 -31l280 -845l69 -249l55 251l215 759q16 73 46 123.5t72.5 81t98 44t122.5 13.5q29 0 49 -2.5t33.5 -6t22 -7.5t14.5 -7v-162h-7q-48 -1 -89 -12t-75 -39t-62.5 -77.5t-50.5 -126.5l-371 -1109h-255l-503 1372z" />
    <glyph glyph-name="afii10196" unicode="&#x475;" horiz-adv-x="1185" 
d="M-11 1036v110h554v-110l-141 -27l181 -567l74 -240l63 235l146 496q19 61 40 104t48.5 69t62.5 38t81 12q52 0 78.5 -6t43.5 -13v-135q-14 0 -31 -5t-36 -17q-31 -20 -62 -65t-57 -130l-286 -800h-276l-388 1024z" />
    <glyph glyph-name="uni048A" unicode="&#x48a;" horiz-adv-x="1745" 
d="M86 0v137l163 28v1192l-160 31v134h650v-134l-175 -30v-921l104 191l528 694v36l-162 30v134h637v-134l-160 -30v-1193h1h168v-165l-26 -52t-38 -75.5t-43.5 -86t-43 -83.5t-36 -67.5t-22.5 -38.5h-180q9 23 22 58.5t27 76.5t28.5 83.5t27 79.5t21.5 65t12 40h-398v137
l165 28v935l-100 -199l-532 -677v-59l171 -28v-137h-649zM453 1946v13.5t0.5 20.5t1 20.5t0.5 13.5h213q12 0 19 -9.5t10.5 -24t5 -31.5t1.5 -32q0 -64 41 -96t128 -32q170 0 170 128q0 15 1.5 32t5 31.5t10.5 24t19 9.5h212q0 -4 0.5 -13.5t1 -20.5t0.5 -20.5v-13.5
q0 -78 -29 -131t-83 -85.5t-132 -47t-177 -14.5q-95 0 -172.5 14.5t-132.5 47.5t-84.5 86t-29.5 130z" />
    <glyph glyph-name="uni048B" unicode="&#x48b;" horiz-adv-x="1590" 
d="M91 0v134l134 20v835l-131 30v127h581v-128l-147 -28v-708l107 190l476 674h384v-128l-130 -28v-829h145v-161q-9 -18 -24.5 -52t-34 -75.5t-39 -86t-39 -83.5t-32.5 -67.5t-21 -38.5h-179q8 22 19 55.5t22.5 73t23 81t21.5 79t18 68t13 46.5h-341v133l145 27v711
l-95 -170l-490 -701h-386zM390 1678q0 8 0.5 25t1.5 25h207q12 0 19 -9.5t10.5 -24t5 -31t1.5 -31.5q0 -37 10 -71.5t31.5 -61t54.5 -42.5t79 -16t78.5 16t53 42.5t30 61t9.5 71.5q0 15 1.5 31.5t5 31t10.5 24t19 9.5h207q1 -8 1.5 -25t0.5 -25q0 -82 -27.5 -149.5
t-80.5 -116t-131 -75t-178 -26.5q-98 0 -175.5 27t-131.5 75.5t-83 116t-29 148.5z" />
    <glyph glyph-name="uni048C" unicode="&#x48c;" horiz-adv-x="1387" 
d="M56 1057v147h193v156l-161 34v128h687v-128l-210 -36v-154h228v-147h-228v-178q17 4 45.5 8t62.5 7.5t71.5 6t73.5 2.5q121 0 217.5 -29.5t163.5 -85.5t102.5 -137t35.5 -184q0 -117 -39 -207.5t-109.5 -151.5t-168 -92.5t-213.5 -31.5q-12 0 -40 1t-64 3t-77 4t-80 4
t-73 3t-55 1h-333v137l164 18v902h-193zM565 143q27 -8 60.5 -13.5t93.5 -5.5q78 0 133 24t90 67.5t51 102.5t16 130q0 162 -72.5 234t-208.5 72q-56 0 -94 -2t-69 -8v-601z" />
    <glyph glyph-name="uni048D" unicode="&#x48d;" horiz-adv-x="1207" 
d="M10 1000v147h184v340l-150 24v120l389 49h4l62 -47v-486h220v-147h-220v-332l1 2q14 4 41.5 8.5t60.5 8.5t68 7t65 3q123 0 209 -22.5t140 -66.5t78.5 -108.5t24.5 -148.5q0 -194 -113 -282t-346 -88q-15 0 -44 1.5t-65.5 3.5t-76.5 4.5t-77.5 4.5t-69.5 3.5t-51 1.5
h-299v128l149 26v846h-184zM499 140q23 -7 55.5 -12.5t88.5 -5.5q125 0 179 53.5t54 156.5q0 60 -15 100.5t-44 65t-72 35t-100 10.5q-46 0 -84 -7t-61 -15h-1v-381z" />
    <glyph glyph-name="uni048E" unicode="&#x48e;" horiz-adv-x="1366" 
d="M85 0v137l164 26v1194l-157 31v134h317q47 0 86 2t79 4.5t87 4t110 1.5q154 -1 260 -29t171 -83.5t93.5 -139t28.5 -195.5q0 -184 -82.5 -306t-233.5 -180l143 -218l-101 -68l-165 252q-83 -15 -177 -15q-24 0 -47.5 1t-43 2.5t-33.5 3t-20 2.5l-1 -397l280 -27v-137
h-758zM563 700q25 -6 57 -7.5t86 -1.5q48 0 90 13l-106 164l101 67l108 -166q42 46 67.5 122t25.5 193q0 319 -283 319q-27 0 -48 -1.5t-38.5 -3.5t-31.5 -4t-28 -3v-691z" />
    <glyph glyph-name="uni048F" unicode="&#x48f;" horiz-adv-x="1340" 
d="M64 -369l150 25v1267l-136 42v151l358 49h5l51 -43v-106q25 29 59 56.5t76 48.5t92 34t108 13q92 0 172.5 -31t140.5 -98.5t94.5 -174.5t34.5 -258q0 -80 -14.5 -153.5t-43 -138.5t-70 -120t-94.5 -97l152 -177l-110 -92l-167 195q-109 -46 -241 -46q-50 0 -96.5 7
t-69.5 12l6 -166v-174l198 -25v-127h-655v127zM521 159q17 -19 55 -33.5t92 -14.5q38 0 73 11t65 36l-146 171l109 91l121 -141q21 53 33 124.5t14 166.5q1 113 -15 192t-47 129t-75.5 72.5t-99.5 22.5q-60 0 -107 -21.5t-72 -48.5v-757z" />
    <glyph glyph-name="afii10050" unicode="&#x490;" horiz-adv-x="1169" 
d="M16 0v136l233 30v1184l-218 40v132h848l64 359h188l-21 -528l-541 24v-1212l320 -29v-136h-873z" />
    <glyph glyph-name="afii10098" unicode="&#x491;" horiz-adv-x="1018" 
d="M84 0v134l146 25v831l-142 28v128h659l41 316h191l12 -462l-460 6v-847l268 -25v-134h-715z" />
    <glyph glyph-name="uni0492" unicode="&#x492;" horiz-adv-x="1179" 
d="M16 0v136l233 30v473h-181v147h181v564l-218 40v132h1091l23 -589h-188l-72 422l-316 21v-590h283v-147h-283v-474l320 -29v-136h-873z" />
    <glyph glyph-name="uni0493" unicode="&#x493;" horiz-adv-x="1060" 
d="M57 394v147h715v-147h-715zM83 0v134l146 20v835l-142 29v128h931l10 -455h-188l-64 303l-245 18v-858l268 -20v-134h-716z" />
    <glyph glyph-name="uni0494" unicode="&#x494;" horiz-adv-x="1482" 
d="M16 0v136l233 30v1184l-218 40v132h1091l23 -457h-188l-72 290l-316 21v-574q33 19 75.5 33.5t87 24.5t87.5 15t78 5q130 0 222 -31t149.5 -96.5t84 -166.5t26.5 -240q0 -173 -27.5 -313.5t-87.5 -240.5t-154 -154.5t-226 -54.5q-21 0 -43.5 1.5t-45 4.5t-42 7t-34.5 9
l-18 148q42 -6 136 -6q67 0 110.5 39.5t69.5 112.5t36.5 176.5t10.5 231.5q0 78 -11.5 149.5t-39 126t-74.5 86.5t-117 32q-46 0 -82 -3.5t-65.5 -10t-55 -16t-50.5 -21.5v-485l303 -29v-136h-856z" />
    <glyph glyph-name="uni0495" unicode="&#x495;" horiz-adv-x="1319" 
d="M76 1018v128h942l10 -415h-187l-64 263l-246 18v-492q25 19 56 33t63.5 23t66 13.5t64.5 4.5q130 0 223 -24.5t152 -77t87 -134.5t28 -197q0 -162 -25.5 -288t-81.5 -212.5t-145 -131.5t-215 -45q-21 0 -43.5 1.5t-45 4.5t-42 7t-34.5 9l-18 147q21 -3 49.5 -5t74.5 -2
q62 0 103 26t66 84t35 152t10 231q0 72 -12 125t-40.5 87.5t-75.5 51t-116 16.5q-60 0 -104.5 -13.5t-79.5 -37.5v-214l228 -20v-134h-675v134l146 20v835z" />
    <glyph glyph-name="uni0496" unicode="&#x496;" horiz-adv-x="2166" 
d="M-11 0v137l94 28q25 9 56 54t67.5 109.5t79 140t89.5 145.5t99 125.5t108 79.5l-374 538l-172 31v134h555v-134l-147 -32l320 -521h168v523l-163 30v134h630v-134l-162 -30v-523h167l320 520l-146 33v134h555v-134l-172 -30l-374 -539q56 -24 108 -79.5t99 -125.5
t89 -145.5t78.5 -140t67.5 -109.5t56 -54h114q0 -21 -3 -67.5t-8 -105.5t-11.5 -123t-12.5 -120t-12 -97.5t-9 -54.5h-177q0 38 -1.5 94.5t-6.5 115t-15 111t-27 82.5h-63q-36 0 -70.5 30.5t-68.5 80.5t-66.5 113.5t-65.5 130.5t-66 130.5t-66.5 113.5t-68.5 80.5t-71 30.5
h-73v-545l173 -30v-135h-652v137l174 28v545h-74q-36 0 -71 -30.5t-68.5 -80.5t-66.5 -113.5t-66 -130.5t-65.5 -130.5t-66.5 -113.5t-68.5 -80.5t-70.5 -30.5h-326z" />
    <glyph glyph-name="uni0497" unicode="&#x497;" horiz-adv-x="1968" 
d="M-14 3v134l93 25q24 8 48 39t50 75t55 96.5t63.5 102.5t75.5 92.5t90 67.5l-263 355l-161 28v128h538v-128l-144 -27l205 -329h196v327l-132 29v128h579v-128l-143 -29v-330h193l206 331l-143 28v128h539v-128l-162 -29l-265 -357q50 -24 90.5 -66.5t75.5 -92.5
t64 -102.5t55.5 -97t50.5 -75.5t49 -39l3 -1h117q0 -21 -3.5 -68.5t-9 -107t-12 -124t-12.5 -120t-10.5 -94.5t-6.5 -48h-177q0 39 -1.5 95.5t-5.5 115t-10 111t-15 82.5h-69q-45 0 -82.5 39t-71 98t-66.5 127t-69 127t-78.5 98t-94.5 39h-79v-369l156 -25v-134h-595v134
l135 25v371h-80q-39 0 -72.5 -22.5t-63 -59.5t-55.5 -84.5t-51 -97t-49.5 -97t-51.5 -84.5t-56 -59.5t-63 -22.5h-304z" />
    <glyph glyph-name="uni0498" unicode="&#x498;" horiz-adv-x="1258" 
d="M80 77l38 383h147l82 -275q18 -14 40 -25t49 -19.5t61 -13t77 -4.5q128 0 195.5 74.5t67.5 228.5q0 63 -10.5 116.5t-42 93t-88 62t-147.5 22.5h-140v152h115q49 0 95.5 15.5t82.5 50.5t57.5 91.5t21.5 138.5q0 63 -15.5 107.5t-43 73t-65.5 41.5t-84 13q-45 0 -78.5 -7
t-57 -19.5t-37.5 -29t-21 -34.5l-48 -165h-178l-27 323q32 2 85 12.5t114.5 22.5t127 22t123.5 10q267 0 401.5 -83.5t134.5 -260.5q0 -88 -31.5 -154.5t-82.5 -113.5t-116 -75.5t-133 -41.5q121 -2 206.5 -32t140.5 -79.5t80.5 -114t25.5 -136.5q0 -94 -27 -171.5
t-86.5 -135t-155 -94.5t-231.5 -50q18 -18 41 -49.5t43 -71t33 -85t10 -92.5q-3 -64 -23.5 -106.5t-57.5 -68t-90 -36.5t-120 -11h-1q-17 0 -37 2t-39.5 6t-37 9t-30.5 11l1 188q21 -7 46 -10t36 -3h1q33 0 58.5 4t43 18t26 42t8.5 75q0 22 -5 46t-12.5 47t-16 43t-16.5 35
q-6 0 -12 -0.5t-12 -0.5q-66 0 -136 9.5t-133 23t-113 29t-77 27.5z" />
    <glyph glyph-name="uni0499" unicode="&#x499;" horiz-adv-x="1099" 
d="M62 60l27 268h196l37 -146q10 -15 29.5 -27t43.5 -21t52 -13.5t56 -4.5q58 0 99 17t66.5 45.5t37.5 66.5t12 80t-9 78.5t-32 62.5t-61.5 41t-98.5 15q-7 0 -23 -2t-34 -5t-35.5 -6.5l-27.5 -5.5l11 163l64 9q97 14 148 66.5t51 132.5q0 36 -8 64.5t-28 49t-53.5 31.5
t-85.5 11q-40 0 -71 -8t-54 -20t-37.5 -27t-20.5 -30l-32 -142h-189v303q52 0 97.5 8.5t96.5 19t111.5 19t142.5 8.5q227 0 338 -67t111 -197q0 -41 -14.5 -80.5t-42.5 -74.5t-69 -65t-94 -51q69 -11 123 -36t91 -61.5t56.5 -83t20.5 -99.5q1 -75 -26 -137t-80.5 -108
t-134 -75t-186.5 -38q18 -20 40 -51t40.5 -69t30.5 -81.5t9 -88.5q-3 -64 -23.5 -106.5t-57.5 -68t-90 -36.5t-120 -11h-1q-17 0 -37 2t-39.5 6t-37 9t-30.5 11l1 188q21 -7 46 -10t36 -3h1q33 0 58.5 4t43 18t26 42t8.5 75q0 21 -4.5 44.5t-12 46t-16 42t-15.5 34.5
q-82 3 -150.5 12.5t-122.5 21t-92.5 23t-61.5 18.5z" />
    <glyph glyph-name="uni049A" unicode="&#x49a;" horiz-adv-x="1494" 
d="M87 0v137l162 28l1 1193l-163 30v134h629v-134l-154 -30v-523h168l323 520l-151 33v134h556v-134l-171 -30l-375 -539q56 -24 107.5 -79.5t98.5 -125.5t89.5 -145.5t79 -140t67.5 -109.5t56 -54h118q0 -7 -2 -34.5t-6 -67t-8.5 -88t-10 -98.5t-10.5 -98.5t-9.5 -87
t-8 -64.5t-5.5 -31h-178q-2 14 -5 45.5t-7 71.5t-9.5 84.5t-10.5 84.5t-10.5 71.5t-9.5 46.5h-60q-36 0 -70.5 30.5t-68 80.5t-66.5 113.5t-65.5 130.5t-65.5 130.5t-67 113.5t-68.5 80.5t-70.5 30.5h-74v-545l172 -30v-135h-647z" />
    <glyph glyph-name="uni049B" unicode="&#x49b;" horiz-adv-x="1364" 
d="M91 0v134l134 20v835l-131 29v128h575v-128l-144 -29v-330h200l207 332l-143 27v128h538v-128l-161 -28l-267 -358q49 -25 89.5 -67t75 -91.5t63.5 -101t55 -96t49.5 -76t47.5 -40.5h136q0 -10 -4 -53t-9.5 -103t-13 -128t-14 -127t-12 -101t-7.5 -49h-177q-1 14 -5 46.5
t-9 73t-11 85t-12.5 84.5t-12 70t-9.5 42h-48q-45 0 -82.5 39t-71 98t-66.5 127t-69 127t-78.5 98t-94.5 39h-84v-374l164 -20v-134h-598z" />
    <glyph glyph-name="uni049C" unicode="&#x49c;" horiz-adv-x="1610" 
d="M87 0v137l162 28l1 1193l-163 30v134h629v-134l-154 -30v-516h104v293h141v-293h38l306 513l-153 33v134h556v-134l-169 -30l-360 -537q56 -28 110 -84.5t103.5 -126.5t94.5 -145t84.5 -139t71.5 -108t57 -53l94 -28v-137h-314q-45 0 -89 44.5t-87.5 113.5t-86 151.5
t-85 159.5t-85 137.5t-86.5 84.5v-320h-141v333h-104v-539l172 -30v-135h-647z" />
    <glyph glyph-name="uni049D" unicode="&#x49d;" horiz-adv-x="1477" 
d="M91 0v134l134 20v836l-131 28v128h589v-128l-151 -24v-335h103v228h161v-228h42l207 332l-143 27v128h538v-128l-162 -28l-271 -365q49 -28 91 -74.5t79 -100t69 -108.5t61 -100.5t55.5 -77t53.5 -36.5l98 -28v-100h-315q-40 0 -74 30.5t-65.5 79t-61.5 107.5t-61.5 115
t-66 103t-74.5 72v-235h-161v256h-103v-374l160 -20v-134h-601z" />
    <glyph glyph-name="uni049E" unicode="&#x49e;" horiz-adv-x="1490" 
d="M87 0v137l162 28v895h-158v136h158l1 162l-163 30v134h629v-134l-154 -30v-162h164v-136h-164v-225h168l323 520l-151 33v134h556v-134l-171 -30l-375 -539q56 -24 107.5 -79.5t98.5 -125.5t89.5 -145.5t79 -140t67.5 -109.5t56 -54l94 -28v-137h-326q-36 0 -70.5 30.5
t-68 80.5t-66.5 113.5t-65.5 130.5t-65.5 130.5t-67 113.5t-68.5 80.5t-70.5 30.5h-74v-545l172 -30v-135h-647z" />
    <glyph glyph-name="uni049F" unicode="&#x49f;" horiz-adv-x="1358" 
d="M-10 1274v136h203v79l-145 25v117l387 49h3l63 -47v-223h281v-136h-281v-536l-5 -155l389 400l-156 27v136h564v-136l-186 -36l-248 -227l386 -593l123 -20v-134h-566v134l101 22l-245 418l-162 -156l5 -119v-145l137 -20v-134h-575v134l130 19v1121h-203z" />
    <glyph glyph-name="uni04A0" unicode="&#x4a0;" horiz-adv-x="1823" 
d="M68 949l25 573h978v-134l-167 -31v-524l1 2h166l323 520l-150 33v134h556v-134l-172 -30l-374 -539q56 -24 108 -79.5t99 -125.5t89 -145.5t78.5 -140t67.5 -109.5t56 -54l94 -28v-137h-325q-36 0 -70.5 30.5t-68.5 80.5t-66.5 113.5t-65.5 130.5t-66 130.5t-66.5 113.5
t-68.5 80.5t-71 30.5h-73l-1 1v-546l173 -30v-135h-646v137l161 28l1 1207l-261 -15l-72 -408h-192z" />
    <glyph glyph-name="uni04A1" unicode="&#x4a1;" horiz-adv-x="1663" 
d="M50 679l10 467h908v-128l-144 -28v-331h200l207 332l-143 27v128h538v-128l-161 -28l-267 -359q49 -25 89.5 -67.5t75 -92t64 -102t55.5 -96.5t50.5 -75t48.5 -39l93 -25v-134h-304q-45 0 -82.5 39t-71 98t-66.5 127t-69.5 127t-78.5 98t-95 39h-83v-374l163 -20v-134
h-598v134l135 20v858l-241 -18l-59 -315h-174z" />
    <glyph glyph-name="uni04A2" unicode="&#x4a2;" horiz-adv-x="1728" 
d="M86 0v137l163 27v1193l-160 31v134h648v-134l-171 -31v-501h596v501l-162 31v134h639v-134l-160 -31v-1192h198q0 -7 -2 -34.5t-6 -67t-8.5 -88t-10 -98.5t-10.5 -98.5t-9.5 -87t-8 -64.5t-5.5 -31h-178q-2 14 -5 45.5t-7 71.5t-9.5 84.5t-10.5 84.5t-10.5 71.5
t-9.5 46.5h-385v137l160 27v534h-596v-534l171 -27v-137h-651z" />
    <glyph glyph-name="uni04A3" unicode="&#x4a3;" horiz-adv-x="1534" 
d="M90 0v134l135 19v837l-135 28v128h583v-128l-146 -28v-323h480v322l-146 29v128h580v-128l-133 -28v-831h150q0 -21 -3 -67.5t-8 -104.5t-11.5 -121.5t-12.5 -119t-11.5 -96.5t-8.5 -54h-177q0 39 -2 95.5t-7 115t-15 111t-27 82.5h-317v134l149 20v367h-480v-367
l149 -20v-134h-586z" />
    <glyph glyph-name="uni04A4" unicode="&#x4a4;" horiz-adv-x="2070" 
d="M86 0v137l163 27v1193l-160 31v134h647v-134l-171 -31v-501h598v501l-162 31v134h983l29 -573h-193l-74 408l-267 20v-1212l163 -28v-137h-639v137l160 27v534h-598v-534l171 -27v-137h-650z" />
    <glyph glyph-name="uni04A5" unicode="&#x4a5;" horiz-adv-x="1833" 
d="M90 0v134l135 19v837l-135 28v128h583v-128l-146 -29v-322h480v323l-146 28v128h916l25 -548h-187l-76 402l-231 6v-852l136 -20v-134h-586v134l149 20v367h-480v-367l149 -20v-134h-586z" />
    <glyph glyph-name="uni04A6" unicode="&#x4a6;" horiz-adv-x="2290" 
d="M82 1388v134h1508v-134l-174 -31v-553q33 18 75 32t86 24t86.5 15t77.5 5q130 0 222 -31t149.5 -96.5t84 -166.5t26.5 -240q0 -173 -27.5 -313.5t-87.5 -240.5t-154 -154.5t-226 -54.5q-21 0 -43.5 1.5t-45 4.5t-42 7t-34.5 9l-18 148q42 -6 136 -6q67 0 110.5 39.5
t69 112.5t36 176.5t10.5 231.5q0 78 -11 149.5t-39 126t-74.5 86.5t-116.5 32q-45 0 -80.5 -3.5t-65 -9.5t-54.5 -15t-50 -21v-487l185 -28v-137h-651v137l152 28v1204h-537v-1204l171 -28v-137h-650v137l163 28v1193z" />
    <glyph glyph-name="uni04A7" unicode="&#x4a7;" horiz-adv-x="2039" 
d="M89 1018v128h1302v-128l-140 -28v-831l135 -25v-134h-577v134l140 25v852h-422v-852l141 -25v-134h-578v134l135 25v831zM1161 449l91 122q25 19 56 33t63.5 23.5t66 14t64.5 4.5q130 0 222.5 -24.5t151.5 -77t87 -134.5t28 -197q0 -174 -25.5 -309.5t-81.5 -229
t-145 -142t-215 -48.5q-20 0 -43 1.5t-45 4.5t-42 7t-35 9l-18 147q22 -3 50 -5t75 -2q61 0 102.5 29t66 93.5t35 168.5t10.5 254q0 72 -12.5 125t-41 87.5t-75.5 51t-116 16.5q-59 0 -104 -13.5t-79 -37.5z" />
    <glyph glyph-name="uni04A8" unicode="&#x4a8;" horiz-adv-x="1577" 
d="M56 751q0 188 58 335t161 248t244 154t307 53q78 0 154.5 -7.5t142.5 -18t116.5 -21.5t76.5 -17l-23 -374h-212l-60 239q-9 10 -24 20.5t-39 19.5t-60 15t-88 6q-89 0 -161 -37t-123 -113t-79 -191t-28 -271q0 -107 18 -210.5t56 -191t96.5 -154t139.5 -100.5
q-35 116 -35 236q0 123 34 230t95.5 186.5t148.5 125t193 45.5q85 0 156 -21.5t122 -67t79 -116.5t28 -169t-33 -188.5t-94.5 -165.5t-150 -132t-198.5 -88q24 -43 55 -80.5t68.5 -65.5t83 -44t98.5 -16q10 0 29.5 0.5t30.5 2.5v-129q-35 -5 -63 -8t-61 -3
q-90 0 -167.5 23.5t-143 64.5t-117.5 98t-91 125q-183 4 -321.5 66t-231.5 166t-140 243t-47 298zM964 421q0 -24 3 -56t10 -70t17.5 -80t25.5 -84q55 21 103 59t82.5 91t54.5 121.5t20 151.5q0 58 -8 104.5t-24.5 79.5t-42 50.5t-60.5 17.5q-38 0 -71 -26t-57.5 -75.5
t-38.5 -121t-14 -162.5z" />
    <glyph glyph-name="uni04A9" unicode="&#x4a9;" horiz-adv-x="1415" 
d="M65 577q0 130 43 239t121 187t188.5 121.5t245.5 43.5q51 0 91 -5.5t69.5 -14t49 -18t29.5 -16.5l-51 -115q-11 6 -23 11t-29.5 9t-41.5 6t-58 2q-77 0 -140.5 -28t-109 -83t-70.5 -135t-25 -185q0 -97 28 -183.5t75 -151.5t108.5 -103t129.5 -38q20 0 33.5 -0.5
t24.5 0.5q-81 68 -124.5 163t-43.5 213q0 98 30 174.5t83.5 128.5t128 79t164.5 27q87 0 156.5 -28.5t118 -80t75 -123t26.5 -156.5q0 -121 -44.5 -222.5t-134.5 -174.5q12 -1 24.5 -1h26.5q16 0 36.5 0.5l41 1t38.5 1.5t28 2l-17 -133q-9 -2 -28 -4t-41 -4t-45.5 -3
t-41.5 -1q-66 0 -126.5 8t-114.5 23q-57 -16 -121 -24.5t-137 -8.5q-152 0 -272 45t-203 125.5t-127 190.5t-44 239zM817 491q0 -46 5.5 -91t21 -85.5t43 -76t71.5 -61.5q35 21 58.5 53t38 77t21 104t6.5 136q0 49 -8 92.5t-23.5 76.5t-38 52t-51.5 19q-37 0 -64 -21.5
t-44.5 -60.5t-26.5 -93.5t-9 -120.5z" />
    <glyph glyph-name="uni04AA" unicode="&#x4aa;" horiz-adv-x="1370" 
d="M66 754q0 177 60 321.5t166 247.5t250 159t311 56q72 0 137 -8.5t121.5 -19t103 -21.5t81.5 -15l-23 -398h-205l-60 263q-11 12 -26 23.5t-37.5 19.5t-54.5 13t-76 5q-86 0 -158 -37.5t-123.5 -113t-80 -189.5t-28.5 -267q0 -132 23 -254t70.5 -215.5t120.5 -149.5
t173 -56q50 0 86 5.5t62 14.5t43 21t29 26l91 221l176 -10l-24 -340q-39 -3 -77.5 -13.5t-86 -23t-106.5 -24.5t-138 -16q18 -21 39 -51.5t38 -67.5t27.5 -78t8.5 -84q-3 -64 -23.5 -106.5t-57.5 -68t-90 -36.5t-120 -11h-1q-17 0 -37 2t-39.5 6t-37 9t-30.5 11l1 188
q21 -7 46 -10t36 -3h1q33 0 58.5 4t43 18t26 42t8.5 75q0 21 -4.5 43t-11 43.5t-15 41t-15.5 34.5q-159 11 -281 71.5t-204 161.5t-124 238.5t-42 302.5z" />
    <glyph glyph-name="uni04AB" unicode="&#x4ab;" horiz-adv-x="1066" 
d="M72 559q0 135 40.5 247t115.5 192.5t181.5 125t238.5 44.5q67 0 123 -7.5t100 -17.5t76 -20.5t52 -16.5l-10 -341h-176l-58 176q-22 42 -54 66t-78 24q-45 0 -85.5 -22.5t-72 -71t-50.5 -125.5t-19 -186q0 -125 19.5 -210.5t57 -138.5t91 -76.5t121.5 -23.5q46 0 86.5 7
t74.5 18t62 25t51 29l53 -121q-18 -20 -50 -43t-74 -45t-92.5 -39t-107.5 -25q18 -21 39 -52t39 -68t29 -79.5t8 -85.5q-3 -64 -23.5 -106.5t-57.5 -68t-90 -36.5t-120 -11h-1q-17 0 -37 2t-39.5 6t-37 9t-30.5 11l1 188q21 -7 46 -10t36 -3h1q33 0 58.5 4t43 18t26 42
t8.5 75q0 21 -4.5 43t-11 43.5t-15 41t-15.5 34.5q-122 11 -210.5 59t-146 124.5t-85 177.5t-27.5 218z" />
    <glyph glyph-name="uni04AC" unicode="&#x4ac;" horiz-adv-x="1507" 
d="M54 933l30 589h1336l31 -589h-187l-74 425l-273 18v-1211h343q0 -7 -2 -34.5t-6 -67t-8.5 -88t-10 -98.5t-10.5 -98.5t-9.5 -87t-8 -64.5t-5.5 -31h-178q-2 14 -5 45.5t-7 71.5t-9.5 84.5t-10.5 84.5t-10.5 71.5t-9.5 46.5h-649v137l275 28v1211l-280 -18l-76 -425h-186z
" />
    <glyph glyph-name="uni04AD" unicode="&#x4ad;" horiz-adv-x="1310" 
d="M50 691l10 455h1190l10 -455h-180l-61 303l-208 18v-853h6h264q0 -10 -4 -53t-10 -103.5t-13 -128.5t-14 -127.5t-12.5 -101.5t-7.5 -49h-177q-1 15 -5 48t-9.5 74.5t-11.5 86.5t-12 85t-12 69.5t-10 39.5v1h-516v134l239 25v853l-219 -18l-57 -303h-180z" />
    <glyph glyph-name="uni04AE" unicode="&#x4ae;" horiz-adv-x="1359" 
d="M-37 1388v134h621v-134l-140 -31l263 -516l43 -130l54 125l248 521l-165 31v134h506v-134l-143 -31l-383 -758v-435l238 -27v-137h-802v137l227 27v433l-445 760z" />
    <glyph glyph-name="uni04AF" unicode="&#x4af;" horiz-adv-x="1304" 
d="M-4 1018v128h616v-128l-162 -28l247 -667l24 -83l27 85l244 665l-164 28v128h484v-128l-122 -27l-359 -908v-425l185 -26v-124h-670v124l176 27v399l-413 932z" />
    <glyph glyph-name="uni04B0" unicode="&#x4b0;" horiz-adv-x="1359" 
d="M-37 1388v134h621v-134l-140 -31l263 -516l43 -130l54 125l248 521l-165 31v134h506v-134l-143 -31l-366 -723h379v-147h-396v-323l238 -27v-137h-802v137l227 27v323h-422v147h400l-423 723z" />
    <glyph glyph-name="uni04B1" unicode="&#x4b1;" horiz-adv-x="1304" 
d="M-4 1018v128h616v-128l-162 -28l247 -667l24 -83l27 85l244 665l-164 28v128h484v-128l-122 -27l-337 -851h334v-140h-356v-342l185 -26v-124h-670v124l176 27v341h-349v140h313l-377 850z" />
    <glyph glyph-name="uni04B2" unicode="&#x4b2;" horiz-adv-x="1513" 
d="M1 0v137l167 28l406 599l-420 594l-133 30v134h663v-134l-142 -31l292 -453l283 454l-167 30v134h549v-134l-177 -32l-399 -551l457 -640h158q0 -7 -2.5 -34.5t-6 -67t-8.5 -88t-10 -98.5t-10.5 -98.5t-10 -87t-8 -64.5t-5.5 -31h-177q-2 14 -5 45.5t-7 71.5t-9.5 84.5
t-10.5 84.5t-10.5 71.5t-9.5 46.5h-412v137l157 27l-324 497l-286 -498l180 -26v-137h-562z" />
    <glyph glyph-name="uni04B3" unicode="&#x4b3;" horiz-adv-x="1253" 
d="M24 0v119l120 24l313 436l-302 411l-110 28v128h599v-128l-131 -28l143 -202l65 -105l45 99l151 208l-132 28v128h438v-128l-117 -28l-291 -408l322 -436h127q0 -21 -3 -66.5t-8 -102t-11.5 -118.5t-12.5 -116t-11.5 -94t-8.5 -53h-178q0 39 -1.5 95.5t-6.5 115t-15 111
t-27 82.5h-332v119l122 24l-158 237l-60 97l-45 -103l-151 -231l140 -24v-119h-473z" />
    <glyph glyph-name="uni04B4" unicode="&#x4b4;" horiz-adv-x="2151" 
d="M54 933l26 589h1180l30 -588h-187l-73 419l-196 17v-1212h743v1199l-162 31v134h644v-134l-168 -31v-1192h199q0 -7 -2.5 -34.5t-6 -67t-8.5 -88t-10 -98.5t-10.5 -98.5t-10 -87t-8 -64.5t-5.5 -31h-177q0 26 -2.5 62t-7 76t-10 81.5t-11 78t-11.5 64.5t-10 42h-1509v137
l227 29v1204l-206 -17l-71 -420h-187z" />
    <glyph glyph-name="uni04B5" unicode="&#x4b5;" horiz-adv-x="2003" 
d="M44 666l17 480h1152l16 -480h-181l-64 340l-187 11v-869h670v841l-142 29v128h602v-128l-150 -29v-846h41l6 6h166q-5 -34 -11 -85t-12.5 -108t-13 -115.5t-12.5 -108.5t-10.5 -86.5t-6.5 -49.5h-178q0 11 -2 40t-5.5 67t-8.5 81.5t-10 84.5t-10.5 75.5t-10.5 55.5h-1426
v134l209 25v858l-196 -11l-63 -340h-179z" />
    <glyph glyph-name="uni04B6" unicode="&#x4b6;" horiz-adv-x="1525" 
d="M9 1386v136h605v-136l-172 -31v-257q0 -84 4 -143t14 -98.5t27 -62.5t42.5 -35t61 -15t83.5 -3q45 0 89 4.5t81.5 13t67 19.5t47.5 24v555l-172 31v134h663v-134l-175 -31v-1192h208q0 -7 -2.5 -34.5t-6 -67t-8.5 -88t-10 -98.5t-10.5 -98.5t-10 -87t-8 -64.5t-5.5 -31
h-177q-2 14 -5 45.5t-7 71.5t-9.5 84.5t-10.5 84.5t-10.5 71.5t-9.5 46.5h-448v137l214 28v477q-39 -23 -87.5 -39t-100.5 -26t-104 -15t-98 -5q-110 0 -192.5 21t-138 74t-83.5 142t-28 226v335z" />
    <glyph glyph-name="uni04B7" unicode="&#x4b7;" horiz-adv-x="1451" 
d="M37 1018v128h562v-128l-127 -28v-113q0 -104 7 -169.5t27 -102.5t55.5 -50.5t93.5 -13.5q35 0 75.5 3t78 8t68.5 13t47 17v408l-151 28v128h585v-128l-132 -28v-844h162q0 -10 -4 -52.5t-10 -101t-13 -125t-14 -124.5t-12.5 -99t-7.5 -48h-177q-2 15 -5.5 48t-8.5 74.5
t-11 86.5t-12.5 85t-12 69.5t-9.5 39.5v1h-342v134l175 26v288q-73 -30 -168 -47.5t-224 -17.5q-98 0 -168.5 22t-116 73.5t-67.5 136t-22 209.5v166z" />
    <glyph glyph-name="uni04B8" unicode="&#x4b8;" horiz-adv-x="1547" 
d="M-19 1386v136h634v-136l-172 -31v-257q0 -117 8 -187t29.5 -107t59.5 -49.5t98 -13.5v315h148v-308q64 8 117.5 22t78.5 32v555l-171 31v134h662v-134l-175 -31v-1192l175 -30v-135h-705v137l214 28v477q-38 -23 -89 -38.5t-107 -26.5v-250h-148v232q-18 -2 -35 -2h-33
q-110 0 -192.5 21t-138 74t-83.5 142t-28 226v335z" />
    <glyph glyph-name="uni04B9" unicode="&#x4b9;" horiz-adv-x="1522" 
d="M37 1018v128h562v-128l-127 -28v-113q0 -90 8.5 -151.5t29 -99.5t54.5 -57t85 -25v276h161v-275q28 2 56.5 5.5t53 8.5t44.5 10.5t31 12.5v408l-136 28v128h571v-128l-133 -29v-835l135 -20v-134h-588v134l151 20v294q-39 -16 -85 -28.5t-100 -21.5v-199h-161v184h-56
q-108 0 -189.5 22t-136 73.5t-82 136t-27.5 209.5v166z" />
    <glyph glyph-name="uni04BA" unicode="&#x4ba;" horiz-adv-x="1528" 
d="M56 0v134l175 31v1193l-175 29v135h705v-137l-214 -28v-477q39 23 87.5 39t100.5 26t104 15t98 5q110 0 192.5 -21t138 -74t83.5 -142t28 -226v-335l118 -31v-136h-605v136l172 31v257q0 84 -4 143t-14 98.5t-27 62.5t-42.5 35t-61 15t-83.5 3q-45 0 -89 -4.5t-81.5 -13
t-67 -19.5t-47.5 -24v-555l172 -31v-134h-663z" />
    <glyph glyph-name="uni04BB" unicode="&#x4bb;" horiz-adv-x="1455" 
d="M90 1018v128h608v-128l-171 -28v-272q30 13 63 26t78 23.5t106.5 17.5t148.5 7q97 0 167 -26.5t115 -81.5t66 -140t21 -202v-187l122 -21v-134h-570v134l134 21v143q0 104 -7.5 169.5t-28 102.5t-57 50.5t-94.5 13.5q-35 0 -74.5 -4.5t-76.5 -11.5t-67 -16t-46 -18v-429
l146 -21v-134h-580v134l132 20v836z" />
    <glyph glyph-name="uni04BC" unicode="&#x4bc;" horiz-adv-x="1667" 
d="M1 927q0 42 10.5 78t25 63t29.5 44.5t23 22.5l187 -30q-6 -7 -14.5 -26t-17 -41t-14 -43.5t-5.5 -33.5q0 -17 2.5 -35.5t15 -34t39 -25.5t74.5 -11q16 162 77 288.5t153.5 214.5t210 134t246.5 46q115 0 216.5 -35.5t178 -109t122 -186t48.5 -266.5q0 -33 -1 -68.5
t-3.5 -68t-5.5 -60.5t-7 -47l-927 1q5 -136 36 -244t81.5 -183.5t116.5 -115.5t142 -40q62 0 105.5 11.5t75 30.5t52.5 44.5t38 52.5l40 136l201 -8l-5 -326q-43 -2 -93 -14.5t-114.5 -27t-147 -26t-189.5 -11.5q-141 0 -259 48.5t-203.5 141t-135.5 227.5t-55 308
q-69 1 -132 14.5t-111.5 41.5t-77 70t-28.5 99zM661 855l633 -1q2 20 2 40v41q-1 46 -7 96.5t-19.5 99.5t-35.5 93.5t-55.5 78.5t-79.5 54t-106 20q-73 0 -133 -29.5t-103 -92.5t-68 -162t-28 -238z" />
    <glyph glyph-name="uni04BD" unicode="&#x4bd;" horiz-adv-x="1342" 
d="M-12 769q0 23 5 51.5t13 55t17.5 46.5t17.5 26l182 -30q-6 -7 -13 -23t-12.5 -35t-9.5 -38t-4 -31q0 -16 3 -32.5t13.5 -31.5t32 -25.5t58.5 -14.5q16 113 61 202t115 151t162.5 94.5t202.5 32.5q413 0 433 -405q2 -69 -0.5 -124.5t-10.5 -93.5h-653q5 -99 29 -169
t63.5 -114t92.5 -64t117 -20q51 0 95 8t81.5 20t67.5 27t53 29l51 -121q-25 -26 -69.5 -54.5t-102 -52.5t-124 -40t-135.5 -16q-138 0 -238.5 42.5t-166 118t-98 180.5t-34.5 231q-63 3 -116.5 18t-93.5 42t-62.5 66.5t-22.5 93.5zM600 679h359q0 5 0.5 14t1 19t0.5 18.5
v13.5q0 45 -5.5 96t-23 93.5t-50.5 71t-88 28.5q-38 0 -72 -14.5t-59.5 -53.5t-42 -108t-20.5 -178z" />
    <glyph glyph-name="uni04BE" unicode="&#x4be;" horiz-adv-x="1667" 
d="M1 927q0 42 10.5 78t25 63t29.5 44.5t23 22.5l187 -30q-6 -7 -14.5 -26t-17 -41t-14 -43.5t-5.5 -33.5q0 -17 2.5 -35.5t15 -34t39 -25.5t74.5 -11q16 162 77 288.5t153.5 214.5t210 134t246.5 46q115 0 216.5 -35.5t178 -109t122 -186t48.5 -266.5q0 -33 -1 -68.5
t-3.5 -68t-5.5 -60.5t-7 -47l-927 1q5 -136 36 -244t81.5 -183.5t116.5 -115.5t142 -40q62 0 105.5 11.5t75 30.5t52.5 44.5t38 52.5l40 136l201 -8l-5 -326q-37 -2 -79 -11.5t-93.5 -21.5t-115 -24t-143.5 -18q18 -21 39 -51.5t38.5 -67.5t28 -79t8.5 -85
q-3 -64 -23.5 -106.5t-57.5 -68t-90 -36.5t-120 -11h-1q-17 0 -37 2t-39.5 6t-37 9t-30.5 11l1 188q21 -7 46 -10t36 -3h1q33 0 58.5 4t43 18t26 42t8.5 75q0 41 -15 85t-30 75q-134 6 -245.5 57t-193 143t-128.5 224t-52 300q-69 1 -132 14.5t-111.5 41.5t-77 70t-28.5 99z
M661 855l633 -1q2 20 2 40v41q-1 46 -7 96.5t-19.5 99.5t-35.5 93.5t-55.5 78.5t-79.5 54t-106 20q-73 0 -133 -29.5t-103 -92.5t-68 -162t-28 -238z" />
    <glyph glyph-name="uni04BF" unicode="&#x4bf;" horiz-adv-x="1342" 
d="M-12 769q0 23 5 51.5t13 55t17.5 46.5t17.5 26l182 -30q-6 -7 -13 -23t-12.5 -35t-9.5 -38t-4 -31q0 -16 3 -32.5t13.5 -31.5t32 -25.5t58.5 -14.5q16 113 61 202t115 151t162.5 94.5t202.5 32.5q413 0 433 -405q2 -69 -0.5 -124.5t-10.5 -93.5h-653q5 -99 29 -169
t63.5 -114t92.5 -64t117 -20q51 0 95 8t81.5 20t67.5 27t53 29l51 -121q-21 -22 -56 -46t-80.5 -45.5t-98.5 -39t-110 -25.5q18 -21 39.5 -51.5t39.5 -68t29 -80t8 -86.5q-3 -64 -23.5 -106.5t-57.5 -68t-90 -36.5t-120 -11h-1q-17 0 -37 2t-39.5 6t-37 9t-30.5 11l1 188
q21 -7 46 -10t36 -3h1q33 0 58.5 4t43 18t26 42t8.5 75q0 21 -4 43t-11 43.5t-15 41t-15 34.5q-122 9 -211.5 54.5t-148 120.5t-87.5 175t-31 219q-63 3 -116.5 18t-93.5 42t-62.5 66.5t-22.5 93.5zM600 679h359q0 5 0.5 14t1 19t0.5 18.5v13.5q0 45 -5.5 96t-23 93.5
t-50.5 71t-88 28.5q-38 0 -72 -14.5t-59.5 -53.5t-42 -108t-20.5 -178z" />
    <glyph glyph-name="uni04C0" unicode="&#x4c0;" horiz-adv-x="845" 
d="M88 0v137l176 28v1192l-176 31v134h668v-134l-175 -31v-1192l175 -30v-135h-668z" />
    <glyph glyph-name="uni04C1" unicode="&#x4c1;" horiz-adv-x="2166" 
d="M-11 0v137l94 28q25 9 56 54t67.5 109.5t79 140t89.5 145.5t99 125.5t108 79.5l-374 538l-172 31v134h555v-134l-147 -32l320 -521h168v523l-163 30v134h630v-134l-162 -30v-523h167l320 520l-146 33v134h555v-134l-172 -30l-374 -539q56 -24 108 -79.5t99 -125.5
t89 -145.5t78.5 -140t67.5 -109.5t56 -54l94 -28v-137h-326q-36 0 -70.5 30.5t-68.5 80.5t-66.5 113.5t-65.5 130.5t-66 130.5t-66.5 113.5t-68.5 80.5t-71 30.5h-73v-545l173 -30v-135h-652v137l174 28v545h-74q-36 0 -71 -30.5t-68.5 -80.5t-66.5 -113.5t-66 -130.5
t-65.5 -130.5t-66.5 -113.5t-68.5 -80.5t-70.5 -30.5h-326zM666 1946v13.5t0.5 20.5t1 20.5t0.5 13.5h213q12 0 19 -9.5t10.5 -24t5 -31.5t1.5 -32q0 -64 41 -96t128 -32q170 0 170 128q0 15 1.5 32t5 31.5t10.5 24t19 9.5h212q0 -4 0.5 -13.5t1 -20.5t0.5 -20.5v-13.5
q0 -78 -29 -131t-83 -85.5t-132 -47t-177 -14.5q-95 0 -172.5 14.5t-132.5 47.5t-84.5 86t-29.5 130z" />
    <glyph glyph-name="uni04C2" unicode="&#x4c2;" horiz-adv-x="1968" 
d="M-14 3v134l93 25q24 8 48 39t50 75t55 96.5t63.5 102.5t75.5 92.5t90 67.5l-263 355l-161 28v128h538v-128l-144 -27l205 -329h196v327l-132 29v128h579v-128l-143 -29v-330h193l206 331l-143 28v128h539v-128l-162 -29l-265 -357q50 -24 90.5 -66.5t75.5 -92.5
t64 -102.5t55.5 -97t50.5 -75.5t49 -39l92 -25v-134h-304q-45 0 -82.5 39t-71 98t-66.5 127t-69 127t-78.5 98t-94.5 39h-79v-369l156 -25v-134h-595v134l135 25v371h-80q-39 0 -72.5 -22.5t-63 -59.5t-55.5 -84.5t-51 -97t-49.5 -97t-51.5 -84.5t-56 -59.5t-63 -22.5h-304z
M551 1678q0 8 0.5 25t1.5 25h207q12 0 19 -9.5t10.5 -24t5 -31t1.5 -31.5q0 -37 10 -71.5t31.5 -61t54.5 -42.5t79 -16t78.5 16t53 42.5t30 61t9.5 71.5q0 15 1.5 31.5t5 31t10.5 24t19 9.5h207q1 -8 1.5 -25t0.5 -25q0 -82 -27.5 -149.5t-80.5 -116t-131 -75t-178 -26.5
q-98 0 -175.5 27t-131.5 75.5t-83 116t-29 148.5z" />
    <glyph glyph-name="uni04C3" unicode="&#x4c3;" horiz-adv-x="1506" 
d="M87 0v137l162 28l1 1193l-163 30v134h629v-134l-154 -30v-558l1 2q38 21 87.5 37t100.5 26l305 490l-151 33v134h556v-134l-171 -30l-336 -480q116 -6 198 -38.5t134.5 -92t76.5 -146.5t24 -204q0 -184 -28.5 -334.5t-90 -257t-158 -164.5t-231.5 -58q-21 0 -43.5 1.5
t-45 4.5t-42 7t-34.5 9l-18 148q42 -6 136 -6q70 0 116 39.5t73 112.5t38 176.5t11 231.5q0 78 -12 149.5t-41 126t-77.5 86.5t-122.5 32q-46 0 -82 -3.5t-65.5 -10t-55 -16t-51.5 -21.5h-1v-485l172 -30v-135h-647z" />
    <glyph glyph-name="uni04C4" unicode="&#x4c4;" horiz-adv-x="1382" 
d="M91 0v134l134 20v836l-131 28v128h589v-128l-151 -24v-400q35 21 91 38.5t127 24.5l206 334l-144 27v128h538v-128l-161 -28l-250 -336q105 -13 175 -49t111 -92t58 -129.5t17 -161.5q0 -197 -40.5 -336t-113 -227t-171.5 -128t-216 -40q-11 0 -26 1t-30.5 3t-29 5
t-20.5 6v149q13 -2 35 -2h44q76 0 128.5 29t85.5 94.5t47.5 172t14.5 262.5q0 91 -19.5 148.5t-57 90t-91.5 44t-123 11.5q-48 0 -95 -9.5t-90 -28.5v-313l160 -20v-134h-601z" />
    <glyph glyph-name="uni04C5" unicode="&#x4c5;" horiz-adv-x="1575" 
d="M23 37l39 207q6 -6 20.5 -16t35 -20t46 -17t52.5 -7q30 0 62 23t62.5 74t57 132.5t47 199.5t32 274t11.5 356v114l-246 31v134h1271v-134l-187 -31v-1202h231v-155q-9 -18 -24.5 -52t-35 -75.5t-40.5 -86t-39.5 -83.5t-33 -67.5t-21.5 -38.5h-179q8 22 19.5 55.5t23 73
t24 81t23 79t18.5 68t13 46.5h-510v137l216 28v1192h-355v-156q0 -152 -9.5 -301t-30 -284t-53.5 -250.5t-80.5 -200.5t-111 -133t-143.5 -48q-64 0 -112 12.5t-93 40.5z" />
    <glyph glyph-name="uni04C6" unicode="&#x4c6;" horiz-adv-x="1332" 
d="M5 8l23 220q5 -3 26 -8.5t46.5 -11.5t49.5 -10t34 -4q37 0 69.5 64.5t56.5 174t37.5 253.5t13.5 304l-187 28v128h1110v-136l-178 -33v-822h172v-155q-9 -18 -24.5 -52t-34.5 -75.5t-39 -86t-38.5 -83.5t-32.5 -67.5t-21 -38.5h-179q8 22 19 55.5t22.5 73t23 81t21.5 79
t18 68t13 46.5h-379v134l150 20v842h-285v-105q0 -135 -11 -255.5t-29 -219.5t-41 -172.5t-46 -115.5q-14 -30 -34 -56.5t-47 -46t-62 -30.5t-78 -11q-17 0 -42 2.5t-50 6t-44 8t-23 7.5z" />
    <glyph glyph-name="uni04C7" unicode="&#x4c7;" horiz-adv-x="1701" 
d="M86 0v137l163 27v1193l-160 31v134h648v-134l-171 -31v-501h597l-1 501l-162 31v134h646v-134l-167 -31v-810q0 -103 -1 -186.5t-4 -150t-8.5 -118.5t-14.5 -93q-21 -74 -65.5 -137t-109 -112.5t-149 -85t-184.5 -55.5l-72 116q39 13 77 33t71 48t60 66t45 87
q10 34 17.5 73t12 90t6.5 118t2 158l1 300h-597v-534l171 -27v-137h-651z" />
    <glyph glyph-name="uni04C8" unicode="&#x4c8;" horiz-adv-x="1523" 
d="M90 0v134l135 19v837l-135 28v128h583v-128l-146 -29v-322h480v323l-146 28v128h580v-128l-133 -29v-784q0 -154 -34.5 -268.5t-96.5 -190t-148.5 -113t-190.5 -37.5q-15 0 -36.5 1t-43 3t-41 5t-30.5 6v157q13 -2 34.5 -2h44.5q79 0 126.5 22.5t73 78.5t33.5 152.5
t8 243.5v258h-480v-398l177 -23v-100h-614z" />
    <glyph glyph-name="uni04C9" unicode="&#x4c9;" horiz-adv-x="1728" 
d="M86 0v137l163 27v1193l-160 31v134h648v-134l-171 -31v-501h596v501l-162 31v134h639v-134l-160 -31v-1202h168v-155q-9 -18 -24.5 -52t-35 -75.5t-40 -86t-39 -83.5t-33 -67.5t-21.5 -38.5h-179q8 22 19 55.5t23 73t24 81t22.5 79t18.5 68t13 46.5h-393v137l160 27v534
h-596v-534l171 -27v-137h-651z" />
    <glyph glyph-name="uni04CA" unicode="&#x4ca;" horiz-adv-x="1534" 
d="M90 0v134l135 19v837l-135 28v128h583v-128l-146 -28v-323h480v322l-146 29v128h580v-128l-133 -28v-835h141v-155q-9 -18 -24.5 -52t-34 -75.5t-39 -86t-39 -83.5t-32.5 -67.5t-21 -38.5h-179q8 22 19 55.5t22.5 73t23.5 81t22 79t18 68t13 46.5h-340v134l149 20v367
h-480v-367l149 -20v-134h-586z" />
    <glyph glyph-name="uni04CB" unicode="&#x4cb;" horiz-adv-x="1525" 
d="M9 1386v136h605v-136l-172 -31v-257q0 -84 4 -143t14 -98.5t27 -62.5t42.5 -35t61 -15t83.5 -3q45 0 89 4.5t81.5 13t67 19.5t47.5 24v555l-172 31v134h663v-134l-175 -31v-1193l175 -29v-135h-442q-5 -12 -14.5 -42.5t-21 -71t-24 -86t-23.5 -86.5t-19 -73t-10 -45h-182
q0 14 1.5 52.5t3.5 90.5t5 112t6 118.5t5.5 110t4.5 85.5h219v477q-39 -23 -87.5 -39t-100.5 -26t-104 -15t-98 -5q-110 0 -192.5 21t-138 74t-83.5 142t-28 226v335z" />
    <glyph glyph-name="uni04CC" unicode="&#x4cc;" horiz-adv-x="1451" 
d="M37 1018v128h562v-128l-127 -28v-113q0 -104 7 -169.5t27 -102.5t55.5 -50.5t93.5 -13.5q35 0 75.5 3t78 8t68.5 13t47 17v408l-151 28v128h585v-128l-132 -28v-831l135 -25v-134h-379q-5 -10 -12.5 -38t-16 -65.5t-17.5 -81t-17.5 -85t-15.5 -77t-11 -57.5h-193
q0 14 1.5 51t3.5 87t5 107.5t5.5 114t5 106.5t4.5 84h200v302q-73 -30 -168 -47.5t-224 -17.5q-98 0 -168.5 22t-116 73.5t-67.5 136t-22 209.5v166z" />
    <glyph glyph-name="uni04CD" unicode="&#x4cd;" horiz-adv-x="2100" 
d="M1 0v137l175 27l151 1193l-201 31v134h630l270 -961l35 -185l29 185l244 961h636v-134l-216 -31l178 -1202h177v-155q-8 -18 -23.5 -52t-34 -75.5t-38.5 -86t-38 -83.5t-32 -67.5t-21 -38.5h-180q8 22 19 55.5t22.5 73t22.5 81t21 79t18 68t12 46.5h-416v137l166 27
l-95 876l-43 374l-62 -298l-293 -1132h-209l-333 1072l-94 354l-18 -369l-79 -877l199 -27v-137h-579z" />
    <glyph glyph-name="uni04CE" unicode="&#x4ce;" horiz-adv-x="1886" 
d="M-10 0v134l156 20l134 836l-179 28v128h607l209 -682l43 -165l33 165l187 682h611v-128l-197 -28l151 -829h160v-155q-9 -18 -24.5 -52.5t-34 -76.5t-39 -87.5t-38.5 -85t-32 -68.5t-21 -39h-180q8 21 18.5 54t21.5 71.5t22.5 80t21.5 79t18 68.5t13 50h-379v134l152 21
l-82 584l-36 287l-77 -285l-217 -747h-234l-257 751l-93 274l-15 -272l-76 -593l181 -20v-134h-528z" />
    <glyph glyph-name="uni04CF" unicode="&#x4cf;" horiz-adv-x="845" 
d="M88 0v137l176 28v1192l-176 31v134h668v-134l-175 -31v-1192l175 -30v-135h-668z" />
    <glyph glyph-name="uni04D0" unicode="&#x4d0;" horiz-adv-x="1441" 
d="M-51 137l129 28l482 1363h321l481 -1363l139 -28v-137h-649v137l163 28l-75 244h-543l-71 -245l165 -27v-137h-541zM283 1946v13.5t0.5 20.5t1 20.5t0.5 13.5h213q12 0 19 -9.5t10.5 -24t5 -31.5t1.5 -32q0 -64 41 -96t128 -32q170 0 170 128q0 15 1.5 32t5 31.5t10.5 24
t19 9.5h212q0 -4 0.5 -13.5t1 -20.5t0.5 -20.5v-13.5q0 -78 -29 -131t-83 -85.5t-132 -47t-177 -14.5q-95 0 -172.5 14.5t-132.5 47.5t-84.5 86t-29.5 130zM442 565h450l-197 645l-35 146l-32 -146z" />
    <glyph glyph-name="uni04D1" unicode="&#x4d1;" horiz-adv-x="1167" 
d="M62 304q0 73 26.5 130t73 100t109.5 73t136 49.5t152 28.5t158 11v48q0 57 -11.5 97.5t-35.5 66t-61.5 37t-90.5 11.5q-54 0 -108.5 -8.5t-104.5 -21t-92.5 -28t-72.5 -29.5h-1l-59 134q21 17 71 44.5t120 53.5t155 45t175 19q111 0 188.5 -24t126 -74t71 -126.5
t22.5 -180.5v-624h124v-123q-19 -5 -47 -11t-62 -11.5t-73 -9.5t-80 -4q-36 0 -61.5 3t-41 14t-22.5 31.5t-7 55.5v58q-17 -23 -47 -51t-72.5 -53t-96.5 -41.5t-119 -16.5q-71 0 -133 19t-108.5 59t-73.5 101.5t-27 147.5zM129 1678q0 8 0.5 25t1.5 25h207q12 0 19 -9.5
t10.5 -24t5 -31t1.5 -31.5q0 -37 10 -71.5t31.5 -61t54.5 -42.5t79 -16t78.5 16t53 42.5t30 61t9.5 71.5q0 15 1.5 31.5t5 31t10.5 24t19 9.5h207q1 -8 1.5 -25t0.5 -25q0 -82 -27.5 -149.5t-80.5 -116t-131 -75t-178 -26.5q-98 0 -175.5 27t-131.5 75.5t-83 116t-29 148.5z
M379 352q0 -89 40.5 -135.5t118.5 -46.5q16 0 39.5 5t48.5 14t49 21.5t42 28.5v331q-98 0 -163 -18t-104 -48t-55 -69.5t-16 -82.5z" />
    <glyph glyph-name="uni04D2" unicode="&#x4d2;" horiz-adv-x="1441" 
d="M-51 137l129 28l482 1363h321l481 -1363l139 -28v-137h-649v137l163 28l-75 244h-543l-71 -245l165 -27v-137h-541zM292 1807q0 39 10.5 73.5t32.5 60t54 40.5t76 15h1q40 0 70 -13t50 -35.5t29.5 -51.5t9.5 -61q0 -40 -11 -75t-33.5 -60.5t-58 -40t-83.5 -14.5h-1
q-35 0 -62 13t-46 35t-28.5 51.5t-9.5 62.5zM442 565h450l-197 645l-35 146l-32 -146zM820 1807q0 39 10.5 73.5t32 60t54 40.5t76.5 15h1q40 0 70 -13t49.5 -35.5t29.5 -51.5t10 -61q0 -40 -11 -75t-34 -60.5t-58 -40t-83 -14.5h-1q-35 0 -62.5 13t-46 35t-28 51.5
t-9.5 62.5z" />
    <glyph glyph-name="uni04D3" unicode="&#x4d3;" horiz-adv-x="1167" 
d="M62 304q0 73 26.5 130t73 100t109.5 73t136 49.5t152 28.5t158 11v48q0 57 -11.5 97.5t-35.5 66t-61.5 37t-90.5 11.5q-54 0 -108.5 -8.5t-104.5 -21t-92.5 -28t-72.5 -29.5h-1l-59 134q21 17 71 44.5t120 53.5t155 45t175 19q111 0 188.5 -24t126 -74t71 -126.5
t22.5 -180.5v-624h124v-123q-19 -5 -47 -11t-62 -11.5t-73 -9.5t-80 -4q-36 0 -61.5 3t-41 14t-22.5 31.5t-7 55.5v58q-17 -23 -47 -51t-72.5 -53t-96.5 -41.5t-119 -16.5q-71 0 -133 19t-108.5 59t-73.5 101.5t-27 147.5zM150 1495q0 39 10.5 73.5t32 60.5t54 41t76.5 15h1
q40 0 70 -13.5t49.5 -36t29.5 -51.5t10 -61q0 -40 -11 -74.5t-34 -60t-58 -40t-83 -14.5h-1q-35 0 -62.5 13t-46 34.5t-28 51t-9.5 62.5zM379 352q0 -89 40.5 -135.5t118.5 -46.5q16 0 39.5 5t48.5 14t49 21.5t42 28.5v331q-98 0 -163 -18t-104 -48t-55 -69.5t-16 -82.5z
M660 1495q0 39 10.5 73.5t32.5 60.5t54 41t76 15h1q40 0 70 -13.5t50 -36t29.5 -51.5t9.5 -61q0 -40 -11 -74.5t-33.5 -60t-58 -40t-83.5 -14.5h-1q-35 0 -62 13t-46 34.5t-28.5 51t-9.5 62.5z" />
    <glyph glyph-name="uni04D4" unicode="&#x4d4;" horiz-adv-x="1902" 
d="M-159 0v135l146 29l490 1193l-263 31v134h1503l27 -350h-175l-73 201l-401 16v-542l257 4l30 169h167v-492h-167l-30 167l-257 6v-552l485 27l130 266l171 -41l-68 -401h-1195v126l165 25v268h-457l-90 -256l148 -28v-135h-543zM381 576h402v798h-121l-97 -274z" />
    <glyph glyph-name="uni04D5" unicode="&#x4d5;" horiz-adv-x="1749" 
d="M56 299q0 72 25.5 128.5t70.5 99t106.5 73t134.5 50t153.5 29.5t164.5 12v60q0 60 -11 99.5t-35 62t-63 31.5t-96 9q-50 0 -99.5 -8.5t-95 -21t-86.5 -28.5t-74 -31l-59 145q28 22 81 49.5t121 51t146 39.5t155 16q114 0 193.5 -24.5t128.5 -81.5q68 53 154 80.5
t188 27.5q413 0 433 -405q2 -69 -0.5 -124.5t-10.5 -93.5h-652q5 -99 29 -169t63 -114t92.5 -64t117.5 -20q50 0 94 8t81.5 20t67.5 27t53 29l52 -121q-25 -26 -69.5 -54.5t-102 -52.5t-124 -40t-135.5 -16q-159 0 -267.5 55t-172.5 152q-34 -44 -77 -82t-95 -66
t-111.5 -43.5t-126.5 -15.5t-128.5 19t-109 59t-76 100.5t-28.5 143.5zM373 352q0 -89 40.5 -135.5t118.5 -46.5q31 0 62.5 9t60.5 24.5t55.5 36t47.5 43.5q-24 63 -35.5 134.5t-11.5 151.5v1q-95 0 -159.5 -18t-104 -48t-57 -69.5t-17.5 -82.5zM1028 679h358q0 5 0.5 14
t1 19t0.5 18.5v13.5q0 51 -7.5 103t-26 93t-50.5 67t-83 26q-38 0 -72 -14.5t-59.5 -53.5t-42 -108t-19.5 -178z" />
    <glyph glyph-name="uni04D6" unicode="&#x4d6;" horiz-adv-x="1379" 
d="M85 0v137l164 27v1193l-162 31v134h1101l23 -347h-171l-73 194l-398 20v-542l260 4l30 168h173v-491h-173l-30 168l-260 5v-548l479 23l123 264l171 -39l-58 -401h-1199zM272 1946v13.5t0.5 20.5t1 20.5t0.5 13.5h213q12 0 19 -9.5t10.5 -24t5 -31.5t1.5 -32
q0 -64 41 -96t128 -32q170 0 170 128q0 15 1.5 32t5 31.5t10.5 24t19 9.5h212q0 -4 0.5 -13.5t1 -20.5t0.5 -20.5v-13.5q0 -78 -29 -131t-83 -85.5t-132 -47t-177 -14.5q-95 0 -172.5 14.5t-132.5 47.5t-84.5 86t-29.5 130z" />
    <glyph glyph-name="uni04D7" unicode="&#x4d7;" horiz-adv-x="1126" 
d="M70 569q0 139 39.5 250t111.5 188.5t173 118.5t224 41q415 0 433 -405q2 -69 -0.5 -124.5t-10.5 -93.5h-652q5 -99 29 -169t63 -114t92.5 -64t117.5 -20q50 0 94 8t81.5 20t67.5 27t53 29l52 -121q-25 -26 -69.5 -54.5t-102 -52.5t-124 -40t-135.5 -16q-141 0 -242.5 44
t-167 122.5t-96.5 187.5t-31 238zM145 1678q0 8 0.5 25t1.5 25h207q12 0 19 -9.5t10.5 -24t5 -31t1.5 -31.5q0 -37 10 -71.5t31.5 -61t54.5 -42.5t79 -16t78.5 16t53 42.5t30 61t9.5 71.5q0 15 1.5 31.5t5 31t10.5 24t19 9.5h207q1 -8 1.5 -25t0.5 -25q0 -82 -27.5 -149.5
t-80.5 -116t-131 -75t-178 -26.5q-98 0 -175.5 27t-131.5 75.5t-83 116t-29 148.5zM387 679h358q0 5 0.5 14t1 19t0.5 18.5v13.5q0 51 -7 103t-25.5 93t-51 67t-83.5 26q-38 0 -71.5 -14.5t-59 -53.5t-42 -108t-20.5 -178z" />
    <glyph glyph-name="uni04D8" unicode="&#x4d8;" horiz-adv-x="1373" 
d="M59 574q0 33 1 68.5t3.5 68t5.5 60.5t7 47l927 -1q-5 136 -36 244t-81.5 183.5t-116.5 115.5t-141 40q-62 0 -106 -11.5t-75 -30.5t-52.5 -44.5t-37.5 -52.5l-41 -136l-201 8l5 326q43 2 93.5 14.5t115 27t147 26t189.5 11.5q145 0 265 -51t206 -149t133.5 -240
t47.5 -324q0 -188 -55.5 -336t-150.5 -250.5t-221 -156.5t-266 -54q-115 0 -217 35.5t-178.5 109t-121.5 186t-48 266.5zM370 554q0 -68 16 -141t52 -134.5t94 -101t142 -39.5q73 0 132.5 29.5t103 92.5t68.5 162t28 238l-633 1q-2 -28 -2.5 -52.5t-0.5 -54.5z" />
    <glyph glyph-name="afii10846" unicode="&#x4d9;" horiz-adv-x="1119" 
d="M78 382q-3 69 0.5 124.5t10.5 93.5h644q-5 99 -28.5 169t-62.5 113.5t-91.5 63.5t-115.5 20q-50 0 -93.5 -7.5t-80.5 -19.5t-66.5 -27t-51.5 -29l-52 120q25 26 69 55t100.5 53t122.5 40t135 16q139 0 239.5 -44t165.5 -122.5t95.5 -187.5t30.5 -238q0 -140 -39 -250.5
t-110 -188t-171 -118.5t-222 -41q-411 0 -429 405zM381 402q0 -51 6 -103t24 -94t50 -68.5t84 -26.5q37 0 69.5 14.5t58 53.5t41.5 108t19 179h-350q0 -5 -0.5 -13.5t-1 -18t-0.5 -18.5v-13z" />
    <glyph glyph-name="uni04DA" unicode="&#x4da;" horiz-adv-x="1373" 
d="M59 574q0 33 1 68.5t3.5 68t5.5 60.5t7 47l927 -1q-5 136 -36 244t-81.5 183.5t-116.5 115.5t-141 40q-62 0 -106 -11.5t-75 -30.5t-52.5 -44.5t-37.5 -52.5l-41 -136l-201 8l5 326q43 2 93.5 14.5t115 27t147 26t189.5 11.5q145 0 265 -51t206 -149t133.5 -240
t47.5 -324q0 -188 -55.5 -336t-150.5 -250.5t-221 -156.5t-266 -54q-115 0 -217 35.5t-178.5 109t-121.5 186t-48 266.5zM265 1807q0 39 10.5 73.5t32.5 60t54 40.5t76 15h1q40 0 70 -13t50 -35.5t29.5 -51.5t9.5 -61q0 -40 -11 -75t-33.5 -60.5t-58 -40t-83.5 -14.5h-1
q-35 0 -62 13t-46 35t-28.5 51.5t-9.5 62.5zM370 554q0 -68 16 -141t52 -134.5t94 -101t142 -39.5q73 0 132.5 29.5t103 92.5t68.5 162t28 238l-633 1q-2 -28 -2.5 -52.5t-0.5 -54.5zM793 1807q0 39 10.5 73.5t32 60t54 40.5t76.5 15h1q40 0 70 -13t49.5 -35.5t29.5 -51.5
t10 -61q0 -40 -11 -75t-34 -60.5t-58 -40t-83 -14.5h-1q-35 0 -62.5 13t-46 35t-28 51.5t-9.5 62.5z" />
    <glyph glyph-name="uni04DB" unicode="&#x4db;" horiz-adv-x="1119" 
d="M78 382q-3 69 0.5 124.5t10.5 93.5h644q-5 99 -28.5 169t-62.5 113.5t-91.5 63.5t-115.5 20q-50 0 -93.5 -7.5t-80.5 -19.5t-66.5 -27t-51.5 -29l-52 120q25 26 69 55t100.5 53t122.5 40t135 16q139 0 239.5 -44t165.5 -122.5t95.5 -187.5t30.5 -238q0 -140 -39 -250.5
t-110 -188t-171 -118.5t-222 -41q-411 0 -429 405zM125 1495q0 39 10.5 73.5t32 60.5t54 41t76.5 15h1q40 0 70 -13.5t49.5 -36t29.5 -51.5t10 -61q0 -40 -11 -74.5t-34 -60t-58 -40t-83 -14.5h-1q-35 0 -62.5 13t-46 34.5t-28 51t-9.5 62.5zM381 402q0 -51 6 -103t24 -94
t50 -68.5t84 -26.5q37 0 69.5 14.5t58 53.5t41.5 108t19 179h-350q0 -5 -0.5 -13.5t-1 -18t-0.5 -18.5v-13zM635 1495q0 39 10.5 73.5t32.5 60.5t54 41t76 15h1q40 0 70 -13.5t50 -36t29.5 -51.5t9.5 -61q0 -40 -11 -74.5t-33.5 -60t-58 -40t-83.5 -14.5h-1q-35 0 -62 13
t-46 34.5t-28.5 51t-9.5 62.5z" />
    <glyph glyph-name="uni04DC" unicode="&#x4dc;" horiz-adv-x="2166" 
d="M-11 0v137l94 28q25 9 56 54t67.5 109.5t79 140t89.5 145.5t99 125.5t108 79.5l-374 538l-172 31v134h555v-134l-147 -32l320 -521h168v523l-163 30v134h630v-134l-162 -30v-523h167l320 520l-146 33v134h555v-134l-172 -30l-374 -539q56 -24 108 -79.5t99 -125.5
t89 -145.5t78.5 -140t67.5 -109.5t56 -54l94 -28v-137h-326q-36 0 -70.5 30.5t-68.5 80.5t-66.5 113.5t-65.5 130.5t-66 130.5t-66.5 113.5t-68.5 80.5t-71 30.5h-73v-545l173 -30v-135h-652v137l174 28v545h-74q-36 0 -71 -30.5t-68.5 -80.5t-66.5 -113.5t-66 -130.5
t-65.5 -130.5t-66.5 -113.5t-68.5 -80.5t-70.5 -30.5h-326zM654 1807q0 39 10.5 73.5t32.5 60t54 40.5t76 15h1q40 0 70 -13t50 -35.5t29.5 -51.5t9.5 -61q0 -40 -11 -75t-33.5 -60.5t-58 -40t-83.5 -14.5h-1q-35 0 -62 13t-46 35t-28.5 51.5t-9.5 62.5zM1182 1807
q0 39 10.5 73.5t32 60t54 40.5t76.5 15h1q40 0 70 -13t49.5 -35.5t29.5 -51.5t10 -61q0 -40 -11 -75t-34 -60.5t-58 -40t-83 -14.5h-1q-35 0 -62.5 13t-46 35t-28 51.5t-9.5 62.5z" />
    <glyph glyph-name="uni04DD" unicode="&#x4dd;" horiz-adv-x="1968" 
d="M-14 3v134l93 25q24 8 48 39t50 75t55 96.5t63.5 102.5t75.5 92.5t90 67.5l-263 355l-161 28v128h538v-128l-144 -27l205 -329h196v327l-132 29v128h579v-128l-143 -29v-330h193l206 331l-143 28v128h539v-128l-162 -29l-265 -357q50 -24 90.5 -66.5t75.5 -92.5
t64 -102.5t55.5 -97t50.5 -75.5t49 -39l92 -25v-134h-304q-45 0 -82.5 39t-71 98t-66.5 127t-69 127t-78.5 98t-94.5 39h-79v-369l156 -25v-134h-595v134l135 25v371h-80q-39 0 -72.5 -22.5t-63 -59.5t-55.5 -84.5t-51 -97t-49.5 -97t-51.5 -84.5t-56 -59.5t-63 -22.5h-304z
M566 1495q0 39 10.5 73.5t32 60.5t54 41t76.5 15h1q40 0 70 -13.5t49.5 -36t29.5 -51.5t10 -61q0 -40 -11 -74.5t-34 -60t-58 -40t-83 -14.5h-1q-35 0 -62.5 13t-46 34.5t-28 51t-9.5 62.5zM1076 1495q0 39 10.5 73.5t32.5 60.5t54 41t76 15h1q40 0 70 -13.5t50 -36
t29.5 -51.5t9.5 -61q0 -40 -11 -74.5t-33.5 -60t-58 -40t-83.5 -14.5h-1q-35 0 -62 13t-46 34.5t-28.5 51t-9.5 62.5z" />
    <glyph glyph-name="uni04DE" unicode="&#x4de;" horiz-adv-x="1258" 
d="M80 77l38 383h147l82 -275q18 -14 40 -25t49 -19.5t61 -13t77 -4.5q128 0 195.5 74.5t67.5 228.5q0 63 -10.5 116.5t-42 93t-88 62t-147.5 22.5h-140v152h115q49 0 95.5 15.5t82.5 50.5t57.5 91.5t21.5 138.5q0 63 -15.5 107.5t-43 73t-65.5 41.5t-84 13q-45 0 -78.5 -7
t-57 -19.5t-37.5 -29t-21 -34.5l-48 -165h-178l-27 323q32 2 85 12.5t114.5 22.5t127 22t123.5 10q267 0 401.5 -83.5t134.5 -260.5q0 -88 -31.5 -154.5t-82.5 -113.5t-116 -75.5t-133 -41.5q121 -2 206.5 -32t140.5 -79.5t80.5 -114t25.5 -136.5q0 -107 -35 -192
t-114 -144.5t-205 -91t-309 -31.5q-66 0 -136 9.5t-133 23t-113 29t-77 27.5zM179 1807q0 39 10.5 73.5t32.5 60t54 40.5t76 15h1q40 0 70 -13t50 -35.5t29.5 -51.5t9.5 -61q0 -40 -11 -75t-33.5 -60.5t-58 -40t-83.5 -14.5h-1q-35 0 -62 13t-46 35t-28.5 51.5t-9.5 62.5z
M707 1807q0 39 10.5 73.5t32 60t54 40.5t76.5 15h1q40 0 70 -13t49.5 -35.5t29.5 -51.5t10 -61q0 -40 -11 -75t-34 -60.5t-58 -40t-83 -14.5h-1q-35 0 -62.5 13t-46 35t-28 51.5t-9.5 62.5z" />
    <glyph glyph-name="uni04DF" unicode="&#x4df;" horiz-adv-x="1099" 
d="M62 60l27 268h196l37 -146q10 -15 29.5 -27t43.5 -21t52 -13.5t56 -4.5q58 0 99 17t66.5 45.5t37.5 66.5t12 80t-9 78.5t-32 62.5t-61.5 41t-98.5 15q-7 0 -23 -2t-34 -5t-35.5 -6.5l-27.5 -5.5l11 163l64 9q97 14 148 66.5t51 132.5q0 36 -8 64.5t-28 49t-53.5 31.5
t-85.5 11q-40 0 -71 -8t-54 -20t-37.5 -27t-20.5 -30l-32 -142h-189v303q52 0 97.5 8.5t96.5 19t111.5 19t142.5 8.5q227 0 338 -67t111 -197q0 -41 -14.5 -80.5t-42.5 -74.5t-69 -65t-94 -51q69 -11 123 -36t91 -61.5t56.5 -83t20.5 -99.5q1 -83 -32 -150t-99.5 -114
t-165.5 -72.5t-229 -25.5q-91 0 -167 9t-135.5 21.5t-102.5 25.5t-67 20zM98 1495q0 39 10.5 73.5t32 60.5t54 41t76.5 15h1q40 0 70 -13.5t49.5 -36t29.5 -51.5t10 -61q0 -40 -11 -74.5t-34 -60t-58 -40t-83 -14.5h-1q-35 0 -62.5 13t-46 34.5t-28 51t-9.5 62.5zM608 1495
q0 39 10.5 73.5t32.5 60.5t54 41t76 15h1q40 0 70 -13.5t50 -36t29.5 -51.5t9.5 -61q0 -40 -11 -74.5t-33.5 -60t-58 -40t-83.5 -14.5h-1q-35 0 -62 13t-46 34.5t-28.5 51t-9.5 62.5z" />
    <glyph glyph-name="uni04E0" unicode="&#x4e0;" horiz-adv-x="1227" 
d="M64 66l47 376h183l67 -268q4 -5 16.5 -14t35.5 -17t57.5 -14t84.5 -6q73 0 130.5 27t97.5 72t60.5 103.5t20.5 120.5q0 65 -14 120t-50 95t-99 63t-162 26q-41 1 -87 -3l-35 90l420 500l-489 -4l-46 -185h-190l-25 374h1048v-134l-466 -525q36 5 71 7.5t66 2.5
q108 0 186 -26.5t128 -76t73.5 -120.5t23.5 -161q0 -108 -43 -199.5t-130 -158.5t-217.5 -105t-305.5 -38q-77 0 -149 8.5t-133 21t-106.5 26t-68.5 22.5z" />
    <glyph glyph-name="uni04E1" unicode="&#x4e1;" horiz-adv-x="1083" 
d="M74 1146h915l33 -152l-408 -460q92 6 170.5 -16.5t135.5 -71t89 -120t32 -162.5q0 -99 -43.5 -185.5t-124 -150t-194.5 -100.5t-254 -37q-61 0 -114.5 6.5t-98 16.5t-77.5 20.5t-52 18.5v293q17 -15 42.5 -33.5t55 -38t61 -38t61 -33t55.5 -23t44 -8.5q66 0 120.5 15.5
t94 48.5t61.5 83.5t22 121.5q0 39 -11 90t-42 94.5t-86.5 69.5t-143.5 15l-35 87l340 505l-403 -1l-40 -237h-195z" />
    <glyph glyph-name="uni04E2" unicode="&#x4e2;" horiz-adv-x="1760" 
d="M86 0v137l163 28v1192l-160 31v134h650v-134l-175 -30v-921l104 191l528 694v36l-162 30v134h637v-134l-160 -30v-1193l165 -28v-137h-645v137l165 28v935l-100 -199l-532 -677v-59l171 -28v-137h-649zM616 1752v193h578v-193h-578z" />
    <glyph glyph-name="uni04E3" unicode="&#x4e3;" horiz-adv-x="1590" 
d="M91 0v134l134 20v835l-131 30v127h581v-128l-147 -28v-708l107 190l476 674h384v-128l-130 -28v-837l139 -20v-133h-587v133l145 27v711l-95 -170l-490 -701h-386zM528 1421v193h578v-193h-578z" />
    <glyph glyph-name="uni04E4" unicode="&#x4e4;" horiz-adv-x="1760" 
d="M86 0v137l163 28v1192l-160 31v134h650v-134l-175 -30v-921l104 191l528 694v36l-162 30v134h637v-134l-160 -30v-1193l165 -28v-137h-645v137l165 28v935l-100 -199l-532 -677v-59l171 -28v-137h-649zM469 1807q0 39 10.5 73.5t32.5 60t54 40.5t76 15h1q40 0 70 -13
t50 -35.5t29.5 -51.5t9.5 -61q0 -40 -11 -75t-33.5 -60.5t-58 -40t-83.5 -14.5h-1q-35 0 -62 13t-46 35t-28.5 51.5t-9.5 62.5zM997 1807q0 39 10.5 73.5t32 60t54 40.5t76.5 15h1q40 0 70 -13t49.5 -35.5t29.5 -51.5t10 -61q0 -40 -11 -75t-34 -60.5t-58 -40t-83 -14.5h-1
q-35 0 -62.5 13t-46 35t-28 51.5t-9.5 62.5z" />
    <glyph glyph-name="uni04E5" unicode="&#x4e5;" horiz-adv-x="1590" 
d="M91 0v134l134 20v835l-131 30v127h581v-128l-147 -28v-708l107 190l476 674h384v-128l-130 -28v-837l139 -20v-133h-587v133l145 27v711l-95 -170l-490 -701h-386zM401 1495q0 39 10.5 73.5t32 60.5t54 41t76.5 15h1q40 0 70 -13.5t49.5 -36t29.5 -51.5t10 -61
q0 -40 -11 -74.5t-34 -60t-58 -40t-83 -14.5h-1q-35 0 -62.5 13t-46 34.5t-28 51t-9.5 62.5zM911 1495q0 39 10.5 73.5t32.5 60.5t54 41t76 15h1q40 0 70 -13.5t50 -36t29.5 -51.5t9.5 -61q0 -40 -11 -74.5t-33.5 -60t-58 -40t-83.5 -14.5h-1q-35 0 -62 13t-46 34.5
t-28.5 51t-9.5 62.5z" />
    <glyph glyph-name="uni04E6" unicode="&#x4e6;" horiz-adv-x="1515" 
d="M64 744q0 181 51 328t144.5 251.5t224.5 161t291 56.5q176 0 303.5 -53.5t210 -153.5t122 -241.5t39.5 -317.5q0 -181 -51 -328t-143.5 -251t-222 -161t-287.5 -58q-174 -2 -302.5 52t-212.5 154t-125.5 242.5t-41.5 318.5zM332 1807q0 39 10.5 73.5t32.5 60t54 40.5
t76 15h1q40 0 70 -13t50 -35.5t29.5 -51.5t9.5 -61q0 -40 -11 -75t-33.5 -60.5t-58 -40t-83.5 -14.5h-1q-35 0 -62 13t-46 35t-28.5 51.5t-9.5 62.5zM409 745q0 -167 24 -286.5t69 -196t109 -112t145 -35.5q79 0 143.5 41t110 123t70 205.5t24.5 289.5q0 165 -24 284.5
t-68.5 196t-108.5 113t-145 36.5q-80 0 -144.5 -40.5t-110 -122.5t-70 -206t-24.5 -290zM860 1807q0 39 10.5 73.5t32 60t54 40.5t76.5 15h1q40 0 70 -13t49.5 -35.5t29.5 -51.5t10 -61q0 -40 -11 -75t-34 -60.5t-58 -40t-83 -14.5h-1q-35 0 -62.5 13t-46 35t-28 51.5
t-9.5 62.5z" />
    <glyph glyph-name="uni04E7" unicode="&#x4e7;" horiz-adv-x="1232" 
d="M65 566q0 152 47 265t125 188t180.5 112t213.5 37q130 0 230 -40.5t168 -116.5t103 -185t35 -247q0 -156 -47 -270t-125 -187.5t-180 -109t-213 -35.5q-130 0 -230 40.5t-168.5 116.5t-103.5 185t-35 247zM206 1495q0 39 10.5 73.5t32 60.5t54 41t76.5 15h1
q40 0 70 -13.5t49.5 -36t29.5 -51.5t10 -61q0 -40 -11 -74.5t-34 -60t-58 -40t-83 -14.5h-1q-35 0 -62.5 13t-46 34.5t-28 51t-9.5 62.5zM399 598q0 -235 50.5 -359t169.5 -124q55 0 95 24.5t66.5 77t39 134.5t12.5 196q0 117 -11.5 207.5t-37 151.5t-67 92.5t-101.5 31.5
q-55 0 -95.5 -24.5t-67.5 -77t-40 -134.5t-13 -196zM716 1495q0 39 10.5 73.5t32.5 60.5t54 41t76 15h1q40 0 70 -13.5t50 -36t29.5 -51.5t9.5 -61q0 -40 -11 -74.5t-33.5 -60t-58 -40t-83.5 -14.5h-1q-35 0 -62 13t-46 34.5t-28.5 51t-9.5 62.5z" />
    <glyph glyph-name="uni04E8" unicode="&#x4e8;" horiz-adv-x="1498" 
d="M56 744q0 181 51 328t144.5 251.5t224.5 161t291 56.5q176 0 303.5 -53.5t210 -153.5t122 -241.5t39.5 -317.5q0 -181 -51 -328t-143.5 -251t-222 -161t-287.5 -58q-174 -2 -302.5 52t-212.5 154t-125.5 242.5t-41.5 318.5zM401 701q3 -155 28.5 -266t70.5 -182
t107.5 -104.5t140.5 -33.5q75 0 136.5 36.5t106.5 109.5t71.5 183t31.5 257h-693zM403 831h692q-4 150 -29.5 258.5t-70 178t-106.5 103t-139 33.5q-75 0 -136 -35.5t-106 -106.5t-72 -179t-33 -252z" />
    <glyph glyph-name="uni04E9" unicode="&#x4e9;" horiz-adv-x="1232" 
d="M65 566q0 152 47 265t125 188t180.5 112t213.5 37q130 0 230 -40.5t168 -116.5t103 -185t35 -247q0 -156 -47 -270t-125 -187.5t-180 -109t-213 -35.5q-130 0 -230 40.5t-168.5 116.5t-103.5 185t-35 247zM399 646h430q-9 187 -58.5 285.5t-155.5 98.5q-52 0 -91.5 -22
t-66 -68.5t-41 -119.5t-17.5 -174zM400 538q5 -206 56 -314.5t163 -108.5q54 0 94 24t66 75.5t39 131.5t14 192h-432z" />
    <glyph glyph-name="uni04EA" unicode="&#x4ea;" horiz-adv-x="1498" 
d="M56 744q0 181 51 328t144.5 251.5t224.5 161t291 56.5q176 0 303.5 -53.5t210 -153.5t122 -241.5t39.5 -317.5q0 -181 -51 -328t-143.5 -251t-222 -161t-287.5 -58q-174 -2 -302.5 52t-212.5 154t-125.5 242.5t-41.5 318.5zM343 1807q0 39 10.5 73.5t32.5 60t54 40.5
t76 15h1q40 0 70 -13t50 -35.5t29.5 -51.5t9.5 -61q0 -40 -11 -75t-33.5 -60.5t-58 -40t-83.5 -14.5h-1q-35 0 -62 13t-46 35t-28.5 51.5t-9.5 62.5zM401 701q3 -155 28.5 -266t70.5 -182t107.5 -104.5t140.5 -33.5q75 0 136.5 36.5t106.5 109.5t71.5 183t31.5 257h-693z
M403 831h692q-4 150 -29.5 258.5t-70 178t-106.5 103t-139 33.5q-75 0 -136 -35.5t-106 -106.5t-72 -179t-33 -252zM871 1807q0 39 10.5 73.5t32 60t54 40.5t76.5 15h1q40 0 70 -13t49.5 -35.5t29.5 -51.5t10 -61q0 -40 -11 -75t-34 -60.5t-58 -40t-83 -14.5h-1
q-35 0 -62.5 13t-46 35t-28 51.5t-9.5 62.5z" />
    <glyph glyph-name="uni04EB" unicode="&#x4eb;" horiz-adv-x="1232" 
d="M65 566q0 152 47 265t125 188t180.5 112t213.5 37q130 0 230 -40.5t168 -116.5t103 -185t35 -247q0 -156 -47 -270t-125 -187.5t-180 -109t-213 -35.5q-130 0 -230 40.5t-168.5 116.5t-103.5 185t-35 247zM206 1495q0 39 10.5 73.5t32 60.5t54 41t76.5 15h1
q40 0 70 -13.5t49.5 -36t29.5 -51.5t10 -61q0 -40 -11 -74.5t-34 -60t-58 -40t-83 -14.5h-1q-35 0 -62.5 13t-46 34.5t-28 51t-9.5 62.5zM399 646h430q-9 187 -58.5 285.5t-155.5 98.5q-52 0 -91.5 -22t-66 -68.5t-41 -119.5t-17.5 -174zM400 538q5 -206 56 -314.5
t163 -108.5q54 0 94 24t66 75.5t39 131.5t14 192h-432zM716 1495q0 39 10.5 73.5t32.5 60.5t54 41t76 15h1q40 0 70 -13.5t50 -36t29.5 -51.5t9.5 -61q0 -40 -11 -74.5t-33.5 -60t-58 -40t-83.5 -14.5h-1q-35 0 -62 13t-46 34.5t-28.5 51t-9.5 62.5z" />
    <glyph glyph-name="uni04EC" unicode="&#x4ec;" horiz-adv-x="1388" 
d="M72 391l181 14l91 -212q11 -11 29.5 -24.5t49 -24.5t74 -18.5t103.5 -7.5q81 0 146.5 42t113 117.5t76 180.5t35.5 231q-36 -33 -82 -54t-103 -21q-61 0 -111.5 22t-95.5 48.5t-87 48.5t-85 22q-25 0 -45.5 -8t-38 -20.5t-32.5 -27t-28 -27.5l-69 76q19 35 47 67t64 56
t78.5 38.5t89.5 14.5q61 0 110.5 -21t92 -46.5t82.5 -46.5t83 -21t73.5 22t55.5 47q-8 124 -37 224.5t-78.5 171.5t-120 109t-161.5 38q-51 0 -84 -7t-55.5 -18t-37 -25.5t-28.5 -29.5l-61 -222h-212l-10 369q42 3 87.5 14t101.5 23.5t126 22.5t162 10q171 0 313 -56.5
t244 -160t158 -250t56 -327.5q0 -170 -50.5 -311t-145 -242.5t-230 -157.5t-304.5 -56q-102 0 -177.5 12t-134.5 26t-106 26.5t-91 14.5zM209 1807q0 39 10.5 73.5t32.5 60t54 40.5t76 15h1q40 0 70 -13t50 -35.5t29.5 -51.5t9.5 -61q0 -40 -11 -75t-33.5 -60.5t-58 -40
t-83.5 -14.5h-1q-35 0 -62 13t-46 35t-28.5 51.5t-9.5 62.5zM737 1807q0 39 10.5 73.5t32 60t54 40.5t76.5 15h1q40 0 70 -13t49.5 -35.5t29.5 -51.5t10 -61q0 -40 -11 -75t-34 -60.5t-58 -40t-83 -14.5h-1q-35 0 -62.5 13t-46 35t-28 51.5t-9.5 62.5z" />
    <glyph glyph-name="uni04ED" unicode="&#x4ed;" horiz-adv-x="1085" 
d="M66 308h149l42 -151q34 -14 74 -22.5t87 -8.5q54 0 100 19t81 62.5t58 114t31 172.5q-25 -16 -55 -25.5t-65 -9.5q-50 0 -89 13t-73 28.5t-65.5 28.5t-66.5 13q-42 0 -67 -18t-47 -38l-62 80q11 27 31 54t48.5 48.5t65 35.5t81.5 14q49 0 88 -17t73 -38t65.5 -38
t66.5 -17q23 0 41 7.5t33 18.5q-3 91 -20.5 165t-48.5 126t-75 80.5t-100 28.5q-36 0 -61 -7.5t-43 -19.5t-31 -26.5t-23 -29.5l-39 -107h-171l-4 269q22 9 64.5 19t94.5 18.5t107.5 14t104.5 5.5q121 0 226 -41.5t182 -119.5t121.5 -189t43.5 -250q-1 -137 -40 -247
t-109.5 -187t-170.5 -118t-222 -41q-68 0 -128.5 9t-112.5 25t-93.5 37t-70.5 45zM71 1495q0 39 10.5 73.5t32 60.5t54 41t76.5 15h1q40 0 70 -13.5t49.5 -36t29.5 -51.5t10 -61q0 -40 -11 -74.5t-34 -60t-58 -40t-83 -14.5h-1q-35 0 -62.5 13t-46 34.5t-28 51t-9.5 62.5z
M581 1495q0 39 10.5 73.5t32.5 60.5t54 41t76 15h1q40 0 70 -13.5t50 -36t29.5 -51.5t9.5 -61q0 -40 -11 -74.5t-33.5 -60t-58 -40t-83.5 -14.5h-1q-35 0 -62 13t-46 34.5t-28.5 51t-9.5 62.5z" />
    <glyph glyph-name="uni04EE" unicode="&#x4ee;" horiz-adv-x="1308" 
d="M-31 1388v134h645v-134l-166 -31l237 -634l58 -188l61 190l211 633l-135 30v134h466v-134l-128 -34l-392 -1014q-24 -59 -55 -123.5t-75 -117.5t-105 -87.5t-145 -34.5q-30 0 -62 3t-61.5 8t-54.5 12t-43 15v189h129q57 0 93 4t59 16.5t38 36.5t30 64l-470 1031z
M419 1722v194h623v-194h-623z" />
    <glyph glyph-name="uni04EF" unicode="&#x4ef;" horiz-adv-x="1228" 
d="M-9 1018v128h579v-128l-151 -29l191 -592l78 -272l68 272l152 592l-130 29v128h442v-128l-92 -28q-29 -91 -61.5 -196.5t-65.5 -213t-65 -209.5t-58 -186t-45.5 -143t-28.5 -80q-42 -116 -91.5 -204t-108 -147.5t-128 -90t-151.5 -30.5q-20 0 -44 1t-47 3t-41.5 4.5
t-26.5 5.5v245q15 -7 59.5 -16.5t104.5 -9.5q30 0 65.5 7t73.5 35t77 83.5t76 151.5h-180l-360 990zM358 1421v193h578v-193h-578z" />
    <glyph glyph-name="uni04F0" unicode="&#x4f0;" horiz-adv-x="1308" 
d="M-31 1388v134h645v-134l-166 -31l237 -634l58 -188l61 190l211 633l-135 30v134h466v-134l-128 -34l-392 -1014q-24 -59 -55 -123.5t-75 -117.5t-105 -87.5t-145 -34.5q-30 0 -62 3t-61.5 8t-54.5 12t-43 15v189h129q57 0 93 4t59 16.5t38 36.5t30 64l-470 1031z
M300 1782q0 39 10.5 73.5t32.5 60t54 40.5t76 15h1q40 0 70 -13t50 -35.5t29.5 -51.5t9.5 -61q0 -40 -11 -75t-33.5 -60.5t-58 -40t-83.5 -14.5h-1q-35 0 -62 13t-46 35t-28.5 51.5t-9.5 62.5zM828 1782q0 39 10.5 73.5t32 60t54 40.5t76.5 15h1q40 0 70 -13t49.5 -35.5
t29.5 -51.5t10 -61q0 -40 -11 -75t-34 -60.5t-58 -40t-83 -14.5h-1q-35 0 -62.5 13t-46 35t-28 51.5t-9.5 62.5z" />
    <glyph glyph-name="uni04F1" unicode="&#x4f1;" horiz-adv-x="1228" 
d="M-9 1018v128h579v-128l-151 -29l191 -592l78 -272l68 272l152 592l-130 29v128h442v-128l-92 -28q-29 -91 -61.5 -196.5t-65.5 -213t-65 -209.5t-58 -186t-45.5 -143t-28.5 -80q-42 -116 -91.5 -204t-108 -147.5t-128 -90t-151.5 -30.5q-20 0 -44 1t-47 3t-41.5 4.5
t-26.5 5.5v245q15 -7 59.5 -16.5t104.5 -9.5q30 0 65.5 7t73.5 35t77 83.5t76 151.5h-180l-360 990zM242 1495q0 39 10.5 73.5t32 60.5t54 41t76.5 15h1q40 0 70 -13.5t49.5 -36t29.5 -51.5t10 -61q0 -40 -11 -74.5t-34 -60t-58 -40t-83 -14.5h-1q-35 0 -62.5 13t-46 34.5
t-28 51t-9.5 62.5zM752 1495q0 39 10.5 73.5t32.5 60.5t54 41t76 15h1q40 0 70 -13.5t50 -36t29.5 -51.5t9.5 -61q0 -40 -11 -74.5t-33.5 -60t-58 -40t-83.5 -14.5h-1q-35 0 -62 13t-46 34.5t-28.5 51t-9.5 62.5z" />
    <glyph glyph-name="uni04F2" unicode="&#x4f2;" horiz-adv-x="1308" 
d="M-31 1388v134h645v-134l-166 -31l237 -634l58 -188l61 190l211 633l-135 30v134h466v-134l-128 -34l-392 -1014q-24 -59 -55 -123.5t-75 -117.5t-105 -87.5t-145 -34.5q-30 0 -62 3t-61.5 8t-54.5 12t-43 15v189h129q57 0 93 4t59 16.5t38 36.5t30 64l-470 1031z
M314 1717l288 297l174 -139q-34 -41 -77.5 -80t-89.5 -73.5t-91 -63t-82 -47.5zM853 1717l298 297l165 -137q-28 -37 -70 -76t-89.5 -75t-95 -66t-86.5 -49z" />
    <glyph glyph-name="uni04F3" unicode="&#x4f3;" horiz-adv-x="1228" 
d="M-9 1018v128h579v-128l-151 -29l191 -592l78 -272l68 272l152 592l-130 29v128h442v-128l-92 -28q-29 -91 -61.5 -196.5t-65.5 -213t-65 -209.5t-58 -186t-45.5 -143t-28.5 -80q-42 -116 -91.5 -204t-108 -147.5t-128 -90t-151.5 -30.5q-20 0 -44 1t-47 3t-41.5 4.5
t-26.5 5.5v245q15 -7 59.5 -16.5t104.5 -9.5q30 0 65.5 7t73.5 35t77 83.5t76 151.5h-180l-360 990zM288 1421l321 402l173 -151q-17 -27 -46.5 -59t-66 -65.5t-76.5 -66t-78.5 -61t-71.5 -51t-55 -34.5zM791 1421l328 402l165 -147q-14 -25 -41.5 -56t-63.5 -65
t-76.5 -67.5t-79.5 -63.5t-74 -53.5t-58 -35.5z" />
    <glyph glyph-name="uni04F4" unicode="&#x4f4;" horiz-adv-x="1525" 
d="M9 1386v136h605v-136l-172 -31v-257q0 -84 4 -143t14 -98.5t27 -62.5t42.5 -35t61 -15t83.5 -3q45 0 89 4.5t81.5 13t67 19.5t47.5 24v555l-172 31v134h663v-134l-175 -31v-1193l175 -29v-135h-705v137l214 28v477q-39 -23 -87.5 -39t-100.5 -26t-104 -15t-98 -5
q-110 0 -192.5 21t-138 74t-83.5 142t-28 226v335zM276 1782q0 39 10.5 73.5t32.5 60t54 40.5t76 15h1q40 0 70 -13t50 -35.5t29.5 -51.5t9.5 -61q0 -40 -11 -75t-33.5 -60.5t-58 -40t-83.5 -14.5h-1q-35 0 -62 13t-46 35t-28.5 51.5t-9.5 62.5zM804 1782q0 39 10.5 73.5
t32 60t54 40.5t76.5 15h1q40 0 70 -13t49.5 -35.5t29.5 -51.5t10 -61q0 -40 -11 -75t-34 -60.5t-58 -40t-83 -14.5h-1q-35 0 -62.5 13t-46 35t-28 51.5t-9.5 62.5z" />
    <glyph glyph-name="uni04F5" unicode="&#x4f5;" horiz-adv-x="1451" 
d="M37 1018v128h562v-128l-127 -28v-113q0 -104 7 -169.5t27 -102.5t55.5 -50.5t93.5 -13.5q35 0 75.5 3t78 8t68.5 13t47 17v408l-151 28v128h585v-128l-132 -28v-831l135 -25v-134h-612v134l175 26v288q-73 -30 -168 -47.5t-224 -17.5q-98 0 -168.5 22t-116 73.5
t-67.5 136t-22 209.5v166zM275 1495q0 39 10.5 73.5t32 60.5t54 41t76.5 15h1q40 0 70 -13.5t49.5 -36t29.5 -51.5t10 -61q0 -40 -11 -74.5t-34 -60t-58 -40t-83 -14.5h-1q-35 0 -62.5 13t-46 34.5t-28 51t-9.5 62.5zM785 1495q0 39 10.5 73.5t32.5 60.5t54 41t76 15h1
q40 0 70 -13.5t50 -36t29.5 -51.5t9.5 -61q0 -40 -11 -74.5t-33.5 -60t-58 -40t-83.5 -14.5h-1q-35 0 -62 13t-46 34.5t-28.5 51t-9.5 62.5z" />
    <glyph glyph-name="uni04F6" unicode="&#x4f6;" horiz-adv-x="1175" 
d="M16 0v136l233 30v1184l-218 40v132h1091l23 -589h-188l-72 422l-316 21v-1211h334q0 -21 -3 -67.5t-8.5 -105.5t-11.5 -123.5t-12.5 -120.5t-12 -97.5t-8.5 -54.5h-177q0 39 -2 95.5t-7 115t-15 111t-27 82.5h-603z" />
    <glyph glyph-name="uni04F7" unicode="&#x4f7;" horiz-adv-x="1060" 
d="M83 0v134l146 20v835l-142 29v128h931l10 -455h-188l-64 303l-245 18v-857h281q0 -21 -3 -67t-8 -103.5t-11.5 -121t-12.5 -118.5t-11.5 -95.5t-8.5 -53.5h-177q0 39 -2 95.5t-7 115t-15 111t-27 82.5h-446z" />
    <glyph glyph-name="uni04F8" unicode="&#x4f8;" horiz-adv-x="2124" 
d="M85 0v137l164 18v1205l-161 34v128h687v-128l-210 -36v-479q17 4 45.5 8t62.5 7.5t71.5 6t73.5 2.5q121 0 217.5 -29.5t163.5 -85.5t102.5 -137t35.5 -184q0 -117 -39 -207.5t-109.5 -151.5t-168 -92.5t-213.5 -31.5q-12 0 -40 1t-64 3t-77 4t-80 4t-73 3t-55 1h-333z
M565 143q27 -8 60.5 -13.5t93.5 -5.5q78 0 133 24t90 67.5t51 102.5t16 130q0 162 -72.5 234t-208.5 72q-56 0 -94 -2t-69 -8v-601zM670 1807q0 39 10.5 73.5t32.5 60t54 40.5t76 15h1q40 0 70 -13t50 -35.5t29.5 -51.5t9.5 -61q0 -40 -11 -75t-33.5 -60.5t-58 -40
t-83.5 -14.5h-1q-35 0 -62 13t-46 35t-28.5 51.5t-9.5 62.5zM1198 1807q0 39 10.5 73.5t32 60t54 40.5t76.5 15h1q40 0 70 -13t49.5 -35.5t29.5 -51.5t10 -61q0 -40 -11 -75t-34 -60.5t-58 -40t-83 -14.5h-1q-35 0 -62.5 13t-46 35t-28 51.5t-9.5 62.5zM1381 0v137l176 28
v1192l-176 31v134h668v-134l-175 -31v-1192l175 -30v-135h-668z" />
    <glyph glyph-name="uni04F9" unicode="&#x4f9;" horiz-adv-x="1933" 
d="M75 0v128l150 26v836l-145 26v130h621v-130l-174 -26v-320q14 4 41.5 8.5t60.5 8.5t68 7t65 3q123 0 209.5 -22.5t140.5 -66.5t78.5 -108.5t24.5 -148.5q0 -194 -121.5 -282t-355.5 -88q-15 0 -44 1.5t-65 3.5t-76 4.5t-77.5 4.5t-69.5 3.5t-51 1.5h-280zM527 140
q23 -7 55 -12.5t89 -5.5q124 0 178.5 53.5t54.5 156.5q0 60 -15 100.5t-44.5 65t-72.5 35t-99 10.5q-47 0 -85 -7t-61 -15v-381zM548 1495q0 39 10.5 73.5t32 60.5t54 41t76.5 15h1q40 0 70 -13.5t49.5 -36t29.5 -51.5t10 -61q0 -40 -11 -74.5t-34 -60t-58 -40t-83 -14.5h-1
q-35 0 -62.5 13t-46 34.5t-28 51t-9.5 62.5zM1058 1495q0 39 10.5 73.5t32.5 60.5t54 41t76 15h1q40 0 70 -13.5t50 -36t29.5 -51.5t9.5 -61q0 -40 -11 -74.5t-33.5 -60t-58 -40t-83.5 -14.5h-1q-35 0 -62 13t-46 34.5t-28.5 51t-9.5 62.5zM1265 1016v130h580v-130l-137 -22
v-835l147 -25v-134h-586v134l130 25v830z" />
    <glyph glyph-name="uni2000" unicode="&#x2000;" horiz-adv-x="1007" 
 />
    <glyph glyph-name="uni2001" unicode="&#x2001;" horiz-adv-x="2014" 
 />
    <glyph glyph-name="uni2002" unicode="&#x2002;" horiz-adv-x="1007" 
 />
    <glyph glyph-name="uni2003" unicode="&#x2003;" horiz-adv-x="2014" 
 />
    <glyph glyph-name="uni2004" unicode="&#x2004;" horiz-adv-x="671" 
 />
    <glyph glyph-name="uni2005" unicode="&#x2005;" horiz-adv-x="503" 
 />
    <glyph glyph-name="uni2006" unicode="&#x2006;" horiz-adv-x="335" 
 />
    <glyph glyph-name="uni2007" unicode="&#x2007;" horiz-adv-x="335" 
 />
    <glyph glyph-name="uni2008" unicode="&#x2008;" horiz-adv-x="251" 
 />
    <glyph glyph-name="uni2009" unicode="&#x2009;" horiz-adv-x="402" 
 />
    <glyph glyph-name="uni200A" unicode="&#x200a;" horiz-adv-x="111" 
 />
    <glyph glyph-name="uni2010" unicode="&#x2010;" horiz-adv-x="1345" 
d="M230 515v203h885v-203h-885z" />
    <glyph glyph-name="uni2011" unicode="&#x2011;" horiz-adv-x="1345" 
d="M230 515v203h885v-203h-885z" />
    <glyph glyph-name="figuredash" unicode="&#x2012;" horiz-adv-x="1345" 
d="M230 515v203h885v-203h-885z" />
    <glyph glyph-name="endash" unicode="&#x2013;" horiz-adv-x="1480" 
d="M230 508v210h1020v-210h-1020z" />
    <glyph glyph-name="emdash" unicode="&#x2014;" horiz-adv-x="2508" 
d="M230 514v204h2048v-204h-2048z" />
    <glyph glyph-name="quoteleft" unicode="&#x2018;" horiz-adv-x="776" 
d="M202 1162q0 112 30 207.5t73 169.5t90 123t80 69h2l80 -78v-37q-18 -15 -39.5 -41.5t-40 -66.5t-31.5 -93.5t-13 -122.5q0 -44 10 -74.5t25.5 -53.5t33 -41.5t33 -39.5t25.5 -47.5t10 -64.5q0 -73 -40 -113t-102 -40h-1q-48 0 -89 25.5t-71.5 71.5t-47.5 109t-17 138z
" />
    <glyph glyph-name="quoteright" unicode="&#x2019;" horiz-adv-x="776" 
d="M205 1636q0 73 40 113t102 40h1q48 0 89 -25.5t71.5 -71.5t47.5 -109t17 -138q0 -112 -30 -207.5t-73 -169.5t-90 -123t-80 -69h-2l-80 78v37q18 15 39.5 41.5t40 66.5t31.5 93.5t13 122.5q0 44 -10 74.5t-25.5 53.5t-33 41.5t-33 39.5t-25.5 47.5t-10 64.5z" />
    <glyph glyph-name="quotesinglbase" unicode="&#x201a;" horiz-adv-x="776" 
d="M205 249q0 73 40 113t102 40h1q48 0 89 -25.5t71.5 -71.5t47.5 -109t17 -138q0 -112 -30 -207.5t-73 -169.5t-90 -123t-80 -69h-2l-80 78v37q18 15 39.5 41.5t40 66.5t31.5 93.5t13 122.5q0 44 -10 74.5t-25.5 53.5t-33 41.5t-33 39.5t-25.5 47.5t-10 64.5z" />
    <glyph glyph-name="quotedblleft" unicode="&#x201c;" horiz-adv-x="1331" 
d="M202 1162q0 112 30 207.5t73 169.5t90 123t80 69h2l80 -78v-37q-18 -15 -39.5 -41.5t-40 -66.5t-31.5 -93.5t-13 -122.5q0 -44 10 -74.5t25.5 -53.5t33 -41.5t33 -39.5t25.5 -47.5t10 -64.5q0 -73 -40 -113t-102 -40h-1q-48 0 -89 25.5t-71.5 71.5t-47.5 109t-17 138z
M756 1162q0 112 30 207.5t73 169.5t90 123t80 69h2l80 -78v-37q-18 -15 -39.5 -41.5t-40 -66.5t-31.5 -93.5t-13 -122.5q0 -44 10 -74.5t25.5 -53.5t33 -41.5t33 -39.5t25.5 -47.5t10 -64.5q0 -73 -40 -113t-102 -40h-1q-48 0 -89 25.5t-71.5 71.5t-47.5 109t-17 138z" />
    <glyph glyph-name="quotedblright" unicode="&#x201d;" horiz-adv-x="1330" 
d="M205 1636q0 73 40 113t102 40h1q48 0 89 -25.5t71.5 -71.5t47.5 -109t17 -138q0 -112 -30 -207.5t-73 -169.5t-90 -123t-80 -69h-2l-80 78v37q18 15 39.5 41.5t40 66.5t31.5 93.5t13 122.5q0 44 -10 74.5t-25.5 53.5t-33 41.5t-33 39.5t-25.5 47.5t-10 64.5zM759 1636
q0 73 40 113t102 40h1q48 0 89 -25.5t71.5 -71.5t47.5 -109t17 -138q0 -112 -30 -207.5t-73 -169.5t-90 -123t-80 -69h-2l-80 78v37q18 15 39.5 41.5t40 66.5t31.5 93.5t13 122.5q0 44 -10 74.5t-25.5 53.5t-33 41.5t-33 39.5t-25.5 47.5t-10 64.5z" />
    <glyph glyph-name="quotedblbase" unicode="&#x201e;" horiz-adv-x="1330" 
d="M205 249q0 73 40 113t102 40h1q48 0 89 -25.5t71.5 -71.5t47.5 -109t17 -138q0 -112 -30 -207.5t-73 -169.5t-90 -123t-80 -69h-2l-80 78v37q18 15 39.5 41.5t40 66.5t31.5 93.5t13 122.5q0 44 -10 74.5t-25.5 53.5t-33 41.5t-33 39.5t-25.5 47.5t-10 64.5zM759 249
q0 73 40 113t102 40h1q48 0 89 -25.5t71.5 -71.5t47.5 -109t17 -138q0 -112 -30 -207.5t-73 -169.5t-90 -123t-80 -69h-2l-80 78v37q18 15 39.5 41.5t40 66.5t31.5 93.5t13 122.5q0 44 -10 74.5t-25.5 53.5t-33 41.5t-33 39.5t-25.5 47.5t-10 64.5z" />
    <glyph glyph-name="bullet" unicode="&#x2022;" horiz-adv-x="852" 
d="M206 693q0 49 19 90.5t51.5 71t74.5 46t87 16.5t83 -16.5t66 -46t44 -70.5t16 -91q0 -48 -19.5 -89t-51.5 -71t-73.5 -47.5t-85.5 -17.5q-45 0 -83.5 18t-67 48.5t-44.5 71.5t-16 87z" />
    <glyph glyph-name="ellipsis" unicode="&#x2026;" horiz-adv-x="2152" 
d="M167 143q0 40 16 75t44 61t65 40.5t79 14.5q49 0 83 -13t55.5 -35t31 -51t9.5 -62q0 -43 -15.5 -78t-43 -60t-66 -38.5t-83.5 -13.5q-35 0 -67 11t-56 32t-38 50.5t-14 66.5zM884 143q0 40 16 75t44 61t65 40.5t79 14.5q49 0 83 -13t55.5 -35t31 -51t9.5 -62
q0 -43 -15.5 -78t-43 -60t-66 -38.5t-83.5 -13.5q-35 0 -67 11t-56 32t-38 50.5t-14 66.5zM1601 143q0 40 16 75t44 61t65 40.5t79 14.5q49 0 83 -13t55.5 -35t31 -51t9.5 -62q0 -43 -15.5 -78t-43 -60t-66 -38.5t-83.5 -13.5q-35 0 -67 11t-56 32t-38 50.5t-14 66.5z" />
    <glyph glyph-name="uni202F" unicode="&#x202f;" horiz-adv-x="402" 
 />
    <glyph glyph-name="guilsinglleft" unicode="&#x2039;" horiz-adv-x="1189" 
d="M228 528v165l654 451l85 -133l-403 -399l406 -393l-88 -130z" />
    <glyph glyph-name="guilsinglright" unicode="&#x203a;" horiz-adv-x="1189" 
d="M219 219l88 -130l654 439v165l-654 451l-85 -133l403 -399z" />
    <glyph glyph-name="uni205F" unicode="&#x205f;" horiz-adv-x="503" 
 />
    <glyph glyph-name="Euro" unicode="&#x20ac;" horiz-adv-x="1551" 
d="M108 520v139h187q-1 17 -1 35v36q0 81 9 156h-183v140h210q33 127 94.5 227.5t146 170t188.5 106.5t223 37q85 0 152.5 -12t120.5 -27t94.5 -28.5t74.5 -16.5l-22 -364h-183l-53 239q-27 34 -82 49.5t-122 15.5q-128 0 -211 -99.5t-114 -297.5h447v-140h-462
q-2 -25 -2 -51v-53q0 -65 3 -123h441v-139h-427q14 -96 40.5 -173.5t67 -132t95.5 -84t126 -29.5q75 0 122 19.5t84 58.5l100 202l149 -39l-12 -280q-33 -2 -78.5 -16t-106.5 -30.5t-139.5 -30t-176.5 -13.5q-122 0 -221.5 38t-175.5 109t-126.5 172.5t-73.5 228.5h-203z
" />
    <glyph glyph-name="trademark" unicode="&#x2122;" horiz-adv-x="2304" 
d="M116 1298l20 273h742v-271l-80 -5l-27 164l-167 6v-574l131 -16v-89h-456v89l123 16v572l-160 -5l-43 -159zM948 786v89l106 16l45 574l-105 9v97h414l138 -431l44 -136l188 567h355v-97l-97 -9l53 -573l101 -17v-89h-388v89l91 16l-22 363l-10 215l-20 -60l-217 -631
h-138l-206 553l-56 141l-5 -148l-22 -434l89 -15v-89h-338z" />
    <glyph glyph-name="uni25FC" unicode="&#x25fc;" horiz-adv-x="1145" 
d="M0 0v1145h1145v-1145h-1145z" />
  </font>
</defs>
</svg>
